# Counter Duty prepared multi-material OBJ
mtllib cleaning_materials.mtl
o Bucket_Cube
usemtl Bristles
v 0.00000050 0.28976500 0.07496550
v 0.00000050 0.28976500 0.07496550
v 0.00000050 0.28976500 0.07496550
v 0.18101750 0.28976500 -0.02954450
v 0.18101750 0.28976500 -0.02954450
v 0.18101750 0.28976500 -0.02954450
v 0.18101750 0.28976500 -0.23856550
v 0.18101750 0.28976500 -0.23856550
v 0.18101750 0.28976500 -0.23856550
v -0.18101650 0.28976500 -0.23856550
v -0.18101650 0.28976500 -0.23856550
v -0.18101650 0.28976500 -0.23856550
v -0.18101650 0.28976500 -0.02954450
v -0.18101650 0.28976500 -0.02954450
v -0.18101650 0.28976500 -0.02954450
v 0.00000050 0.28976500 -0.34307550
v 0.00000050 0.28976500 -0.34307550
v 0.00000050 0.28976500 -0.34307550
v 0.00000050 0.00000000 0.39710750
v 0.00000050 0.00000000 0.39710750
v 0.00000050 0.00000000 0.39710750
v -0.33546150 0.00000000 0.20342850
v -0.33546150 0.00000000 0.20342850
v -0.33546150 0.00000000 0.20342850
v -0.33546150 0.00000000 -0.18392850
v -0.33546150 0.00000000 -0.18392850
v -0.33546150 0.00000000 -0.18392850
v 0.00000050 0.00000000 -0.37760750
v 0.00000050 0.00000000 -0.37760750
v 0.00000050 0.00000000 -0.37760750
v 0.33546150 0.00000000 -0.18392850
v 0.33546150 0.00000000 -0.18392850
v 0.33546150 0.00000000 -0.18392850
v 0.33546150 0.00000000 0.20342850
v 0.33546150 0.00000000 0.20342850
v 0.33546150 0.00000000 0.20342850
v 0.24844950 0.24174400 -0.25366550
v 0.24844950 0.24174400 -0.25366550
v 0.24844950 0.24174400 -0.25366550
v 0.24844950 0.24174400 -0.25366550
v 0.00000050 0.24174400 -0.39710750
v 0.00000050 0.24174400 -0.39710750
v 0.00000050 0.24174400 -0.39710750
v 0.00000050 0.24174400 -0.39710750
v -0.24844850 0.24174400 -0.25366550
v -0.24844850 0.24174400 -0.25366550
v -0.24844850 0.24174400 -0.25366550
v -0.24844850 0.24174400 -0.25366550
v -0.24844850 0.24174400 0.03321950
v -0.24844850 0.24174400 0.03321950
v -0.24844850 0.24174400 0.03321950
v -0.24844850 0.24174400 0.03321950
v 0.00000050 0.24174400 0.17666150
v 0.00000050 0.24174400 0.17666150
v 0.00000050 0.24174400 0.17666150
v 0.00000050 0.24174400 0.17666150
v 0.24844950 0.24174400 0.03321950
v 0.24844950 0.24174400 0.03321950
v 0.24844950 0.24174400 0.03321950
v 0.24844950 0.24174400 0.03321950
vt 0.75000000 0.01000000
vt 0.75000000 0.01000000
vt 0.75000000 0.01000000
vt 0.95784600 0.13000000
vt 0.95784600 0.13000000
vt 0.95784600 0.13000000
vt 0.95784600 0.37000000
vt 0.95784600 0.37000000
vt 0.95784600 0.37000000
vt 0.54215400 0.37000000
vt 0.54215400 0.37000000
vt 0.54215400 0.37000000
vt 0.54215400 0.13000000
vt 0.54215400 0.13000000
vt 0.54215400 0.13000000
vt 0.75000000 0.49000000
vt 0.75000000 0.49000000
vt 0.75000000 0.49000000
vt 0.75000000 0.01000000
vt 0.75000000 0.01000000
vt 0.75000000 0.01000000
vt 0.54215400 0.13000000
vt 0.54215400 0.13000000
vt 0.54215400 0.13000000
vt 0.54215400 0.37000000
vt 0.54215400 0.37000000
vt 0.54215400 0.37000000
vt 0.75000000 0.49000000
vt 0.75000000 0.49000000
vt 0.75000000 0.49000000
vt 0.95784600 0.37000000
vt 0.95784600 0.37000000
vt 0.95784600 0.37000000
vt 0.95784600 0.13000000
vt 0.95784600 0.13000000
vt 0.95784600 0.13000000
vt 0.95784600 0.37000000
vt 0.95784600 0.37000000
vt 0.95784600 0.37000000
vt 0.95784600 0.37000000
vt 0.75000000 0.49000000
vt 0.75000000 0.49000000
vt 0.75000000 0.49000000
vt 0.75000000 0.49000000
vt 0.54215400 0.37000000
vt 0.54215400 0.37000000
vt 0.54215400 0.37000000
vt 0.54215400 0.37000000
vt 0.54215400 0.13000000
vt 0.54215400 0.13000000
vt 0.54215400 0.13000000
vt 0.54215400 0.13000000
vt 0.75000000 0.01000000
vt 0.75000000 0.01000000
vt 0.75000000 0.01000000
vt 0.75000000 0.01000000
vt 0.95784600 0.13000000
vt 0.95784600 0.13000000
vt 0.95784600 0.13000000
vt 0.95784600 0.13000000
vn 0.00000000 1.00000000 0.00000000
vn -0.23935715 0.87797055 0.41457914
vn 0.23935683 0.87797069 0.41457904
vn 0.00000000 1.00000000 0.00000000
vn 0.23935729 0.87797040 0.41457938
vn 0.58008007 0.81455946 0.00000000
vn 0.00000000 1.00000000 0.00000000
vn 0.58008007 0.81455946 0.00000000
vn 0.35810214 0.69788956 -0.62025238
vn -0.35810229 0.69788993 -0.62025188
vn -0.58008007 0.81455946 0.00000000
vn 0.00000000 1.00000000 0.00000000
vn 0.00000000 1.00000000 0.00000000
vn -0.58008007 0.81455946 0.00000000
vn -0.23935719 0.87797030 0.41457966
vn 0.00000000 1.00000000 0.00000000
vn 0.35810197 0.69789059 -0.62025133
vn -0.35810151 0.69789086 -0.62025128
vn 0.00000000 -1.00000000 0.00000000
vn -0.39239285 0.61976693 0.67964462
vn 0.39239351 0.61976635 0.67964476
vn -0.94090582 0.33866833 0.00000000
vn -0.39239282 0.61976690 0.67964466
vn 0.00000000 -1.00000000 0.00000000
vn -0.94090582 0.33866833 0.00000000
vn -0.49878430 -0.06968726 -0.86392008
vn 0.00000000 -1.00000000 0.00000000
vn 0.00000000 -1.00000000 0.00000000
vn 0.49878542 -0.06968706 -0.86391945
vn -0.49878424 -0.06968718 -0.86392012
vn 0.00000000 -1.00000000 0.00000000
vn 0.94090706 0.33866489 0.00000000
vn 0.49878474 -0.06968826 -0.86391975
vn 0.00000000 -1.00000000 0.00000000
vn 0.94090706 0.33866489 0.00000000
vn 0.39239416 0.61976584 0.67964486
vn 0.49878412 -0.06968937 -0.86392002
vn 0.94090706 0.33866489 0.00000000
vn 0.58008007 0.81455946 0.00000000
vn 0.35810209 0.69788989 -0.62025205
vn 0.35810194 0.69789074 -0.62025117
vn -0.35810172 0.69789061 -0.62025144
vn -0.49878420 -0.06968712 -0.86392015
vn 0.49878495 -0.06968789 -0.86391965
vn -0.49878426 -0.06968721 -0.86392011
vn -0.94090582 0.33866833 0.00000000
vn -0.58008007 0.81455946 0.00000000
vn -0.35810240 0.69788979 -0.62025197
vn -0.23935717 0.87797040 0.41457946
vn -0.39239279 0.61976686 0.67964471
vn -0.58008007 0.81455946 0.00000000
vn -0.94090582 0.33866833 0.00000000
vn 0.23935702 0.87797057 0.41457918
vn -0.23935714 0.87797062 0.41457901
vn 0.39239275 0.61976696 0.67964465
vn -0.39239282 0.61976690 0.67964466
vn 0.94090706 0.33866489 0.00000000
vn 0.39239356 0.61976632 0.67964477
vn 0.23935740 0.87797033 0.41457946
vn 0.58008007 0.81455946 0.00000000
f 1/1/1 4/4/4 7/7/7
f 1/1/1 7/7/7 16/16/16
f 1/1/1 16/16/16 12/12/12
f 1/1/1 12/12/12 13/13/13
f 19/19/19 24/24/24 27/27/27
f 19/19/19 27/27/27 28/28/28
f 19/19/19 28/28/28 31/31/31
f 19/19/19 31/31/31 34/34/34
f 44/44/44 37/37/37 33/33/33
f 33/33/33 29/29/29 44/44/44
f 52/52/52 46/46/46 25/25/25
f 25/25/25 22/22/22 52/52/52
f 45/45/45 43/43/43 30/30/30
f 30/30/30 26/26/26 45/45/45
f 58/58/58 55/55/55 21/21/21
f 21/21/21 36/36/36 58/58/58
f 38/38/38 57/57/57 35/35/35
f 35/35/35 32/32/32 38/38/38
f 56/56/56 50/50/50 23/23/23
f 23/23/23 20/20/20 56/56/56
f 2/2/2 15/15/15 49/49/49
f 49/49/49 54/54/54 2/2/2
f 8/8/8 6/6/6 60/60/60
f 60/60/60 39/39/39 8/8/8
f 5/5/5 3/3/3 53/53/53
f 53/53/53 59/59/59 5/5/5
f 10/10/10 18/18/18 42/42/42
f 42/42/42 48/48/48 10/10/10
f 14/14/14 11/11/11 47/47/47
f 47/47/47 51/51/51 14/14/14
f 17/17/17 9/9/9 40/40/40
f 40/40/40 41/41/41 17/17/17
o Bucket_Cube_1
usemtl Yellow2
v 0.00000050 2.14004900 -0.16742050
v 0.00000050 2.14004900 -0.16742050
v 0.00000050 2.14004900 -0.16742050
v 0.00000050 2.47562800 -0.16742050
v 0.00000050 2.47562800 -0.16742050
v 0.00000050 2.47562800 -0.16742050
v 0.00000050 2.47562800 -0.16742050
v 0.02889550 2.14004900 -0.15073750
v 0.02889550 2.14004900 -0.15073750
v 0.02889550 2.14004900 -0.15073750
v 0.02889550 2.47562800 -0.15073750
v 0.02889550 2.47562800 -0.15073750
v 0.02889550 2.47562800 -0.15073750
v 0.02889550 2.47562800 -0.15073750
v 0.02889550 2.14004900 -0.11737250
v 0.02889550 2.14004900 -0.11737250
v 0.02889550 2.14004900 -0.11737250
v 0.02889550 2.47562800 -0.11737250
v 0.02889550 2.47562800 -0.11737250
v 0.02889550 2.47562800 -0.11737250
v 0.02889550 2.47562800 -0.11737250
v 0.00000050 2.14004900 -0.10068950
v 0.00000050 2.14004900 -0.10068950
v 0.00000050 2.14004900 -0.10068950
v 0.00000050 2.47562800 -0.10068950
v 0.00000050 2.47562800 -0.10068950
v 0.00000050 2.47562800 -0.10068950
v 0.00000050 2.47562800 -0.10068950
v -0.02889450 2.14004900 -0.11737250
v -0.02889450 2.14004900 -0.11737250
v -0.02889450 2.14004900 -0.11737250
v -0.02889450 2.47562800 -0.11737250
v -0.02889450 2.47562800 -0.11737250
v -0.02889450 2.47562800 -0.11737250
v -0.02889450 2.47562800 -0.11737250
v -0.02889450 2.14004900 -0.15073750
v -0.02889450 2.14004900 -0.15073750
v -0.02889450 2.14004900 -0.15073750
v -0.02889450 2.47562800 -0.15073750
v -0.02889450 2.47562800 -0.15073750
v -0.02889450 2.47562800 -0.15073750
v -0.02889450 2.47562800 -0.15073750
v 0.00000050 2.48540800 -0.16742050
v 0.00000050 2.48540800 -0.16742050
v 0.00000050 2.48540800 -0.16742050
v 0.00000050 2.48540800 -0.16742050
v 0.00000050 2.48540800 -0.10068950
v 0.00000050 2.48540800 -0.10068950
v 0.00000050 2.48540800 -0.10068950
v 0.00000050 2.48540800 -0.10068950
v 0.00000050 2.52918400 -0.15805150
v 0.00000050 2.52918400 -0.15805150
v 0.00000050 2.52918400 -0.15805150
v 0.00000050 2.52918400 -0.11005750
v 0.00000050 2.52918400 -0.11005750
v 0.00000050 2.52918400 -0.11005750
v 0.00803350 2.48540800 -0.11737250
v 0.00803350 2.48540800 -0.11737250
v 0.00803350 2.48540800 -0.11737250
v 0.00803350 2.48540800 -0.11737250
v 0.00803350 2.48540800 -0.15073750
v 0.00803350 2.48540800 -0.15073750
v 0.00803350 2.48540800 -0.15073750
v 0.00803350 2.48540800 -0.15073750
v -0.00803250 2.48540800 -0.15073750
v -0.00803250 2.48540800 -0.15073750
v -0.00803250 2.48540800 -0.15073750
v -0.00803250 2.48540800 -0.15073750
v -0.00803250 2.48540800 -0.11737250
v -0.00803250 2.48540800 -0.11737250
v -0.00803250 2.48540800 -0.11737250
v -0.00803250 2.48540800 -0.11737250
v 0.00803350 2.52918400 -0.12205650
v 0.00803350 2.52918400 -0.12205650
v 0.00803350 2.52918400 -0.12205650
v 0.00803350 2.52918400 -0.14605350
v 0.00803350 2.52918400 -0.14605350
v 0.00803350 2.52918400 -0.14605350
v -0.00803250 2.52918400 -0.14605350
v -0.00803250 2.52918400 -0.14605350
v -0.00803250 2.52918400 -0.14605350
v -0.00803250 2.52918400 -0.12205650
v -0.00803250 2.52918400 -0.12205650
v -0.00803250 2.52918400 -0.12205650
v 0.00803350 2.49599700 -0.14448150
v 0.00803350 2.49599700 -0.14448150
v 0.00803350 2.49599700 -0.14448150
v 0.00803350 2.49050100 -0.13954350
v 0.00803350 2.49050100 -0.13954350
v 0.00803350 2.49050100 -0.13954350
v 0.00803350 2.49050100 -0.13954350
v 0.00803350 2.48680700 -0.14918050
v 0.00803350 2.49050100 -0.12856650
v 0.00803350 2.49050100 -0.12856650
v 0.00803350 2.49050100 -0.12856650
v 0.00803350 2.49599700 -0.12362750
v 0.00803350 2.49599700 -0.12362750
v 0.00803350 2.49599700 -0.12362750
v 0.00803350 2.49599700 -0.12362750
v 0.00803350 2.48680700 -0.11892950
v -0.00803250 2.49599700 -0.12362850
v -0.00803250 2.49599700 -0.12362850
v -0.00803250 2.49599700 -0.12362850
v -0.00803250 2.49050100 -0.12856650
v -0.00803250 2.49050100 -0.12856650
v -0.00803250 2.49050100 -0.12856650
v -0.00803250 2.49050100 -0.12856650
v -0.00803250 2.48680700 -0.11892950
v -0.00803250 2.49050100 -0.13954350
v -0.00803250 2.49050100 -0.13954350
v -0.00803250 2.49050100 -0.13954350
v -0.00803250 2.49599700 -0.14448150
v -0.00803250 2.49599700 -0.14448150
v -0.00803250 2.49599700 -0.14448150
v -0.00803250 2.49599700 -0.14448150
v -0.00803250 2.48680700 -0.14918050
v 0.00803350 2.52409000 -0.13594950
v 0.00803350 2.52409000 -0.13594950
v 0.00803350 2.52409000 -0.13594950
v 0.00803350 2.51859500 -0.14206350
v 0.00803350 2.51859500 -0.14206350
v 0.00803350 2.51859500 -0.14206350
v 0.00803350 2.51859500 -0.14206350
v 0.00803350 2.52820100 -0.14517050
v 0.00803350 2.51859500 -0.12604650
v 0.00803350 2.51859500 -0.12604650
v 0.00803350 2.51859500 -0.12604650
v 0.00803350 2.52409000 -0.13216050
v 0.00803350 2.52409000 -0.13216050
v 0.00803350 2.52409000 -0.13216050
v 0.00803350 2.52409000 -0.13216050
v 0.00803350 2.52820100 -0.12293950
v -0.00803250 2.52409000 -0.13216050
v -0.00803250 2.52409000 -0.13216050
v -0.00803250 2.52409000 -0.13216050
v -0.00803250 2.51859500 -0.12604650
v -0.00803250 2.51859500 -0.12604650
v -0.00803250 2.51859500 -0.12604650
v -0.00803250 2.51859500 -0.12604650
v -0.00803250 2.52820100 -0.12293950
v -0.00803250 2.51859500 -0.14206350
v -0.00803250 2.51859500 -0.14206350
v -0.00803250 2.51859500 -0.14206350
v -0.00803250 2.52409000 -0.13594950
v -0.00803250 2.52409000 -0.13594950
v -0.00803250 2.52409000 -0.13594950
v -0.00803250 2.52409000 -0.13594950
v -0.00803250 2.52820100 -0.14517050
v 0.00000050 2.19597900 -0.16742050
v 0.00000050 2.19597900 -0.16742050
v 0.00000050 2.19597900 -0.16742050
v 0.00000050 2.19597900 -0.16742050
v -0.00247950 2.25190900 -0.16742050
v -0.00247950 2.25190900 -0.16742050
v -0.00247950 2.25190900 -0.16742050
v -0.00247950 2.25190900 -0.16742050
v 0.00000050 2.30783900 -0.16742050
v 0.00000050 2.30783900 -0.16742050
v 0.00000050 2.30783900 -0.16742050
v 0.00000050 2.30783900 -0.16742050
v -0.00247950 2.36376800 -0.16742050
v -0.00247950 2.36376800 -0.16742050
v -0.00247950 2.36376800 -0.16742050
v -0.00247950 2.36376800 -0.16742050
v 0.00000050 2.41969800 -0.16742050
v 0.00000050 2.41969800 -0.16742050
v 0.00000050 2.41969800 -0.16742050
v 0.00000050 2.41969800 -0.16742050
v 0.02889550 2.41969800 -0.15073750
v 0.02889550 2.41969800 -0.15073750
v 0.02889550 2.41969800 -0.15073750
v 0.02889550 2.41969800 -0.15073750
v 0.02279850 2.36376900 -0.15073750
v 0.02279850 2.36376900 -0.15073750
v 0.02279850 2.36376900 -0.15073750
v 0.02279850 2.36376900 -0.15073750
v 0.02889550 2.30783900 -0.15073750
v 0.02889550 2.30783900 -0.15073750
v 0.02889550 2.30783900 -0.15073750
v 0.02889550 2.30783900 -0.15073750
v 0.02279850 2.25190900 -0.15073750
v 0.02279850 2.25190900 -0.15073750
v 0.02279850 2.25190900 -0.15073750
v 0.02279850 2.25190900 -0.15073750
v 0.02889550 2.19597900 -0.15073750
v 0.02889550 2.19597900 -0.15073750
v 0.02889550 2.19597900 -0.15073750
v 0.02889550 2.19597900 -0.15073750
v 0.02889550 2.41969800 -0.11737250
v 0.02889550 2.41969800 -0.11737250
v 0.02889550 2.41969800 -0.11737250
v 0.02889550 2.41969800 -0.11737250
v 0.02279850 2.36376900 -0.11737250
v 0.02279850 2.36376900 -0.11737250
v 0.02279850 2.36376900 -0.11737250
v 0.02279850 2.36376900 -0.11737250
v 0.02889550 2.30783900 -0.11737250
v 0.02889550 2.30783900 -0.11737250
v 0.02889550 2.30783900 -0.11737250
v 0.02889550 2.30783900 -0.11737250
v 0.02279850 2.25190900 -0.11737250
v 0.02279850 2.25190900 -0.11737250
v 0.02279850 2.25190900 -0.11737250
v 0.02279850 2.25190900 -0.11737250
v 0.02889550 2.19597900 -0.11737250
v 0.02889550 2.19597900 -0.11737250
v 0.02889550 2.19597900 -0.11737250
v 0.02889550 2.19597900 -0.11737250
v 0.00000050 2.41969800 -0.10068950
v 0.00000050 2.41969800 -0.10068950
v 0.00000050 2.41969800 -0.10068950
v 0.00000050 2.41969800 -0.10068950
v -0.00247950 2.36376900 -0.10068950
v -0.00247950 2.36376900 -0.10068950
v -0.00247950 2.36376900 -0.10068950
v -0.00247950 2.36376900 -0.10068950
v 0.00000050 2.30783900 -0.10068950
v 0.00000050 2.30783900 -0.10068950
v 0.00000050 2.30783900 -0.10068950
v 0.00000050 2.30783900 -0.10068950
v -0.00247950 2.25190900 -0.10068950
v -0.00247950 2.25190900 -0.10068950
v -0.00247950 2.25190900 -0.10068950
v -0.00247950 2.25190900 -0.10068950
v 0.00000050 2.19597900 -0.10068950
v 0.00000050 2.19597900 -0.10068950
v 0.00000050 2.19597900 -0.10068950
v 0.00000050 2.19597900 -0.10068950
v -0.02889450 2.41969800 -0.11737250
v -0.02889450 2.41969800 -0.11737250
v -0.02889450 2.41969800 -0.11737250
v -0.02889450 2.41969800 -0.11737250
v -0.02775750 2.36376900 -0.11737250
v -0.02775750 2.36376900 -0.11737250
v -0.02775750 2.36376900 -0.11737250
v -0.02775750 2.36376900 -0.11737250
v -0.02889450 2.30783900 -0.11737250
v -0.02889450 2.30783900 -0.11737250
v -0.02889450 2.30783900 -0.11737250
v -0.02889450 2.30783900 -0.11737250
v -0.02775750 2.25190900 -0.11737250
v -0.02775750 2.25190900 -0.11737250
v -0.02775750 2.25190900 -0.11737250
v -0.02775750 2.25190900 -0.11737250
v -0.02889450 2.19597900 -0.11737250
v -0.02889450 2.19597900 -0.11737250
v -0.02889450 2.19597900 -0.11737250
v -0.02889450 2.19597900 -0.11737250
v -0.02889450 2.41969800 -0.15073750
v -0.02889450 2.41969800 -0.15073750
v -0.02889450 2.41969800 -0.15073750
v -0.02889450 2.41969800 -0.15073750
v -0.02775750 2.36376900 -0.15073750
v -0.02775750 2.36376900 -0.15073750
v -0.02775750 2.36376900 -0.15073750
v -0.02775750 2.36376900 -0.15073750
v -0.02889450 2.30783900 -0.15073750
v -0.02889450 2.30783900 -0.15073750
v -0.02889450 2.30783900 -0.15073750
v -0.02889450 2.30783900 -0.15073750
v -0.02775750 2.25190900 -0.15073750
v -0.02775750 2.25190900 -0.15073750
v -0.02775750 2.25190900 -0.15073750
v -0.02775750 2.25190900 -0.15073750
v -0.02889450 2.19597900 -0.15073750
v -0.02889450 2.19597900 -0.15073750
v -0.02889450 2.19597900 -0.15073750
v -0.02889450 2.19597900 -0.15073750
v 0.00000050 0.36553400 -0.20456050
v 0.00000050 0.36553400 -0.20456050
v 0.00000050 0.36553400 -0.20456050
v 0.00000050 0.36553400 -0.20456050
v 0.00000050 0.52592700 -0.19040050
v 0.00000050 0.52592700 -0.19040050
v 0.00000050 0.52592700 -0.19040050
v 0.06105950 0.36553400 -0.16930750
v 0.06105950 0.36553400 -0.16930750
v 0.06105950 0.36553400 -0.16930750
v 0.06105950 0.36553400 -0.16930750
v 0.04879650 0.52592700 -0.16222750
v 0.04879650 0.52592700 -0.16222750
v 0.04879650 0.52592700 -0.16222750
v 0.06105950 0.36553400 -0.09880250
v 0.06105950 0.36553400 -0.09880250
v 0.06105950 0.36553400 -0.09880250
v 0.06105950 0.36553400 -0.09880250
v 0.04879650 0.52592700 -0.10588250
v 0.04879650 0.52592700 -0.10588250
v 0.04879650 0.52592700 -0.10588250
v 0.00000050 0.36553400 -0.06354950
v 0.00000050 0.36553400 -0.06354950
v 0.00000050 0.36553400 -0.06354950
v 0.00000050 0.36553400 -0.06354950
v 0.00000050 0.52592700 -0.07770950
v 0.00000050 0.52592700 -0.07770950
v 0.00000050 0.52592700 -0.07770950
v -0.06105850 0.36553400 -0.09880250
v -0.06105850 0.36553400 -0.09880250
v -0.06105850 0.36553400 -0.09880250
v -0.06105850 0.36553400 -0.09880250
v -0.04879550 0.52592700 -0.10588250
v -0.04879550 0.52592700 -0.10588250
v -0.04879550 0.52592700 -0.10588250
v -0.06105850 0.36553400 -0.16930750
v -0.06105850 0.36553400 -0.16930750
v -0.06105850 0.36553400 -0.16930750
v -0.06105850 0.36553400 -0.16930750
v -0.04879550 0.52592700 -0.16222750
v -0.04879550 0.52592700 -0.16222750
v -0.04879550 0.52592700 -0.16222750
v 0.00000050 0.36010800 -0.30110650
v 0.00000050 0.36010800 -0.30110650
v 0.00000050 0.36010800 -0.30110650
v 0.00000050 0.36010800 -0.30110650
v 0.14467150 0.36010800 -0.21758050
v 0.14467150 0.36010800 -0.21758050
v 0.14467150 0.36010800 -0.21758050
v 0.14467150 0.36010800 -0.21758050
v 0.14467150 0.36010800 -0.05052950
v 0.14467150 0.36010800 -0.05052950
v 0.14467150 0.36010800 -0.05052950
v 0.14467150 0.36010800 -0.05052950
v 0.00000050 0.36010800 0.03299650
v 0.00000050 0.36010800 0.03299650
v 0.00000050 0.36010800 0.03299650
v 0.00000050 0.36010800 0.03299650
v -0.14467050 0.36010800 -0.05052950
v -0.14467050 0.36010800 -0.05052950
v -0.14467050 0.36010800 -0.05052950
v -0.14467050 0.36010800 -0.05052950
v -0.14467050 0.36010800 -0.21758050
v -0.14467050 0.36010800 -0.21758050
v -0.14467050 0.36010800 -0.21758050
v -0.14467050 0.36010800 -0.21758050
v 0.00000050 0.28976500 -0.34307550
v 0.00000050 0.28976500 -0.34307550
v 0.00000050 0.28976500 -0.34307550
v 0.18101750 0.28976500 -0.23856550
v 0.18101750 0.28976500 -0.23856550
v 0.18101750 0.28976500 -0.23856550
v 0.18101750 0.28976500 -0.02954450
v 0.18101750 0.28976500 -0.02954450
v 0.18101750 0.28976500 -0.02954450
v 0.00000050 0.28976500 0.07496550
v 0.00000050 0.28976500 0.07496550
v 0.00000050 0.28976500 0.07496550
v -0.18101650 0.28976500 -0.02954450
v -0.18101650 0.28976500 -0.02954450
v -0.18101650 0.28976500 -0.02954450
v -0.18101650 0.28976500 -0.23856550
v -0.18101650 0.28976500 -0.23856550
v -0.18101650 0.28976500 -0.23856550
vt -0.00000000 0.50000000
vt 0.75000000 0.49000000
vt 1.00000000 0.50000000
vt 1.00000000 1.00000000
vt -0.00000000 1.00000000
vt -0.00000000 1.00000000
vt 1.00000000 1.00000000
vt 0.83333300 0.50000000
vt 0.95784600 0.37000000
vt 0.83333300 0.50000000
vt 0.83333300 1.00000000
vt 0.83333300 1.00000000
vt 0.83333300 1.00000000
vt 0.83333300 1.00000000
vt 0.66666700 0.50000000
vt 0.66666700 0.50000000
vt 0.95784600 0.13000000
vt 0.66666700 1.00000000
vt 0.66666700 1.00000000
vt 0.66666700 1.00000000
vt 0.66666700 1.00000000
vt 0.50000000 0.50000000
vt 0.75000000 0.01000000
vt 0.50000000 0.50000000
vt 0.50000000 1.00000000
vt 0.50000000 1.00000000
vt 0.50000000 1.00000000
vt 0.50000000 1.00000000
vt 0.33333300 0.50000000
vt 0.33333300 0.50000000
vt 0.54215400 0.13000000
vt 0.33333300 1.00000000
vt 0.33333300 1.00000000
vt 0.33333300 1.00000000
vt 0.33333300 1.00000000
vt 0.16666700 0.50000000
vt 0.54215400 0.37000000
vt 0.16666700 0.50000000
vt 0.16666700 1.00000000
vt 0.16666700 1.00000000
vt 0.16666700 1.00000000
vt 0.16666700 1.00000000
vt 1.00000000 1.00000000
vt 1.00000000 1.00000000
vt -0.00000000 1.00000000
vt -0.00000000 1.00000000
vt 0.50000000 1.00000000
vt 0.50000000 1.00000000
vt 0.50000000 1.00000000
vt 0.50000000 1.00000000
vt 0.25000000 0.49000000
vt -0.00000000 1.00000000
vt 1.00000000 1.00000000
vt 0.50000000 1.00000000
vt 0.50000000 1.00000000
vt 0.25000000 0.01000000
vt 0.66666700 1.00000000
vt 0.66666700 1.00000000
vt 0.66666700 1.00000000
vt 0.66666700 1.00000000
vt 0.83333300 1.00000000
vt 0.83333300 1.00000000
vt 0.83333300 1.00000000
vt 0.83333300 1.00000000
vt 0.16666700 1.00000000
vt 0.16666700 1.00000000
vt 0.16666700 1.00000000
vt 0.16666700 1.00000000
vt 0.33333300 1.00000000
vt 0.33333300 1.00000000
vt 0.33333300 1.00000000
vt 0.33333300 1.00000000
vt 0.66666700 1.00000000
vt 0.66666700 1.00000000
vt 0.45784600 0.13000000
vt 0.45784600 0.37000000
vt 0.83333300 1.00000000
vt 0.83333300 1.00000000
vt 0.04215400 0.37000000
vt 0.16666700 1.00000000
vt 0.16666700 1.00000000
vt 0.33333300 1.00000000
vt 0.04215400 0.13000000
vt 0.33333300 1.00000000
vt 0.80531900 1.00000000
vt 0.80531900 1.00000000
vt 0.80531900 1.00000000
vt 0.77807700 1.00000000
vt 0.77807700 1.00000000
vt 0.80624000 1.00000000
vt 0.77807700 1.00000000
vt 0.82592100 1.00000000
vt 0.72192300 1.00000000
vt 0.72192300 1.00000000
vt 0.72192300 1.00000000
vt 0.69665800 1.00000000
vt 0.69468100 1.00000000
vt 0.69468100 1.00000000
vt 0.69468100 1.00000000
vt 0.67407900 1.00000000
vt 0.30531900 1.00000000
vt 0.30531900 1.00000000
vt 0.30531900 1.00000000
vt 0.30624000 1.00000000
vt 0.27807700 1.00000000
vt 0.27807700 1.00000000
vt 0.27807700 1.00000000
vt 0.32592100 1.00000000
vt 0.22192300 1.00000000
vt 0.22192300 1.00000000
vt 0.22192300 1.00000000
vt 0.19468100 1.00000000
vt 0.19665800 1.00000000
vt 0.19468100 1.00000000
vt 0.19468100 1.00000000
vt 0.17407900 1.00000000
vt 0.76277500 1.00000000
vt 0.76277500 1.00000000
vt 0.76277500 1.00000000
vt 0.79951100 1.00000000
vt 0.80107800 1.00000000
vt 0.80107800 1.00000000
vt 0.80107800 1.00000000
vt 0.82691000 1.00000000
vt 0.69892200 1.00000000
vt 0.69892200 1.00000000
vt 0.69892200 1.00000000
vt 0.73722500 1.00000000
vt 0.69989300 1.00000000
vt 0.73722500 1.00000000
vt 0.73722500 1.00000000
vt 0.67309000 1.00000000
vt 0.26277500 1.00000000
vt 0.26277500 1.00000000
vt 0.26277500 1.00000000
vt 0.29951100 1.00000000
vt 0.30107800 1.00000000
vt 0.30107800 1.00000000
vt 0.30107800 1.00000000
vt 0.32691000 1.00000000
vt 0.19892200 1.00000000
vt 0.19892200 1.00000000
vt 0.19892200 1.00000000
vt 0.23722500 1.00000000
vt 0.23722500 1.00000000
vt 0.23722500 1.00000000
vt 0.19989300 1.00000000
vt 0.17309000 1.00000000
vt 1.00000000 0.58333300
vt -0.00000000 0.58333300
vt 1.00000000 0.58333300
vt -0.00000000 0.58333300
vt -0.00000000 0.66666700
vt -0.00000000 0.66666700
vt 1.00000000 0.66666700
vt 1.00000000 0.66666700
vt 1.00000000 0.75000000
vt 1.00000000 0.75000000
vt -0.00000000 0.75000000
vt -0.00000000 0.75000000
vt -0.00000000 0.83333300
vt -0.00000000 0.83333300
vt 1.00000000 0.83333300
vt 1.00000000 0.83333300
vt -0.00000000 0.91666700
vt 1.00000000 0.91666700
vt 1.00000000 0.91666700
vt -0.00000000 0.91666700
vt 0.83333300 0.91666700
vt 0.83333300 0.91666700
vt 0.83333300 0.91666700
vt 0.83333300 0.91666700
vt 0.83333300 0.83333300
vt 0.83333300 0.83333300
vt 0.83333300 0.83333300
vt 0.83333300 0.83333300
vt 0.83333300 0.75000000
vt 0.83333300 0.75000000
vt 0.83333300 0.75000000
vt 0.83333300 0.75000000
vt 0.83333300 0.66666700
vt 0.83333300 0.66666700
vt 0.83333300 0.66666700
vt 0.83333300 0.66666700
vt 0.83333300 0.58333300
vt 0.83333300 0.58333300
vt 0.83333300 0.58333300
vt 0.83333300 0.58333300
vt 0.66666700 0.91666700
vt 0.66666700 0.91666700
vt 0.66666700 0.91666700
vt 0.66666700 0.91666700
vt 0.66666700 0.83333300
vt 0.66666700 0.83333300
vt 0.66666700 0.83333300
vt 0.66666700 0.83333300
vt 0.66666700 0.75000000
vt 0.66666700 0.75000000
vt 0.66666700 0.75000000
vt 0.66666700 0.75000000
vt 0.66666700 0.66666700
vt 0.66666700 0.66666700
vt 0.66666700 0.66666700
vt 0.66666700 0.66666700
vt 0.66666700 0.58333300
vt 0.66666700 0.58333300
vt 0.66666700 0.58333300
vt 0.66666700 0.58333300
vt 0.50000000 0.91666700
vt 0.50000000 0.91666700
vt 0.50000000 0.91666700
vt 0.50000000 0.91666700
vt 0.50000000 0.83333300
vt 0.50000000 0.83333300
vt 0.50000000 0.83333300
vt 0.50000000 0.83333300
vt 0.50000000 0.75000000
vt 0.50000000 0.75000000
vt 0.50000000 0.75000000
vt 0.50000000 0.75000000
vt 0.50000000 0.66666700
vt 0.50000000 0.66666700
vt 0.50000000 0.66666700
vt 0.50000000 0.66666700
vt 0.50000000 0.58333300
vt 0.50000000 0.58333300
vt 0.50000000 0.58333300
vt 0.50000000 0.58333300
vt 0.33333300 0.91666700
vt 0.33333300 0.91666700
vt 0.33333300 0.91666700
vt 0.33333300 0.91666700
vt 0.33333300 0.83333300
vt 0.33333300 0.83333300
vt 0.33333300 0.83333300
vt 0.33333300 0.83333300
vt 0.33333300 0.75000000
vt 0.33333300 0.75000000
vt 0.33333300 0.75000000
vt 0.33333300 0.75000000
vt 0.33333300 0.66666700
vt 0.33333300 0.66666700
vt 0.33333300 0.66666700
vt 0.33333300 0.66666700
vt 0.33333300 0.58333300
vt 0.33333300 0.58333300
vt 0.33333300 0.58333300
vt 0.33333300 0.58333300
vt 0.16666700 0.91666700
vt 0.16666700 0.91666700
vt 0.16666700 0.91666700
vt 0.16666700 0.91666700
vt 0.16666700 0.83333300
vt 0.16666700 0.83333300
vt 0.16666700 0.83333300
vt 0.16666700 0.83333300
vt 0.16666700 0.75000000
vt 0.16666700 0.75000000
vt 0.16666700 0.75000000
vt 0.16666700 0.75000000
vt 0.16666700 0.66666700
vt 0.16666700 0.66666700
vt 0.16666700 0.66666700
vt 0.16666700 0.66666700
vt 0.16666700 0.58333300
vt 0.16666700 0.58333300
vt 0.16666700 0.58333300
vt 0.16666700 0.58333300
vt -0.00000000 0.50000000
vt 1.00000000 0.50000000
vt 1.00000000 0.50000000
vt -0.00000000 0.50000000
vt -0.00000000 1.00000000
vt 0.25000000 0.49000000
vt 1.00000000 1.00000000
vt 0.83333300 0.50000000
vt 0.83333300 0.50000000
vt 0.83333300 0.50000000
vt 0.83333300 0.50000000
vt 0.83333300 1.00000000
vt 0.45784600 0.37000000
vt 0.83333300 1.00000000
vt 0.66666700 0.50000000
vt 0.66666700 0.50000000
vt 0.66666700 0.50000000
vt 0.66666700 0.50000000
vt 0.66666700 1.00000000
vt 0.66666700 1.00000000
vt 0.45784600 0.13000000
vt 0.50000000 0.50000000
vt 0.50000000 0.50000000
vt 0.50000000 0.50000000
vt 0.50000000 0.50000000
vt 0.25000000 0.01000000
vt 0.50000000 1.00000000
vt 0.50000000 1.00000000
vt 0.33333300 0.50000000
vt 0.33333300 0.50000000
vt 0.33333300 0.50000000
vt 0.33333300 0.50000000
vt 0.33333300 1.00000000
vt 0.33333300 1.00000000
vt 0.04215400 0.13000000
vt 0.16666700 0.50000000
vt 0.16666700 0.50000000
vt 0.16666700 0.50000000
vt 0.16666700 0.50000000
vt 0.04215400 0.37000000
vt 0.16666700 1.00000000
vt 0.16666700 1.00000000
vt 1.00000000 0.50000000
vt 1.00000000 0.50000000
vt -0.00000000 0.50000000
vt -0.00000000 0.50000000
vt 0.83333300 0.50000000
vt 0.83333300 0.50000000
vt 0.83333300 0.50000000
vt 0.83333300 0.50000000
vt 0.66666700 0.50000000
vt 0.66666700 0.50000000
vt 0.66666700 0.50000000
vt 0.66666700 0.50000000
vt 0.50000000 0.50000000
vt 0.50000000 0.50000000
vt 0.50000000 0.50000000
vt 0.50000000 0.50000000
vt 0.33333300 0.50000000
vt 0.33333300 0.50000000
vt 0.33333300 0.50000000
vt 0.33333300 0.50000000
vt 0.16666700 0.50000000
vt 0.16666700 0.50000000
vt 0.16666700 0.50000000
vt 0.16666700 0.50000000
vt 1.00000000 0.50000000
vt -0.00000000 0.50000000
vt 0.75000000 0.49000000
vt 0.95784600 0.37000000
vt 0.83333300 0.50000000
vt 0.83333300 0.50000000
vt 0.66666700 0.50000000
vt 0.66666700 0.50000000
vt 0.95784600 0.13000000
vt 0.50000000 0.50000000
vt 0.75000000 0.01000000
vt 0.50000000 0.50000000
vt 0.33333300 0.50000000
vt 0.33333300 0.50000000
vt 0.54215400 0.13000000
vt 0.54215400 0.37000000
vt 0.16666700 0.50000000
vt 0.16666700 0.50000000
vn -0.50001043 0.00000000 -0.86601938
vn 0.00000000 -1.00000000 0.00000000
vn 0.50001043 0.00000000 -0.86601938
vn 0.50001043 0.00000000 -0.86601938
vn -0.75642755 0.33598378 -0.56118826
vn -0.50001043 0.00000000 -0.86601938
vn 0.50001043 0.00000000 -0.86601938
vn 1.00000000 0.00000000 0.00000000
vn 0.00000000 -1.00000000 0.00000000
vn 0.50001043 0.00000000 -0.86601938
vn 0.52716261 0.67342026 -0.51827090
vn 1.00000000 0.00000000 0.00000000
vn 0.50001043 0.00000000 -0.86601938
vn 0.42446724 0.90544330 0.00000000
vn 0.50001043 0.00000000 0.86601938
vn 1.00000000 0.00000000 0.00000000
vn 0.00000000 -1.00000000 0.00000000
vn 0.34199135 0.72951161 0.59232992
vn 1.00000000 0.00000000 0.00000000
vn 0.42446724 0.90544330 0.00000000
vn 0.50001043 0.00000000 0.86601938
vn -0.50001043 0.00000000 0.86601938
vn 0.00000000 -1.00000000 0.00000000
vn 0.50001043 0.00000000 0.86601938
vn -0.50001043 0.00000000 0.86601938
vn 0.50001043 0.00000000 0.86601938
vn -0.50001043 0.00000000 0.86601938
vn 0.75642755 0.33598378 0.56118826
vn -0.50001043 0.00000000 0.86601938
vn -1.00000000 0.00000000 0.00000000
vn 0.00000000 -1.00000000 0.00000000
vn -0.50001043 0.00000000 0.86601938
vn -0.52716261 0.67342026 0.51827090
vn -0.42446724 0.90544330 0.00000000
vn -1.00000000 0.00000000 0.00000000
vn -0.50001043 0.00000000 -0.86601938
vn 0.00000000 -1.00000000 0.00000000
vn -1.00000000 0.00000000 0.00000000
vn -0.50001043 0.00000000 -0.86601938
vn -0.42446724 0.90544330 0.00000000
vn -0.34199135 0.72951161 -0.59232992
vn -1.00000000 0.00000000 0.00000000
vn 0.55451952 0.35216324 -0.75398220
vn 0.89713344 0.09245232 -0.43197704
vn -0.88605919 0.06166413 -0.45945254
vn -0.90099229 0.00000000 -0.43383510
vn 0.90099229 0.00000000 0.43383510
vn -0.55451952 0.35216324 0.75398220
vn 0.88606239 0.06166076 0.45944683
vn -0.89713426 0.09244254 0.43197743
vn 0.00000000 1.00000000 0.00000000
vn -0.82512265 0.11823460 -0.55244293
vn 0.84712913 0.06738391 -0.52709738
vn -0.84714510 0.06737898 0.52707234
vn 0.82514583 0.11821545 0.55241241
vn 0.00000000 1.00000000 0.00000000
vn 1.00000000 0.00000000 0.00000000
vn 0.90002312 0.04637011 0.43336844
vn 0.42446724 0.90544330 0.00000000
vn 0.50429356 0.61676908 0.60438721
vn 0.42446724 0.90544330 0.00000000
vn 0.41587003 0.88710436 -0.20024480
vn 0.88543635 0.08617495 -0.45670160
vn 1.00000000 0.00000000 0.00000000
vn -1.00000000 0.00000000 0.00000000
vn -0.90002312 0.04637011 -0.43336844
vn -0.42446724 0.90544330 0.00000000
vn -0.50429356 0.61676908 -0.60438721
vn -0.42446724 0.90544330 0.00000000
vn -1.00000000 0.00000000 0.00000000
vn -0.41587003 0.88710436 0.20024480
vn -0.88543975 0.08616596 0.45669671
vn 1.00000000 0.00000000 0.00000000
vn 0.84643794 0.09996213 0.52302045
vn 0.00000000 1.00000000 0.00000000
vn 0.00000000 1.00000000 0.00000000
vn 0.82948280 0.05942335 -0.55536217
vn 1.00000000 0.00000000 0.00000000
vn 0.00000000 1.00000000 0.00000000
vn -0.84642172 0.09997657 -0.52304394
vn -1.00000000 0.00000000 0.00000000
vn -0.82950437 0.05941994 0.55533033
vn 0.00000000 1.00000000 0.00000000
vn -1.00000000 0.00000000 0.00000000
vn 0.00000000 0.66833637 0.74385919
vn 0.00000000 -0.10639330 0.99432413
vn 1.00000000 0.00000000 0.00000000
vn 0.00000000 1.00000000 0.00000000
vn 1.00000000 0.00000000 0.00000000
vn 1.00000000 0.00000000 0.00000000
vn 0.00000000 0.66833637 0.74385919
vn 1.00000000 0.00000000 0.00000000
vn 1.00000000 0.00000000 0.00000000
vn 0.00003359 0.66839070 -0.74381037
vn 0.00000000 1.00000000 0.00000000
vn 1.00000000 0.00000000 0.00000000
vn 0.00006189 -0.10643680 -0.99431947
vn 1.00000000 0.00000000 0.00000000
vn 0.00004630 0.66841125 -0.74379191
vn 1.00000000 0.00000000 0.00000000
vn -1.00000000 0.00000000 0.00000000
vn 0.00003764 -0.10641976 -0.99432129
vn 0.00001271 0.66835692 -0.74384073
vn -1.00000000 0.00000000 0.00000000
vn -1.00000000 0.00000000 0.00000000
vn 0.00000000 0.66833637 -0.74385919
vn 0.00000000 1.00000000 0.00000000
vn -1.00000000 0.00000000 0.00000000
vn 0.00000000 0.66833637 0.74385919
vn -1.00000000 0.00000000 0.00000000
vn 0.00000000 1.00000000 0.00000000
vn -1.00000000 0.00000000 0.00000000
vn -1.00000000 0.00000000 0.00000000
vn 0.00000000 -0.10639330 0.99432413
vn 0.00000000 0.66833637 0.74385919
vn -1.00000000 0.00000000 0.00000000
vn 0.00000000 -0.74375368 0.66845379
vn 0.00000000 -1.00000000 0.00000000
vn 1.00000000 0.00000000 0.00000000
vn 1.00000000 0.00000000 0.00000000
vn 0.00000000 -0.74375368 0.66845379
vn 0.00000000 -0.10639330 0.99432413
vn 1.00000000 0.00000000 0.00000000
vn 1.00000000 0.00000000 0.00000000
vn 1.00000000 0.00000000 0.00000000
vn 0.00000000 -0.74375368 -0.66845379
vn 0.00002424 -0.10641034 -0.99432230
vn 0.00000000 -1.00000000 0.00000000
vn 1.00000000 0.00000000 0.00000000
vn 0.00000000 -0.74375368 -0.66845379
vn 1.00000000 0.00000000 0.00000000
vn 1.00000000 0.00000000 0.00000000
vn 0.00000000 -0.74375368 -0.66845379
vn -1.00000000 0.00000000 0.00000000
vn 0.00000000 -1.00000000 0.00000000
vn -1.00000000 0.00000000 0.00000000
vn 0.00000000 -0.10639330 -0.99432413
vn 0.00000000 -0.74375368 -0.66845379
vn -1.00000000 0.00000000 0.00000000
vn -1.00000000 0.00000000 0.00000000
vn 0.00000000 -0.74375368 0.66845379
vn -1.00000000 0.00000000 0.00000000
vn 0.00000000 -0.10639330 0.99432413
vn -1.00000000 0.00000000 0.00000000
vn 0.00000000 -0.74375368 0.66845379
vn 0.00000000 -1.00000000 0.00000000
vn -1.00000000 0.00000000 0.00000000
vn -1.00000000 0.00000000 0.00000000
vn 0.51560869 0.04505234 -0.85563892
vn -0.50001043 0.00000000 -0.86601938
vn 0.50001043 0.00000000 -0.86601938
vn -0.49988758 -0.02216559 -0.86580661
vn -0.55066694 0.02441720 -0.83436786
vn -0.53375716 -0.00015340 -0.84563779
vn 0.53298150 -0.04698989 -0.84482109
vn 0.55066694 0.02441720 -0.83436786
vn 0.51560848 0.04505246 -0.85563904
vn 0.49988758 -0.02216559 -0.86580661
vn -0.51636007 0.00082751 -0.85637118
vn -0.49988758 -0.02216598 -0.86580661
vn -0.55066627 0.02441717 -0.83436830
vn -0.53375706 -0.00015348 -0.84563786
vn 0.53298221 -0.04699043 -0.84482061
vn 0.55066626 0.02441761 -0.83436829
vn -0.50001043 0.00000000 -0.86601938
vn 0.49988758 -0.02216559 -0.86580661
vn 0.50001043 0.00000000 -0.86601938
vn -0.51636011 0.00082755 -0.85637115
vn 1.00000000 0.00000000 0.00000000
vn 0.50001043 0.00000000 -0.86601938
vn 0.51614332 -0.03426441 -0.85581658
vn 0.99411050 -0.10837118 0.00000000
vn 0.54984241 -0.05994009 -0.83311494
vn 0.99411071 0.10836927 0.00000000
vn 0.99411050 -0.10837118 0.00000000
vn 0.53365676 0.03452112 -0.84499630
vn 0.99411071 0.10836927 0.00000000
vn 0.99411071 -0.10836927 0.00000000
vn 0.51614282 -0.03426404 -0.85581690
vn 0.49926932 0.05442598 -0.86473578
vn 0.99411071 -0.10836927 0.00000000
vn 0.53365756 0.03452065 -0.84499582
vn 0.54984080 -0.05993884 -0.83311609
vn 0.99411071 0.10836927 0.00000000
vn 0.49926932 0.05442598 -0.86473578
vn 1.00000000 0.00000000 0.00000000
vn 0.50001043 0.00000000 -0.86601938
vn 0.99411071 0.10836927 0.00000000
vn 0.99411050 -0.10837118 0.00000000
vn 0.49926929 -0.05442695 0.86473573
vn 0.50001043 0.00000000 0.86601938
vn 1.00000000 0.00000000 0.00000000
vn 0.99411071 0.10836927 0.00000000
vn 0.99411050 -0.10837118 0.00000000
vn 0.54984080 0.05993884 0.83311609
vn 0.53365730 -0.03452142 0.84499595
vn 0.51614282 0.03426404 0.85581690
vn 0.99411071 0.10836927 0.00000000
vn 0.99411071 -0.10836927 0.00000000
vn 0.49926932 -0.05442598 0.86473578
vn 0.99411071 0.10836927 0.00000000
vn 0.53365756 -0.03452065 0.84499582
vn 0.54984080 0.05993884 0.83311609
vn 0.99411071 -0.10836927 0.00000000
vn 0.51614282 0.03426404 0.85581690
vn 0.99411071 0.10836927 0.00000000
vn 1.00000000 0.00000000 0.00000000
vn 0.50001043 0.00000000 0.86601938
vn 0.50001043 0.00000000 0.86601938
vn -0.50001043 0.00000000 0.86601938
vn 0.51560892 -0.04505300 0.85563875
vn -0.49988758 0.02216598 0.86580661
vn -0.55066694 -0.02441720 0.83436786
vn -0.53375691 0.00015357 0.84563795
vn 0.53298150 0.04698989 0.84482109
vn 0.55066694 -0.02441764 0.83436785
vn 0.49988758 0.02216559 0.86580661
vn -0.51636007 -0.00082751 0.85637118
vn 0.51560869 -0.04505234 0.85563892
vn -0.49988758 0.02216559 0.86580661
vn 0.53298150 0.04698989 0.84482109
vn 0.55066694 -0.02441720 0.83436786
vn -0.55066694 -0.02441720 0.83436786
vn -0.53375716 0.00015340 0.84563779
vn 0.49988758 0.02216559 0.86580661
vn -0.51636007 -0.00082751 0.85637118
vn -0.50001043 0.00000000 0.86601938
vn 0.50001043 0.00000000 0.86601938
vn -0.99979342 -0.02032515 0.00000000
vn -0.50001043 0.00000000 0.86601938
vn -1.00000000 0.00000000 0.00000000
vn -0.51627686 0.01160256 0.85634315
vn -0.55079664 -0.01119734 0.83456437
vn -0.99979343 0.02032478 0.00000000
vn -0.53365135 -0.01261891 0.84561043
vn -0.99979342 -0.02032515 0.00000000
vn -0.51627662 0.01160251 0.85634329
vn -0.49998460 0.01016418 0.86597465
vn -0.99979343 -0.02032478 0.00000000
vn -0.99979343 0.02032478 0.00000000
vn -0.55079664 -0.01119714 0.83456437
vn -0.99979343 -0.02032478 0.00000000
vn -0.99979343 0.02032478 0.00000000
vn -0.53365135 -0.01261891 0.84561043
vn -0.50001043 0.00000000 0.86601938
vn -1.00000000 0.00000000 0.00000000
vn -0.49998460 0.01016418 0.86597465
vn -0.99979343 0.02032478 0.00000000
vn -0.99979342 -0.02032515 0.00000000
vn -0.49998460 -0.01016436 -0.86597465
vn -0.50001043 0.00000000 -0.86601938
vn -1.00000000 0.00000000 0.00000000
vn -0.55079633 0.01119713 -0.83456457
vn -0.53365101 0.01261890 -0.84561064
vn -0.99979343 0.02032478 0.00000000
vn -0.99979342 -0.02032515 0.00000000
vn -0.49998460 -0.01016418 -0.86597465
vn -0.99979343 0.02032478 0.00000000
vn -0.99979343 -0.02032478 0.00000000
vn -0.51627677 -0.01160262 -0.85634320
vn -0.53365135 0.01261891 -0.84561043
vn -0.55079664 0.01119714 -0.83456437
vn -0.99979343 0.02032478 0.00000000
vn -0.99979343 -0.02032478 0.00000000
vn -0.50001043 0.00000000 -0.86601938
vn -1.00000000 0.00000000 0.00000000
vn -0.51627662 -0.01160251 -0.85634329
vn -0.99979343 0.02032478 0.00000000
vn -0.03238018 0.99790090 -0.05608322
vn 0.49855151 0.07623332 -0.86350152
vn 0.03237974 0.99790092 -0.05608302
vn -0.49855107 0.07623267 -0.86350183
vn -0.49855263 0.07623338 -0.86350087
vn 0.00000000 1.00000000 0.00000000
vn 0.49855321 0.07623256 -0.86350060
vn 0.99709000 0.07623347 0.00000000
vn 0.03237979 0.99790095 -0.05608253
vn 0.06475877 0.99790095 0.00000000
vn 0.49855104 0.07623353 -0.86350177
vn 0.49855265 0.07623281 -0.86350091
vn 0.00000000 1.00000000 0.00000000
vn 0.99709000 0.07623347 0.00000000
vn 0.99709000 0.07623347 0.00000000
vn 0.03237974 0.99790092 0.05608301
vn 0.06475877 0.99790095 0.00000000
vn 0.49855153 0.07623288 0.86350155
vn 0.49855317 0.07623363 0.86350053
vn 0.99709000 0.07623347 0.00000000
vn 0.00000000 1.00000000 0.00000000
vn -0.49855151 0.07623332 0.86350152
vn 0.49855107 0.07623267 0.86350183
vn -0.03237974 0.99790092 0.05608302
vn 0.03238018 0.99790090 0.05608322
vn 0.00000000 1.00000000 0.00000000
vn -0.49855321 0.07623256 0.86350060
vn 0.49855263 0.07623338 0.86350087
vn -0.06475877 0.99790095 0.00000000
vn -0.49855104 0.07623353 0.86350177
vn -0.99709000 0.07623347 0.00000000
vn -0.03237979 0.99790095 0.05608253
vn -0.49855265 0.07623281 0.86350091
vn -0.99709000 0.07623347 0.00000000
vn 0.00000000 1.00000000 0.00000000
vn -0.99709000 0.07623347 0.00000000
vn -0.03237974 0.99790092 -0.05608301
vn -0.49855153 0.07623288 -0.86350155
vn -0.06475877 0.99790095 0.00000000
vn 0.00000000 1.00000000 0.00000000
vn -0.99709000 0.07623347 0.00000000
vn -0.49855317 0.07623363 -0.86350053
vn 0.03237972 0.99790091 -0.05608322
vn 0.44420631 0.45904423 -0.76938881
vn -0.44420761 0.45904317 -0.76938869
vn -0.03237982 0.99790092 -0.05608305
vn 0.44420669 0.45904674 -0.76938710
vn 0.03237975 0.99790093 -0.05608293
vn 0.88841500 0.45904115 0.00000000
vn 0.06475877 0.99790095 0.00000000
vn 0.06475877 0.99790095 0.00000000
vn 0.44420594 0.45904568 0.76938816
vn 0.03237955 0.99790093 0.05608293
vn 0.88841500 0.45904115 0.00000000
vn -0.44420631 0.45904423 0.76938881
vn 0.44420761 0.45904317 0.76938869
vn 0.03237982 0.99790092 0.05608305
vn -0.03237972 0.99790091 0.05608322
vn -0.88841500 0.45904115 0.00000000
vn -0.03237975 0.99790093 0.05608293
vn -0.06475877 0.99790095 0.00000000
vn -0.44420669 0.45904674 0.76938710
vn -0.44420594 0.45904568 -0.76938816
vn -0.06475877 0.99790095 0.00000000
vn -0.03237955 0.99790093 -0.05608293
vn -0.88841500 0.45904115 0.00000000
vn 0.44420621 0.45904353 -0.76938929
vn -0.44420696 0.45904415 -0.76938849
vn 0.00000000 -1.00000000 0.00000000
vn 0.00000000 -1.00000000 0.00000000
vn 0.88841500 0.45904115 0.00000000
vn 0.44420655 0.45904576 -0.76938776
vn 0.44420547 0.45904638 0.76938802
vn 0.88841500 0.45904115 0.00000000
vn 0.00000000 -1.00000000 0.00000000
vn -0.44420621 0.45904353 0.76938929
vn 0.00000000 -1.00000000 0.00000000
vn 0.44420696 0.45904415 0.76938849
vn -0.88841500 0.45904115 0.00000000
vn -0.44420655 0.45904576 0.76938776
vn 0.00000000 -1.00000000 0.00000000
vn 0.00000000 -1.00000000 0.00000000
vn -0.44420547 0.45904638 -0.76938802
vn -0.88841500 0.45904115 0.00000000
f 227/227/227 67/67/67 73/73/73
f 73/73/73 230/230/230 227/227/227
f 229/229/229 72/72/72 79/79/79
f 79/79/79 252/252/252 229/229/229
f 251/251/251 81/81/81 86/86/86
f 86/86/86 269/269/269 251/251/251
f 270/270/270 85/85/85 92/92/92
f 92/92/92 290/290/290 270/270/270
f 100/100/100 94/94/94 129/129/129
f 129/129/129 127/127/127 100/100/100
f 291/291/291 95/95/95 102/102/102
f 102/102/102 312/312/312 291/291/291
f 311/311/311 99/99/99 66/66/66
f 66/66/66 225/225/225 311/311/311
f 62/62/62 69/69/69 77/77/77
f 62/62/62 77/77/77 83/83/83
f 62/62/62 83/83/83 91/91/91
f 62/62/62 91/91/91 97/97/97
f 105/105/105 126/126/126 140/140/140
f 140/140/140 112/112/112 105/105/105
f 71/71/71 64/64/64 103/103/103
f 103/103/103 122/122/122 71/71/71
f 88/88/88 78/78/78 120/120/120
f 120/120/120 107/107/107 88/88/88
f 65/65/65 101/101/101 128/128/128
f 128/128/128 106/106/106 65/65/65
f 93/93/93 87/87/87 108/108/108
f 108/108/108 131/131/131 93/93/93
f 80/80/80 74/74/74 121/121/121
f 121/121/121 119/119/119 80/80/80
f 136/136/136 111/111/111 139/139/139
f 136/136/136 139/139/139 143/143/143
f 136/136/136 143/143/143 116/116/116
f 136/136/136 116/116/116 135/135/135
f 132/132/132 110/110/110 114/114/114
f 114/114/114 142/142/142 132/132/132
f 162/162/162 197/197/197 187/187/187
f 187/187/187 157/157/157 162/162/162
f 109/109/109 118/118/118 134/134/134
f 134/134/134 115/115/115 109/109/109
f 123/123/123 104/104/104 113/113/113
f 113/113/113 137/137/137 123/123/123
f 203/203/203 174/174/174 146/146/146
f 146/146/146 182/182/182 203/203/203
f 200/200/200 199/199/199 161/161/161
f 200/200/200 161/161/161 168/168/168
f 200/200/200 168/168/168 130/130/130
f 200/200/200 130/130/130 144/144/144
f 208/208/208 204/204/204 194/194/194
f 208/208/208 194/194/194 200/200/200
f 208/208/208 200/200/200 144/144/144
f 208/208/208 144/144/144 141/141/141
f 188/188/188 195/195/195 206/206/206
f 206/206/206 178/178/178 188/188/188
f 176/176/176 172/172/172 202/202/202
f 176/176/176 202/202/202 208/208/208
f 176/176/176 208/208/208 141/141/141
f 176/176/176 141/141/141 125/125/125
f 155/155/155 148/148/148 171/171/171
f 171/171/171 167/167/167 155/155/155
f 168/168/168 165/165/165 170/170/170
f 168/168/168 170/170/170 176/176/176
f 168/168/168 176/176/176 125/125/125
f 168/168/168 125/125/125 130/130/130
f 184/184/184 183/183/183 147/147/147
f 184/184/184 147/147/147 152/152/152
f 184/184/184 152/152/152 124/124/124
f 184/184/184 124/124/124 138/138/138
f 192/192/192 191/191/191 179/179/179
f 192/192/192 179/179/179 184/184/184
f 192/192/192 184/184/184 138/138/138
f 192/192/192 138/138/138 133/133/133
f 160/160/160 158/158/158 185/185/185
f 160/160/160 185/185/185 192/192/192
f 160/160/160 192/192/192 133/133/133
f 160/160/160 133/133/133 117/117/117
f 147/147/147 150/150/150 152/152/152
f 153/153/153 156/156/156 160/160/160
f 161/161/161 164/164/164 168/168/168
f 170/170/170 173/173/173 176/176/176
f 179/179/179 180/180/180 184/184/184
f 185/185/185 189/189/189 192/192/192
f 194/194/194 196/196/196 200/200/200
f 202/202/202 207/207/207 208/208/208
f 154/154/154 166/166/166 163/163/163
f 163/163/163 159/159/159 154/154/154
f 145/145/145 175/175/175 169/169/169
f 169/169/169 151/151/151 145/145/145
f 201/201/201 181/181/181 177/177/177
f 177/177/177 205/205/205 201/201/201
f 186/186/186 198/198/198 193/193/193
f 193/193/193 190/190/190 186/186/186
f 152/152/152 149/149/149 153/153/153
f 152/152/152 153/153/153 160/160/160
f 152/152/152 160/160/160 117/117/117
f 152/152/152 117/117/117 124/124/124
f 96/96/96 325/325/325 210/210/210
f 210/210/210 61/61/61 96/96/96
f 327/327/327 322/322/322 214/214/214
f 214/214/214 212/212/212 327/327/327
f 321/321/321 317/317/317 219/219/219
f 219/219/219 213/213/213 321/321/321
f 320/320/320 313/313/313 222/222/222
f 222/222/222 220/220/220 320/320/320
f 314/314/314 310/310/310 228/228/228
f 228/228/228 221/221/221 314/314/314
f 90/90/90 306/306/306 326/326/326
f 326/326/326 98/98/98 90/90/90
f 308/308/308 303/303/303 323/323/323
f 323/323/323 328/328/328 308/308/308
f 302/302/302 299/299/299 319/319/319
f 319/319/319 324/324/324 302/302/302
f 300/300/300 294/294/294 315/315/315
f 315/315/315 318/318/318 300/300/300
f 296/296/296 289/289/289 309/309/309
f 309/309/309 316/316/316 296/296/296
f 82/82/82 287/287/287 305/305/305
f 305/305/305 89/89/89 82/82/82
f 286/286/286 283/283/283 304/304/304
f 304/304/304 307/307/307 286/286/286
f 284/284/284 280/280/280 297/297/297
f 297/297/297 301/301/301 284/284/284
f 278/278/278 273/273/273 295/295/295
f 295/295/295 298/298/298 278/278/278
f 274/274/274 272/272/272 292/292/292
f 292/292/292 293/293/293 274/274/274
f 75/75/75 268/268/268 288/288/288
f 288/288/288 84/84/84 75/75/75
f 265/265/265 263/263/263 281/281/281
f 281/281/281 285/285/285 265/265/265
f 262/262/262 260/260/260 279/279/279
f 279/279/279 282/282/282 262/262/262
f 257/257/257 255/255/255 275/275/275
f 275/275/275 277/277/277 257/257/257
f 256/256/256 250/250/250 271/271/271
f 271/271/271 276/276/276 256/256/256
f 68/68/68 246/246/246 267/267/267
f 267/267/267 76/76/76 68/68/68
f 248/248/248 244/244/244 261/261/261
f 261/261/261 266/266/266 248/248/248
f 241/241/241 238/238/238 259/259/259
f 259/259/259 264/264/264 241/241/241
f 237/237/237 234/234/234 253/253/253
f 253/253/253 258/258/258 237/237/237
f 235/235/235 232/232/232 249/249/249
f 249/249/249 254/254/254 235/235/235
f 63/63/63 211/211/211 247/247/247
f 247/247/247 70/70/70 63/63/63
f 209/209/209 216/216/216 242/242/242
f 242/242/242 245/245/245 209/209/209
f 215/215/215 218/218/218 239/239/239
f 239/239/239 243/243/243 215/215/215
f 217/217/217 224/224/224 236/236/236
f 236/236/236 240/240/240 217/217/217
f 223/223/223 226/226/226 231/231/231
f 231/231/231 233/233/233 223/223/223
f 330/330/330 335/335/335 340/340/340
f 340/340/340 339/339/339 330/330/330
f 336/336/336 342/342/342 348/348/348
f 348/348/348 343/343/343 336/336/336
f 346/346/346 347/347/347 356/356/356
f 356/356/356 351/351/351 346/346/346
f 350/350/350 355/355/355 361/361/361
f 361/361/361 358/358/358 350/350/350
f 341/341/341 334/334/334 368/368/368
f 341/341/341 368/368/368 363/363/363
f 341/341/341 363/363/363 354/354/354
f 341/341/341 354/354/354 349/349/349
f 359/359/359 362/362/362 369/369/369
f 369/369/369 364/364/364 359/359/359
f 366/366/366 370/370/370 333/333/333
f 333/333/333 332/332/332 366/366/366
f 344/344/344 353/353/353 385/385/385
f 385/385/385 381/381/381 344/344/344
f 331/331/331 337/337/337 376/376/376
f 376/376/376 371/371/371 331/331/331
f 352/352/352 360/360/360 388/388/388
f 388/388/388 386/386/386 352/352/352
f 357/357/357 367/367/367 392/392/392
f 392/392/392 389/389/389 357/357/357
f 380/380/380 384/384/384 406/406/406
f 406/406/406 401/401/401 380/380/380
f 391/391/391 373/373/373 396/396/396
f 396/396/396 411/411/411 391/391/391
f 383/383/383 390/390/390 408/408/408
f 408/408/408 404/404/404 383/383/383
f 377/377/377 382/382/382 402/402/402
f 402/402/402 399/399/399 377/377/377
f 387/387/387 394/394/394 412/412/412
f 412/412/412 407/407/407 387/387/387
f 372/372/372 375/375/375 400/400/400
f 400/400/400 395/395/395 372/372/372
f 338/338/338 345/345/345 379/379/379
f 379/379/379 378/378/378 338/338/338
f 365/365/365 329/329/329 374/374/374
f 374/374/374 393/393/393 365/365/365
f 405/405/405 409/409/409 410/410/410
f 405/405/405 410/410/410 397/397/397
f 405/405/405 397/397/397 398/398/398
f 405/405/405 398/398/398 403/403/403
o Bucket_Cube_2
usemtl Handle
v 0.00000050 0.41820400 -0.16109150
v 0.00000050 0.41820400 -0.16109150
v 0.00000050 0.41820400 -0.16109150
v 0.00000050 2.16112500 -0.16109150
v 0.00000050 2.16112500 -0.16109150
v 0.00000050 2.16112500 -0.16109150
v 0.02341450 0.41820400 -0.14757350
v 0.02341450 0.41820400 -0.14757350
v 0.02341450 0.41820400 -0.14757350
v 0.02341450 2.16112500 -0.14757350
v 0.02341450 2.16112500 -0.14757350
v 0.02341450 2.16112500 -0.14757350
v 0.02341450 0.41820400 -0.12053650
v 0.02341450 0.41820400 -0.12053650
v 0.02341450 0.41820400 -0.12053650
v 0.02341450 2.16112500 -0.12053650
v 0.02341450 2.16112500 -0.12053650
v 0.02341450 2.16112500 -0.12053650
v 0.00000050 0.41820400 -0.10701850
v 0.00000050 0.41820400 -0.10701850
v 0.00000050 0.41820400 -0.10701850
v 0.00000050 2.16112500 -0.10701850
v 0.00000050 2.16112500 -0.10701850
v 0.00000050 2.16112500 -0.10701850
v -0.02341350 0.41820400 -0.12053650
v -0.02341350 0.41820400 -0.12053650
v -0.02341350 0.41820400 -0.12053650
v -0.02341350 2.16112500 -0.12053650
v -0.02341350 2.16112500 -0.12053650
v -0.02341350 2.16112500 -0.12053650
v -0.02341350 0.41820400 -0.14757350
v -0.02341350 0.41820400 -0.14757350
v -0.02341350 0.41820400 -0.14757350
v -0.02341350 2.16112500 -0.14757350
v -0.02341350 2.16112500 -0.14757350
v -0.02341350 2.16112500 -0.14757350
vt 1.00000000 0.50000000
vt -0.00000000 0.50000000
vt 0.75000000 0.49000000
vt 1.00000000 1.00000000
vt -0.00000000 1.00000000
vt 0.25000000 0.49000000
vt 0.83333300 0.50000000
vt 0.83333300 0.50000000
vt 0.95784600 0.37000000
vt 0.83333300 1.00000000
vt 0.45784600 0.37000000
vt 0.83333300 1.00000000
vt 0.66666700 0.50000000
vt 0.66666700 0.50000000
vt 0.95784600 0.13000000
vt 0.66666700 1.00000000
vt 0.45784600 0.13000000
vt 0.66666700 1.00000000
vt 0.50000000 0.50000000
vt 0.50000000 0.50000000
vt 0.75000000 0.01000000
vt 0.25000000 0.01000000
vt 0.50000000 1.00000000
vt 0.50000000 1.00000000
vt 0.33333300 0.50000000
vt 0.54215400 0.13000000
vt 0.33333300 0.50000000
vt 0.33333300 1.00000000
vt 0.33333300 1.00000000
vt 0.04215400 0.13000000
vt 0.16666700 0.50000000
vt 0.16666700 0.50000000
vt 0.54215400 0.37000000
vt 0.16666700 1.00000000
vt 0.04215400 0.37000000
vt 0.16666700 1.00000000
vn 0.49999780 0.00000000 -0.86602667
vn -0.49999780 0.00000000 -0.86602667
vn 0.00000000 -1.00000000 0.00000000
vn 0.49999780 0.00000000 -0.86602667
vn -0.49999780 0.00000000 -0.86602667
vn 0.00000000 1.00000000 0.00000000
vn 0.49999780 0.00000000 -0.86602667
vn 1.00000000 0.00000000 0.00000000
vn 0.00000000 -1.00000000 0.00000000
vn 0.49999780 0.00000000 -0.86602667
vn 0.00000000 1.00000000 0.00000000
vn 1.00000000 0.00000000 0.00000000
vn 1.00000000 0.00000000 0.00000000
vn 0.49999780 0.00000000 0.86602667
vn 0.00000000 -1.00000000 0.00000000
vn 1.00000000 0.00000000 0.00000000
vn 0.00000000 1.00000000 0.00000000
vn 0.49999780 0.00000000 0.86602667
vn -0.49999780 0.00000000 0.86602667
vn 0.49999780 0.00000000 0.86602667
vn 0.00000000 -1.00000000 0.00000000
vn 0.00000000 1.00000000 0.00000000
vn -0.49999780 0.00000000 0.86602667
vn 0.49999780 0.00000000 0.86602667
vn -1.00000000 0.00000000 0.00000000
vn 0.00000000 -1.00000000 0.00000000
vn -0.49999780 0.00000000 0.86602667
vn -0.49999780 0.00000000 0.86602667
vn -1.00000000 0.00000000 0.00000000
vn 0.00000000 1.00000000 0.00000000
vn -1.00000000 0.00000000 0.00000000
vn -0.49999780 0.00000000 -0.86602667
vn 0.00000000 -1.00000000 0.00000000
vn -1.00000000 0.00000000 0.00000000
vn 0.00000000 1.00000000 0.00000000
vn -0.49999780 0.00000000 -0.86602667
f 413/413/413 416/416/416 422/422/422
f 422/422/422 419/419/419 413/413/413
f 420/420/420 424/424/424 428/428/428
f 428/428/428 425/425/425 420/420/420
f 426/426/426 430/430/430 436/436/436
f 436/436/436 432/432/432 426/426/426
f 431/431/431 435/435/435 440/440/440
f 440/440/440 439/439/439 431/431/431
f 423/423/423 418/418/418 447/447/447
f 423/423/423 447/447/447 442/442/442
f 423/423/423 442/442/442 434/434/434
f 423/423/423 434/434/434 429/429/429
f 437/437/437 441/441/441 446/446/446
f 446/446/446 443/443/443 437/437/437
f 444/444/444 448/448/448 417/417/417
f 417/417/417 414/414/414 444/444/444
f 415/415/415 421/421/421 427/427/427
f 415/415/415 427/427/427 433/433/433
f 415/415/415 433/433/433 438/438/438
f 415/415/415 438/438/438 445/445/445
