# Counter Duty prepared asset
mtllib ketchup.mtl
usemtl Product_ketchup
v 0.05337402 0.17068589 -0.02160748
v 0.05337402 0.17068589 -0.00000103
v 0.06198868 0.14456558 -0.00000103
v 0.06198868 0.14456558 -0.02160748
v 0.06409781 0.12698612 -0.00000103
v 0.06409781 0.12698613 -0.02111625
v 0.06198868 0.12150195 -0.02160748
v 0.06198868 0.12150194 -0.00000103
v 0.05622808 0.10922461 -0.00000103
v 0.05622808 0.10922461 -0.02160748
v 0.05559697 0.09449672 -0.00000103
v 0.05559697 0.09449672 -0.02160748
v 0.05559697 0.07947000 -0.00000103
v 0.05559697 0.07947000 -0.02160748
v 0.06296818 0.06727837 -0.00000103
v 0.06296818 0.06727837 -0.02160748
v 0.06296818 0.04601301 -0.00000103
v 0.06296818 0.04601301 -0.02160748
v 0.05673095 0.02729996 -0.00000103
v 0.05673095 0.02729996 -0.02160748
v 0.05833148 0.14368736 -0.03191438
v 0.05031449 0.16914998 -0.03297845
v 0.05112058 0.14281993 -0.03866904
v 0.04347239 0.16758697 -0.04056687
v 0.05991003 0.12769483 -0.02929065
v 0.05264378 0.12841825 -0.03438506
v 0.05218905 0.10986742 -0.02838400
v 0.05791602 0.12272125 -0.02840150
v 0.04546346 0.11050149 -0.03247411
v 0.05112058 0.12392452 -0.03247411
v 0.05150833 0.09458709 -0.02838546
v 0.04473035 0.09472993 -0.03247411
v 0.05153457 0.07794532 -0.02841170
v 0.04473035 0.07643959 -0.03247411
v 0.05890577 0.06578286 -0.02841170
v 0.05210156 0.06424797 -0.03247411
v 0.05888831 0.04691236 -0.02839421
v 0.05210156 0.04777675 -0.03247411
v 0.05293970 0.02907680 -0.02838546
v 0.04645903 0.03084636 -0.03247412
v 0.04570690 0.00027111 -0.00000103
v 0.04564131 0.00027112 -0.02119497
v 0.04947487 0.00148240 -0.02191067
v 0.04949242 0.00147221 -0.00000103
v 0.05190477 0.00466441 -0.02218325
v 0.05189460 0.00463381 -0.00000103
v 0.05858943 0.02337893 -0.02218325
v 0.05427924 0.02510623 -0.02973231
v 0.04697363 0.02683497 -0.03428449
v 0.05858657 0.02337309 -0.00000103
v 0.03653699 0.00026675 -0.02924547
v 0.04129758 0.00000000 -0.02606200
v 0.03611283 0.00026675 -0.00000103
v 0.04501167 0.00161943 -0.02877611
v 0.04714705 0.00504339 -0.02976147
v 0.03932980 0.00543112 -0.03428449
v 0.03774386 0.00176081 -0.03282687
v 0.04714705 0.00504339 -0.02976147
v 0.03932980 0.00543112 -0.03428449
v 0.05190477 0.00466441 -0.02218325
v 0.05189460 0.00463381 -0.00000103
v 0.04032824 0.19132112 -0.00000103
v 0.04036177 0.19126952 -0.02160748
v 0.03754707 0.19392022 -0.02133782
v 0.03757192 0.19393553 -0.00000103
v 0.03378059 0.19492395 -0.02059879
v 0.03390300 0.19492205 -0.00000103
v 0.04036177 0.19126952 -0.02160748
v 0.04032824 0.19132112 -0.00000103
v 0.02759731 0.19112317 -0.03357170
v 0.03551222 0.19120028 -0.02911136
v 0.02433665 0.19507467 -0.02791173
v 0.03009863 0.19498459 -0.02530257
v 0.03293662 0.19393771 -0.02780095
v 0.02558140 0.19397941 -0.03151790
v 0.03551222 0.19120028 -0.02911136
v 0.02759731 0.19112317 -0.03357170
v 0.02458443 0.19506767 -0.02059588
v -0.05337402 0.17068589 -0.02160748
v -0.06198720 0.14456558 -0.02160748
v -0.06198720 0.14456558 -0.00000103
v -0.05337402 0.17068589 -0.00000103
v -0.06409781 0.12698613 -0.02111625
v -0.06409781 0.12698612 -0.00000103
v -0.06198720 0.12150195 -0.02160748
v -0.05622660 0.10922461 -0.02160748
v -0.05622660 0.10922461 -0.00000103
v -0.06198720 0.12150194 -0.00000103
v -0.05559689 0.09449672 -0.02160748
v -0.05559689 0.09449672 -0.00000103
v -0.05559689 0.07947000 -0.02160748
v -0.05559689 0.07947000 -0.00000103
v -0.06296818 0.06727837 -0.02160748
v -0.06296818 0.06727837 -0.00000103
v -0.06296818 0.04601301 -0.02160748
v -0.06296818 0.04601301 -0.00000103
v -0.05673095 0.02729996 -0.02160748
v -0.05673095 0.02729996 -0.00000103
v -0.05031449 0.16914998 -0.03297845
v -0.05833001 0.14368736 -0.03191438
v -0.05031449 0.16914998 -0.03297845
v -0.04347239 0.16758697 -0.04056687
v -0.05112058 0.14281993 -0.03866904
v -0.05833001 0.14368736 -0.03191438
v -0.05990856 0.12769483 -0.02929065
v -0.05264378 0.12841825 -0.03438506
v -0.05990856 0.12769483 -0.02929065
v -0.05791602 0.12272125 -0.02840150
v -0.05218757 0.10986742 -0.02838400
v -0.05791602 0.12272125 -0.02840150
v -0.05112058 0.12392452 -0.03247411
v -0.04546346 0.11050149 -0.03247411
v -0.05218757 0.10986742 -0.02838400
v -0.05150824 0.09458709 -0.02838546
v -0.04472888 0.09472993 -0.03247411
v -0.05150824 0.09458709 -0.02838546
v -0.05153309 0.07794532 -0.02841170
v -0.04472888 0.07643959 -0.03247411
v -0.05153309 0.07794532 -0.02841170
v -0.05890577 0.06578286 -0.02841170
v -0.05210156 0.06424797 -0.03247411
v -0.05890577 0.06578286 -0.02841170
v -0.05888822 0.04691236 -0.02839421
v -0.05210156 0.04777675 -0.03247411
v -0.05888822 0.04691236 -0.02839421
v -0.05293823 0.02907680 -0.02838546
v -0.04645756 0.03084636 -0.03247412
v -0.05293823 0.02907680 -0.02838546
v -0.04570690 0.00027111 -0.00000103
v -0.04949094 0.00147221 -0.00000103
v -0.04947487 0.00148240 -0.02191067
v -0.04563983 0.00027112 -0.02119497
v -0.05189313 0.00463381 -0.00000103
v -0.05190477 0.00466441 -0.02218325
v -0.05427924 0.02510623 -0.02973231
v -0.05858796 0.02337893 -0.02218325
v -0.04697355 0.02683497 -0.03428449
v -0.05427924 0.02510623 -0.02973231
v -0.05858657 0.02337309 -0.00000103
v -0.03653699 0.00026675 -0.02924547
v -0.03611275 0.00026675 -0.00000103
v -0.04129610 0.00000000 -0.02606200
v -0.04501020 0.00161943 -0.02877611
v -0.04714557 0.00504339 -0.02976147
v -0.03932832 0.00543112 -0.03428449
v -0.03774386 0.00176081 -0.03282687
v -0.03932832 0.00543112 -0.03428449
v -0.04714557 0.00504339 -0.02976147
v -0.04714557 0.00504339 -0.02976147
v -0.05190477 0.00466441 -0.02218325
v -0.05189313 0.00463381 -0.00000103
v -0.04032824 0.19132112 -0.00000103
v -0.03757183 0.19393553 -0.00000103
v -0.03754707 0.19392022 -0.02133782
v -0.04036030 0.19126952 -0.02160748
v -0.03390300 0.19492205 -0.00000103
v -0.03378059 0.19492395 -0.02059879
v -0.04036030 0.19126952 -0.02160748
v -0.04032824 0.19132112 -0.00000103
v -0.03551222 0.19120028 -0.02911136
v -0.02759731 0.19112317 -0.03357170
v -0.03551222 0.19120028 -0.02911136
v -0.02433656 0.19507467 -0.02791173
v -0.02558140 0.19397941 -0.03151790
v -0.03293662 0.19393771 -0.02780095
v -0.03009716 0.19498459 -0.02530257
v -0.02759731 0.19112317 -0.03357170
v -0.03551222 0.19120028 -0.02911136
v -0.02527818 0.19504799 -0.00000103
v -0.02458296 0.19506767 -0.02059588
v 0.05337402 0.17068589 0.02160689
v 0.06198868 0.14456558 0.02160689
v 0.06409781 0.12698612 0.02111566
v 0.06198868 0.12150194 0.02160689
v 0.05622808 0.10922460 0.02160689
v 0.05559697 0.09449672 0.02160689
v 0.05559697 0.07947000 0.02160689
v 0.06296818 0.06727837 0.02160689
v 0.06296818 0.04601301 0.02160689
v 0.05673095 0.02729996 0.02160688
v 0.05031449 0.16914998 0.03297786
v 0.05833148 0.14368736 0.03191380
v 0.04347239 0.16758696 0.04056629
v 0.05112058 0.14281992 0.03866845
v 0.05991003 0.12769483 0.02929006
v 0.05264378 0.12841825 0.03438447
v 0.05791602 0.12272125 0.02840089
v 0.05218905 0.10986742 0.02838341
v 0.05112058 0.12392452 0.03247353
v 0.04546346 0.11050149 0.03247353
v 0.05150833 0.09458708 0.02838486
v 0.04473035 0.09472993 0.03247353
v 0.05153457 0.07794532 0.02841110
v 0.04473035 0.07643958 0.03247353
v 0.05890577 0.06578286 0.02841110
v 0.05210156 0.06424796 0.03247353
v 0.05888831 0.04691236 0.02839361
v 0.05210156 0.04777674 0.03247353
v 0.05293970 0.02907680 0.02838486
v 0.04645903 0.03084636 0.03247353
v 0.04947487 0.00148239 0.02191008
v 0.04564131 0.00027111 0.02119437
v 0.05190477 0.00466441 0.02218265
v 0.05427924 0.02510622 0.02973172
v 0.05858943 0.02337893 0.02218265
v 0.04697363 0.02683497 0.03428390
v 0.03653699 0.00026675 0.02924488
v 0.04129758 0.00000000 0.02606141
v 0.04501167 0.00161943 0.02877405
v 0.04714705 0.00504339 0.02976087
v 0.03932980 0.00543112 0.03428390
v 0.03774386 0.00176081 0.03282627
v 0.03932980 0.00543112 0.03428390
v 0.04714705 0.00504339 0.02976087
v 0.05190477 0.00466441 0.02218265
v 0.03754707 0.19392022 0.02133723
v 0.04036177 0.19126952 0.02160689
v 0.03378059 0.19492395 0.02059822
v 0.04036177 0.19126952 0.02160689
v 0.03551222 0.19120028 0.02911076
v 0.02759731 0.19112317 0.03357113
v 0.02433665 0.19507466 0.02791115
v 0.02558140 0.19397940 0.03151732
v 0.03293662 0.19393771 0.02780037
v 0.03009863 0.19498458 0.02530199
v 0.02759731 0.19112317 0.03357113
v 0.03551222 0.19120028 0.02911076
v 0.02527966 0.19504799 -0.00000103
v 0.02462666 0.19506636 0.01934174
v -0.05337402 0.17068589 0.02160689
v -0.06198720 0.14456558 0.02160689
v -0.06409781 0.12698612 0.02111566
v -0.06198720 0.12150194 0.02160689
v -0.05622660 0.10922460 0.02160689
v -0.05559689 0.09449672 0.02160689
v -0.05559689 0.07947000 0.02160689
v -0.06296818 0.06727837 0.02160689
v -0.06296818 0.04601301 0.02160689
v -0.05673095 0.02729996 0.02160688
v -0.05833001 0.14368736 0.03191380
v -0.05031449 0.16914998 0.03297786
v -0.05112058 0.14281992 0.03866845
v -0.04347239 0.16758696 0.04056629
v -0.05990856 0.12769483 0.02929006
v -0.05264378 0.12841825 0.03438447
v -0.05218757 0.10986742 0.02838341
v -0.05791602 0.12272125 0.02840089
v -0.04546346 0.11050149 0.03247353
v -0.05112058 0.12392452 0.03247353
v -0.05150824 0.09458708 0.02838486
v -0.04472888 0.09472993 0.03247353
v -0.05153309 0.07794532 0.02841110
v -0.04472888 0.07643958 0.03247353
v -0.05890577 0.06578286 0.02841110
v -0.05210156 0.06424796 0.03247353
v -0.05888822 0.04691236 0.02839361
v -0.05210156 0.04777674 0.03247353
v -0.05293823 0.02907680 0.02838486
v -0.04645756 0.03084636 0.03247353
v -0.04563983 0.00027111 0.02119437
v -0.04947487 0.00148239 0.02191008
v -0.05190477 0.00466441 0.02218265
v -0.05858796 0.02337893 0.02218265
v -0.05427924 0.02510622 0.02973172
v -0.04697355 0.02683497 0.03428390
v -0.03653699 0.00026675 0.02924488
v -0.04129610 0.00000000 0.02606141
v -0.04501020 0.00161943 0.02877405
v -0.04714557 0.00504339 0.02976087
v -0.03932832 0.00543112 0.03428390
v -0.03774386 0.00176081 0.03282627
v -0.04714557 0.00504339 0.02976087
v -0.03932832 0.00543112 0.03428390
v -0.05190477 0.00466441 0.02218265
v -0.04036030 0.19126952 0.02160689
v -0.03754707 0.19392022 0.02133723
v -0.03378059 0.19492395 0.02059822
v -0.04036030 0.19126952 0.02160689
v -0.02759731 0.19112317 0.03357113
v -0.03551222 0.19120028 0.02911076
v -0.02433656 0.19507466 0.02791115
v -0.03009716 0.19498458 0.02530199
v -0.03293662 0.19393771 0.02780037
v -0.02558140 0.19397940 0.03151732
v -0.03551222 0.19120028 0.02911076
v -0.02759731 0.19112317 0.03357113
v -0.02462518 0.19506636 0.01934174
v 0.01249339 0.16585500 -0.04897681
v -0.01249330 0.16585500 -0.04897681
v -0.00329568 0.19106531 -0.03691988
v 0.00329715 0.19106531 -0.03691988
v 0.01613885 0.14162074 -0.04800735
v -0.01613738 0.14162074 -0.04800735
v 0.01639837 0.12956920 -0.04248992
v -0.01639689 0.12956920 -0.04248992
v 0.01542903 0.12598517 -0.03944742
v -0.01542903 0.12598517 -0.03944742
v 0.01251381 0.11146791 -0.03872006
v -0.01251372 0.11146791 -0.03872006
v 0.01211441 0.09494275 -0.03859033
v -0.01211433 0.09494275 -0.03859033
v 0.01218140 0.07423129 -0.03843874
v -0.01217992 0.07423129 -0.03843874
v 0.01596109 0.06158633 -0.03952467
v -0.01596101 0.06158633 -0.03952467
v 0.01590714 0.04929704 -0.03964857
v -0.01590714 0.04929704 -0.03964857
v 0.01317263 0.03362461 -0.03889352
v -0.01317115 0.03362461 -0.03889352
v 0.01339270 0.02929837 -0.04076366
v -0.01339270 0.02929837 -0.04076366
v 0.00931136 0.00587133 -0.03941535
v -0.00930988 0.00587133 -0.03941535
v -0.00705634 0.00026236 -0.00000103
v 0.00705782 0.00026236 -0.00000103
v 0.00804471 0.00070548 0.03448505
v -0.00804462 0.00070548 0.03448505
v -0.00804462 0.00070548 -0.03448565
v 0.00804471 0.00070548 -0.03448565
v -0.00846157 0.00192554 -0.03759623
v 0.00846157 0.00192554 -0.03759623
v -0.00930988 0.00587133 -0.03941535
v 0.00931136 0.00587133 -0.03941535
v 0.00329715 0.19106531 -0.03691988
v -0.00329568 0.19106531 -0.03691988
v -0.00218785 0.19401074 -0.03432676
v 0.00218794 0.19401074 -0.03432676
v 0.00148967 0.19515804 -0.03033139
v -0.00148819 0.19515804 -0.03033139
v -0.00129288 0.19516067 -0.02059296
v 0.00129297 0.19516067 -0.02059296
v -0.00163980 0.19513778 -0.00000103
v 0.00164128 0.19513778 -0.00000103
v 0.01249339 0.16585500 0.04897681
v -0.01249330 0.16585500 0.04897681
v -0.01613738 0.14162073 0.04800604
v 0.01613885 0.14162073 0.04800604
v 0.00329715 0.19106530 0.03691931
v -0.00329568 0.19106530 0.03691931
v -0.01639689 0.12956920 0.04248891
v 0.01639837 0.12956920 0.04248891
v -0.01542903 0.12598517 0.03944682
v 0.01542903 0.12598517 0.03944682
v -0.01251372 0.11146791 0.03871947
v 0.01251381 0.11146791 0.03871947
v -0.01211433 0.09494274 0.03858973
v 0.01211441 0.09494274 0.03858973
v -0.01217992 0.07423128 0.03843814
v 0.01218140 0.07423128 0.03843814
v -0.01596101 0.06158633 0.03952407
v 0.01596109 0.06158633 0.03952407
v -0.01590714 0.04929704 0.03964797
v 0.01590714 0.04929704 0.03964797
v -0.01317115 0.03362461 0.03889292
v 0.01317263 0.03362461 0.03889292
v -0.01339270 0.02929837 0.04076307
v 0.01339270 0.02929837 0.04076307
v -0.00930988 0.00587132 0.03941475
v 0.00931136 0.00587132 0.03941475
v 0.00846157 0.00192553 0.03759417
v -0.00846157 0.00192553 0.03759417
v 0.00931136 0.00587132 0.03941475
v -0.00930988 0.00587132 0.03941475
v -0.00329568 0.19106530 0.03691931
v 0.00329715 0.19106530 0.03691931
v 0.00218794 0.19401074 0.03432618
v -0.00218785 0.19401074 0.03432618
v 0.00148967 0.19515804 0.03033082
v -0.00148819 0.19515804 0.03033082
v 0.00134831 0.19515848 0.01852983
v -0.00134684 0.19515848 0.01852983
v -0.00044892 0.19675823 -0.03080075
v -0.00044892 0.19898097 -0.03115786
v 0.01468124 0.19898068 -0.02698322
v 0.01450201 0.19675808 -0.02667273
v 0.02608722 0.19898024 -0.01557726
v 0.02577671 0.19675764 -0.01539796
v 0.03026188 0.19897965 0.00000336
v 0.02990332 0.19675706 0.00000336
v 0.02608722 0.19897907 0.01558396
v 0.02577671 0.19675648 0.01540468
v 0.01468124 0.19897864 0.02698846
v 0.01450201 0.19675604 0.02667945
v 0.01450201 0.19675604 0.02667945
v 0.01468124 0.19897864 0.02698846
v 0.01175577 0.19897864 0.02777268
v 0.01161007 0.19675589 0.02745491
v -0.00044892 0.22000000 -0.02705172
v 0.01262893 0.22000000 -0.02342806
v 0.01408072 0.21883871 -0.02594101
v -0.00044892 0.21883900 -0.02995387
v 0.01468124 0.21603554 -0.02698176
v -0.00044892 0.21603568 -0.03115641
v 0.02253203 0.21999927 -0.01352345
v 0.02504499 0.21883827 -0.01497525
v 0.02608722 0.21603495 -0.01557580
v 0.02615716 0.21999883 0.00000336
v 0.02905936 0.21883783 0.00000336
v 0.03026188 0.21603437 0.00000336
v 0.02253203 0.21999839 0.01353162
v 0.02504499 0.21883710 0.01498341
v 0.02608722 0.21603379 0.01558396
v 0.01262893 0.21999796 0.02343477
v 0.01408072 0.21883666 0.02594917
v 0.01468124 0.21603335 0.02698992
v 0.01262893 0.21999796 0.02343477
v 0.01008825 0.21999781 0.02411547
v 0.01126749 0.21883666 0.02670278
v 0.01408072 0.21883666 0.02594917
v 0.01175577 0.21603335 0.02777414
v 0.01468124 0.21603335 0.02698992
v 0.01468124 0.20944267 0.02698847
v 0.01155029 0.20946833 0.02766918
v 0.02608722 0.20944311 0.01558396
v 0.01468124 0.20944267 0.02698847
v 0.03026188 0.20944369 0.00000336
v 0.02608722 0.20944428 -0.01557726
v 0.01468124 0.20944472 -0.02698176
v -0.00044892 0.20944486 -0.03115641
v -0.00044892 0.19521970 -0.02846417
v 0.01333440 0.19521955 -0.02464955
v 0.02375359 0.19521926 -0.01423041
v 0.02756821 0.19521868 0.00000336
v 0.02375359 0.19521810 0.01423567
v 0.01333440 0.19521765 0.02465626
v 0.01333440 0.19521765 0.02465626
v 0.01066115 0.19521765 0.02537195
v 0.01362303 0.20949398 0.02515622
v 0.01362303 0.21090366 0.02515622
v 0.01089581 0.21090366 0.02588650
v 0.01089581 0.20949398 0.02588650
v 0.02425350 0.20949442 0.01452572
v 0.02425350 0.21090409 0.01452572
v 0.01362303 0.21090366 0.02515622
v 0.01362303 0.20949398 0.02515622
v 0.02814397 0.20949500 0.00000336
v 0.02814397 0.21090468 0.00000336
v 0.02425350 0.20949558 -0.01451756
v 0.02425350 0.21090511 -0.01451756
v 0.01362303 0.20949602 -0.02514952
v 0.01362303 0.21090570 -0.02514806
v -0.00044892 0.20949617 -0.02903993
v -0.00044892 0.21090585 -0.02903993
v 0.01468124 0.21095496 0.02698992
v 0.01155029 0.21092917 0.02766918
v 0.02608722 0.21095540 0.01558396
v 0.01468124 0.21095496 0.02698992
v 0.03026188 0.21095599 0.00000336
v 0.02608722 0.21095657 -0.01557726
v 0.01468124 0.21095715 -0.02698176
v -0.00044892 0.21095730 -0.03115641
v 0.00589761 0.19675589 0.02898542
v -0.00044892 0.19675575 0.03080600
v -0.00044892 0.19521751 0.02846943
v 0.00538301 0.19521765 0.02678586
v 0.00597632 0.19897849 0.02932067
v -0.00044892 0.19897849 0.03116312
v 0.00586555 0.21092917 0.02916472
v -0.00044892 0.21092902 0.03094446
v -0.00044892 0.20949383 0.03072583
v 0.00586555 0.20947999 0.02906413
v 0.00642671 0.21603320 0.03099987
v -0.00044892 0.21603320 0.03284230
v -0.00044892 0.21095467 0.03284230
v 0.00642671 0.21095482 0.03099987
v 0.00616138 0.21883652 0.02986874
v -0.00044892 0.21883637 0.03163976
v 0.00377092 0.20090373 0.02991246
v -0.00044892 0.20091582 0.03116312
v -0.00044892 0.21094432 0.03207269
v 0.00621533 0.21094520 0.03031040
v 0.01078061 0.21092917 0.02787179
v 0.01063048 0.20947022 0.02789512
v 0.00769484 0.20292079 0.02886152
v 0.01093074 0.20922607 0.02955972
v 0.00631151 0.20923496 0.03080454
v 0.00617745 0.20749499 0.03084099
v 0.00989876 0.20762501 0.02987020
v 0.01173535 0.20922446 0.02934400
v 0.01141328 0.20746525 0.02963698
v 0.01156341 0.20757996 0.02904956
v 0.01194387 0.20942562 0.02873908
v -0.00044892 0.20945987 0.03212223
v 0.00621829 0.20945637 0.03027980
v 0.01120920 0.20759090 0.02801026
v 0.00402748 0.20090373 0.03087305
v -0.00044892 0.20091568 0.03212371
v 0.01094829 0.20945346 0.02900729
v 0.00795140 0.20292079 0.02982065
v 0.00794262 0.20308915 0.03036724
v 0.00411488 0.20112150 0.03139342
v -0.00044892 0.20113345 0.03263094
v -0.00044892 0.20923321 0.03263242
v 0.01197593 0.21094593 0.02882799
v 0.01203422 0.21603320 0.02881780
v 0.01197593 0.21603320 0.02931485
v 0.01194526 0.21095219 0.02931630
v 0.01159113 0.21603320 0.02961657
v 0.01156341 0.21095482 0.02962386
v 0.00561776 0.21982304 0.02754966
v -0.00044892 0.21982304 0.02917490
v 0.01152553 0.21883666 0.02766918
v 0.01038121 0.21999781 0.02521015
v -0.00044892 0.21999767 0.02705988
v -0.00044892 0.21999767 0.02829742
v 0.00540342 0.21999781 0.02669693
v 0.00507110 0.21999781 0.02546087
v 0.00999937 0.21982683 0.02636605
v 0.01105759 0.21883666 0.02855687
v 0.01128791 0.21094578 0.02900583
v 0.01146715 0.21883666 0.02822453
v 0.01035211 0.21995219 0.02579028
v 0.00551567 0.21995364 0.02713132
v -0.00044892 0.21995350 0.02873763
v 0.00376944 0.20192290 0.03148671
v -0.00044892 0.20192553 0.03263094
v 0.00733046 0.20364597 0.03053197
v -0.00044892 0.20752778 0.03263242
v 0.00532184 0.20559482 0.03106983
v -0.00044892 0.20377817 0.03263242
v 0.00321410 0.20377366 0.03163539
v -0.00044892 0.20558943 0.03263242
v -0.01540132 0.19675808 -0.02667273
v -0.01558064 0.19898068 -0.02698322
v -0.02667611 0.19675764 -0.01539796
v -0.02698506 0.19898024 -0.01557726
v -0.03080263 0.19675706 0.00000336
v -0.03115972 0.19897965 0.00000336
v -0.02667611 0.19675648 0.01540468
v -0.02698506 0.19897907 0.01558396
v -0.01540132 0.19675604 0.02667945
v -0.01558064 0.19897864 0.02698846
v -0.01540132 0.19675604 0.02667945
v -0.01250938 0.19675589 0.02745491
v -0.01265369 0.19897864 0.02777268
v -0.01558064 0.19897864 0.02698846
v -0.01497864 0.21883871 -0.02594101
v -0.01352824 0.22000000 -0.02342806
v -0.01558064 0.21603554 -0.02698176
v -0.02594439 0.21883827 -0.01497525
v -0.02343143 0.21999927 -0.01352345
v -0.02698506 0.21603495 -0.01557580
v -0.02995867 0.21883783 0.00000336
v -0.02705656 0.21999883 0.00000336
v -0.03115972 0.21603437 0.00000336
v -0.02594439 0.21883710 0.01498341
v -0.02343143 0.21999839 0.01353162
v -0.02698506 0.21603379 0.01558396
v -0.01497864 0.21883666 0.02594917
v -0.01352824 0.21999796 0.02343477
v -0.01558064 0.21603335 0.02698992
v -0.01352824 0.21999796 0.02343477
v -0.01497864 0.21883666 0.02594917
v -0.01216541 0.21883666 0.02670278
v -0.01098765 0.21999781 0.02411547
v -0.01558064 0.21603335 0.02698992
v -0.01265369 0.21603335 0.02777414
v -0.01244960 0.20946833 0.02766918
v -0.01558064 0.20944267 0.02698847
v -0.01558064 0.20944267 0.02698847
v -0.02698506 0.20944311 0.01558396
v -0.03115972 0.20944369 0.00000336
v -0.02698506 0.20944428 -0.01557726
v -0.01558064 0.20944472 -0.02698176
v -0.01423372 0.19521955 -0.02464955
v -0.02465290 0.19521926 -0.01423041
v -0.02846604 0.19521868 0.00000336
v -0.02465290 0.19521810 0.01423567
v -0.01423372 0.19521765 0.02465626
v -0.01423372 0.19521765 0.02465626
v -0.01156046 0.19521765 0.02537195
v -0.01452086 0.20949398 0.02515622
v -0.01179365 0.20949398 0.02588650
v -0.01179365 0.21090366 0.02588650
v -0.01452086 0.21090366 0.02515622
v -0.02515142 0.20949442 0.01452572
v -0.01452086 0.20949398 0.02515622
v -0.01452086 0.21090366 0.02515622
v -0.02515142 0.21090409 0.01452572
v -0.02904328 0.20949500 0.00000336
v -0.02904328 0.21090468 0.00000336
v -0.02515142 0.20949558 -0.01451756
v -0.02515142 0.21090511 -0.01451756
v -0.01452086 0.20949602 -0.02514952
v -0.01452086 0.21090570 -0.02514806
v -0.01558064 0.21095496 0.02698992
v -0.01244960 0.21092917 0.02766918
v -0.02698506 0.21095540 0.01558396
v -0.01558064 0.21095496 0.02698992
v -0.03115972 0.21095599 0.00000336
v -0.02698506 0.21095657 -0.01557726
v -0.01558064 0.21095715 -0.02698176
v -0.00679692 0.19675589 0.02898542
v -0.00628093 0.19521765 0.02678586
v -0.00687563 0.19897849 0.02932067
v -0.00676486 0.21092917 0.02916472
v -0.00676486 0.20947999 0.02906413
v -0.00732603 0.21603320 0.03099987
v -0.00732603 0.21095482 0.03099987
v -0.00706078 0.21883652 0.02986874
v -0.00466875 0.20090373 0.02991246
v -0.00711464 0.21094520 0.03031040
v -0.01168001 0.21092917 0.02787179
v -0.01152988 0.20947022 0.02789512
v -0.00859415 0.20292079 0.02886152
v -0.01183014 0.20922607 0.02955972
v -0.01079668 0.20762501 0.02987020
v -0.00707676 0.20749499 0.03084099
v -0.00720943 0.20923496 0.03080454
v -0.01263327 0.20922446 0.02934400
v -0.01284170 0.20942562 0.02873908
v -0.01246272 0.20757996 0.02904956
v -0.01231111 0.20746525 0.02963698
v -0.00711612 0.20945637 0.03027980
v -0.01210851 0.20759090 0.02801026
v -0.00492679 0.20090373 0.03087305
v -0.01184760 0.20945346 0.02900729
v -0.00885071 0.20292079 0.02982065
v -0.00884193 0.20308915 0.03036724
v -0.00501419 0.20112150 0.03139342
v -0.01287524 0.21094593 0.02882799
v -0.01284318 0.21095219 0.02931630
v -0.01287376 0.21603320 0.02931485
v -0.01293353 0.21603320 0.02881780
v -0.01246272 0.21095482 0.02962386
v -0.01249044 0.21603320 0.02961657
v -0.00651559 0.21982304 0.02754966
v -0.01242484 0.21883666 0.02766918
v -0.01128061 0.21999781 0.02521015
v -0.00597041 0.21999781 0.02546087
v -0.00630134 0.21999781 0.02669693
v -0.01089868 0.21982683 0.02636605
v -0.01195690 0.21883666 0.02855687
v -0.01218574 0.21094578 0.02900583
v -0.01236654 0.21883666 0.02822453
v -0.01125142 0.21995219 0.02579028
v -0.00641360 0.21995364 0.02713132
v -0.00466875 0.20192290 0.03148671
v -0.00822977 0.20364597 0.03053197
v -0.00622115 0.20559482 0.03106983
v -0.00411341 0.20377366 0.03163539
v -0.00044892 0.21999971 -0.02083492
v 0.00962326 0.21999971 -0.01804211
v 0.01725102 0.21999927 -0.01041579
v 0.02004244 0.21999883 0.00000336
v 0.01725102 0.21999839 0.01042250
v 0.00962326 0.21999810 0.01805027
v 0.00380298 0.21999810 0.01960994
v -0.00044892 0.21999796 0.02084164
v 0.00962326 0.21999810 0.01805027
v 0.00766712 0.21999810 0.01857503
v -0.01052266 0.21999971 -0.01804211
v -0.01814895 0.21999927 -0.01041579
v -0.02094175 0.21999883 0.00000336
v -0.01814895 0.21999839 0.01042250
v -0.01052266 0.21999810 0.01805027
v -0.00470081 0.21999810 0.01960994
v -0.00856504 0.21999810 0.01857503
v -0.01052266 0.21999810 0.01805027
v 0.00520664 0.21999825 0.01406366
v -0.00044892 0.21999839 0.01333484
v -0.00610603 0.21999825 0.01406366
v -0.01011449 0.21999869 -0.00480974
v 0.00921518 0.21999869 -0.00480974
v 0.00776043 0.21999839 0.00589365
v 0.00520664 0.21999825 0.01406366
v -0.00044892 0.21999869 -0.00659242
v -0.00044892 0.21999854 0.00450013
v -0.00044892 0.21999839 0.01333484
v -0.00865974 0.21999839 0.00589365
v -0.00610603 0.21999825 0.01406366
vt 0.62565899 0.12555897
vt 0.57079202 0.12204897
vt 0.57298201 0.19608402
vt 0.62349600 0.19552100
vt 0.57416099 0.24264199
vt 0.62453800 0.23996598
vt 0.62833601 0.25413901
vt 0.57452899 0.25816101
vt 0.57520998 0.29160702
vt 0.63542902 0.28838700
vt 0.57583100 0.32811397
vt 0.63740301 0.32665598
vt 0.57636499 0.36518103
vt 0.63816702 0.36596400
vt 0.57683802 0.40198898
vt 0.63165998 0.40131599
vt 0.57746702 0.45732301
vt 0.63225102 0.45446700
vt 0.57798201 0.50751501
vt 0.63802099 0.50426799
vt 0.64899999 0.19654101
vt 0.65471202 0.12985402
vt 0.67194003 0.19628900
vt 0.67999899 0.13118899
vt 0.64580899 0.23705399
vt 0.66658598 0.23466802
vt 0.65792602 0.28529602
vt 0.64812100 0.25054699
vt 0.68018299 0.28293902
vt 0.66835499 0.24766397
vt 0.65991902 0.32559502
vt 0.68223202 0.32440400
vt 0.66159600 0.36959100
vt 0.68470103 0.37250602
vt 0.65105599 0.40406698
vt 0.67066300 0.40626401
vt 0.65207398 0.45164198
vt 0.67190599 0.44944602
vt 0.66079497 0.49931902
vt 0.68308401 0.49443799
vt 0.50887400 0.70491999
vt 0.57139099 0.70612097
vt 0.57394600 0.69446099
vt 0.50886399 0.69303203
vt 0.57617301 0.68294001
vt 0.50885397 0.68116200
vt 0.63837498 0.51536596
vt 0.66075402 0.51057804
vt 0.68329197 0.50609899
vt 0.57810497 0.51894403
vt 0.59472799 0.73288298
vt 0.58538002 0.71898198
vt 0.50889403 0.73356104
vt 0.59394902 0.70769101
vt 0.60085899 0.69754899
vt 0.61667502 0.72192001
vt 0.60600400 0.72886503
vt 0.67223102 0.56459498
vt 0.69923699 0.56340700
vt 0.64494401 0.56711197
vt 0.57866901 0.57083601
vt 0.62390900 0.69867504
vt 0.62509400 0.76364601
vt 0.63634598 0.76189202
vt 0.63522297 0.69867301
vt 0.64771402 0.75942802
vt 0.64654303 0.69867396
vt 0.63593900 0.06186801
vt 0.56876802 0.05937201
vt 0.69247001 0.05693400
vt 0.66445500 0.06136400
vt 0.67537498 0.78081602
vt 0.65855598 0.77315497
vt 0.64994699 0.78080702
vt 0.67144400 0.79182303
vt 0.63997298 0.78712702
vt 0.66426098 0.80157197
vt 0.67471898 0.75926799
vt 0.08342180 0.08942503
vt 0.06916930 0.16435897
vt 0.12383100 0.17296201
vt 0.13878401 0.09906602
vt 0.06572860 0.21343797
vt 0.11917900 0.22124898
vt 0.06250910 0.22916597
vt 0.05824900 0.26709700
vt 0.11716100 0.27334797
vt 0.11815800 0.23744398
vt 0.05668780 0.30835801
vt 0.11581300 0.31253201
vt 0.05404570 0.35029298
vt 0.11374100 0.35206300
vt 0.05575840 0.38896298
vt 0.11138200 0.39063799
vt 0.05454670 0.44652098
vt 0.11041500 0.44813502
vt 0.05346720 0.50034702
vt 0.11213600 0.50014699
vt 0.05258850 0.08419299
vt 0.04061220 0.16016799
vt 0.92653298 0.09372598
vt 0.90140802 0.10404199
vt 0.92934901 0.16982001
vt 0.95499498 0.16561198
vt 0.04191750 0.20886302
vt 0.93972498 0.20999599
vt 0.96305603 0.21155900
vt 0.04172170 0.22554702
vt 0.03702970 0.26501900
vt 0.95960099 0.22644901
vt 0.93825501 0.22420800
vt 0.92615598 0.26344699
vt 0.94715202 0.26381201
vt 0.03581070 0.30681998
vt 0.92633897 0.30754000
vt 0.94735599 0.30639601
vt 0.03221320 0.35176402
vt 0.92875600 0.35818702
vt 0.94955200 0.35228997
vt 0.03483830 0.39090198
vt 0.94861501 0.39094198
vt 0.96924001 0.38531500
vt 0.03391160 0.44471699
vt 0.95042402 0.43561602
vt 0.97157001 0.43669599
vt 0.03188160 0.49725401
vt 0.93811798 0.48270500
vt 0.95908499 0.48616201
vt 0.50900900 0.97598803
vt 0.50901800 0.98787630
vt 0.57408798 0.98636222
vt 0.57151401 0.97470611
vt 0.50902802 0.99974608
vt 0.57633603 0.99787849
vt 0.03088110 0.50939900
vt 0.05385950 0.51197696
vt 0.93806601 0.49462003
vt 0.96083498 0.49804401
vt 0.11257300 0.51173401
vt 0.59480900 0.94791698
vt 0.50898898 0.94734728
vt 0.58548099 0.96182781
vt 0.59406400 0.97310770
vt 0.60099101 0.98323852
vt 0.61676198 0.95886272
vt 0.60608399 0.95192838
vt 0.92053902 0.55328298
vt 0.94500297 0.55354202
vt 0.03011430 0.56720501
vt 0.05398740 0.56501198
vt 0.11525000 0.56448299
vt 0.87027299 0.69858199
vt 0.85895902 0.69859201
vt 0.85788900 0.76181501
vt 0.86914200 0.76355803
vt 0.84763902 0.69860399
vt 0.84651798 0.75936198
vt 0.09830220 0.02492702
vt 0.15759200 0.03706002
vt 0.88032699 0.03252101
vt 0.85541701 0.03722697
vt 0.07718610 0.01395100
vt 0.81887299 0.78077298
vt 0.82280999 0.79178202
vt 0.84430200 0.78074503
vt 0.83568698 0.77309901
vt 0.82999998 0.80152601
vt 0.85428202 0.78705597
vt 0.82197899 0.69856900
vt 0.81951201 0.75922400
vt 0.51624697 0.12787998
vt 0.52259099 0.19776398
vt 0.52380800 0.24225700
vt 0.52065700 0.25660402
vt 0.51497602 0.29114300
vt 0.51426899 0.32940501
vt 0.51461899 0.36862397
vt 0.52199602 0.40363199
vt 0.52260298 0.45672101
vt 0.51781702 0.50668800
vt 0.48760799 0.13346303
vt 0.49729300 0.19996798
vt 0.46258599 0.13597703
vt 0.47451699 0.20082998
vt 0.50250101 0.24034500
vt 0.48173299 0.23895901
vt 0.50081003 0.25394702
vt 0.49242800 0.28911197
vt 0.48055601 0.25203699
vt 0.47016200 0.28781998
vt 0.49174801 0.32935798
vt 0.46942300 0.32917303
vt 0.49127701 0.37322903
vt 0.46822900 0.37707800
vt 0.50265700 0.40716702
vt 0.48308301 0.41014498
vt 0.50268298 0.45468497
vt 0.48276401 0.45327002
vt 0.49487299 0.50264400
vt 0.47239301 0.49862498
vt 0.44379500 0.69454598
vt 0.44636899 0.70620203
vt 0.44154701 0.68303001
vt 0.49512500 0.51389301
vt 0.51768202 0.51779902
vt 0.47238800 0.51028001
vt 0.42307401 0.73299098
vt 0.43240201 0.71907997
vt 0.42381901 0.70780003
vt 0.41689199 0.69766998
vt 0.40112099 0.72204500
vt 0.41179800 0.72898000
vt 0.45733500 0.56820101
vt 0.48464099 0.56832802
vt 0.51217902 0.56975901
vt 0.63632399 0.63537502
vt 0.62507200 0.63362503
vt 0.64769500 0.63783002
vt 0.50168502 0.06464100
vt 0.47298101 0.06532699
vt 0.44441101 0.06212199
vt 0.67533201 0.61646402
vt 0.67140001 0.60545200
vt 0.64991200 0.61646402
vt 0.65851998 0.62411904
vt 0.66421598 0.59570396
vt 0.63993901 0.61014599
vt 0.67220300 0.69861799
vt 0.67453700 0.64171302
vt 0.19292800 0.11249000
vt 0.17615300 0.18142998
vt 0.17086300 0.22633702
vt 0.17320099 0.24136901
vt 0.17724200 0.27752101
vt 0.17655499 0.31738102
vt 0.17480500 0.35810000
vt 0.16644999 0.39394099
vt 0.16530600 0.44815999
vt 0.17088100 0.49900699
vt 0.20193300 0.18659800
vt 0.22084001 0.12146997
vt 0.22514100 0.18991899
vt 0.24556400 0.12660199
vt 0.19282100 0.22668701
vt 0.21416301 0.22744501
vt 0.20005500 0.27737498
vt 0.19356699 0.24066401
vt 0.22257400 0.27793998
vt 0.21433400 0.24074000
vt 0.19898801 0.31882101
vt 0.22129500 0.32015997
vt 0.19794101 0.36397201
vt 0.22083201 0.36914802
vt 0.18573700 0.39821202
vt 0.20527101 0.40201199
vt 0.18524399 0.44659501
vt 0.20513800 0.44577497
vt 0.19339100 0.49534398
vt 0.21555300 0.49199301
vt 0.44649199 0.97478718
vt 0.44393700 0.98644751
vt 0.44170901 0.99796790
vt 0.17131700 0.51027298
vt 0.19331101 0.50667101
vt 0.21559501 0.50368404
vt 0.42315400 0.94802481
vt 0.43250200 0.96192551
vt 0.42393401 0.97321701
vt 0.41702300 0.98335928
vt 0.40120801 0.95898801
vt 0.41187799 0.95204347
vt 0.20425101 0.56158900
vt 0.23055799 0.56230998
vt 0.17794800 0.56241798
vt 0.86905497 0.63353699
vt 0.85780501 0.63529801
vt 0.84643698 0.63776398
vt 0.21869700 0.05219197
vt 0.27440900 0.05487001
vt 0.24616800 0.05554497
vt 0.81878299 0.61642098
vt 0.83560097 0.62406301
vt 0.84420198 0.61640298
vt 0.82270902 0.60541099
vt 0.85416901 0.61007500
vt 0.82988799 0.59565902
vt 0.81959802 0.64166903
vt 0.75775498 0.12310398
vt 0.81974602 0.11630499
vt 0.78473997 0.04493803
vt 0.76550001 0.04658002
vt 0.75845402 0.18910700
vt 0.83743298 0.18042499
vt 0.75929302 0.22476000
vt 0.84285200 0.21622998
vt 0.76161599 0.23721999
vt 0.84200799 0.22926301
vt 0.77044398 0.27519798
vt 0.83695102 0.26940298
vt 0.77300799 0.31895202
vt 0.83804202 0.31425601
vt 0.77518600 0.37414002
vt 0.84056699 0.37032002
vt 0.76699299 0.40877098
vt 0.85161102 0.40417099
vt 0.76791602 0.44207799
vt 0.85251498 0.43757498
vt 0.77513498 0.48399299
vt 0.84649098 0.48039800
vt 0.77509397 0.49673200
vt 0.84679502 0.49305999
vt 0.78561097 0.55872399
vt 0.83731401 0.55644399
vt 0.50894898 0.86121702
vt 0.50893402 0.81969100
vt 0.40659899 0.81671399
vt 0.40665799 0.86429000
vt 0.61128300 0.86419404
vt 0.61122501 0.81661797
vt 0.62118298 0.86556000
vt 0.62112701 0.81523800
vt 0.63389403 0.86883903
vt 0.63389701 0.81196898
vt 0.73700702 0.81225801
vt 0.75724298 0.81225902
vt 0.75363499 0.80071700
vt 0.74063301 0.80074203
vt 0.74273199 0.78842103
vt 0.75151497 0.78840601
vt 0.75091600 0.75954401
vt 0.74330598 0.75954902
vt 0.75193799 0.69862103
vt 0.74224401 0.69862300
vt 0.38505599 0.13199800
vt 0.32372099 0.12939399
vt 0.31193200 0.19505101
vt 0.38884500 0.19794601
vt 0.36929899 0.05647302
vt 0.34942201 0.05489802
vt 0.30759200 0.23052102
vt 0.38956100 0.23387402
vt 0.30838001 0.24317801
vt 0.38771901 0.24643803
vt 0.31338000 0.28179300
vt 0.37998101 0.28452301
vt 0.31259799 0.32516003
vt 0.37837699 0.32768601
vt 0.31152299 0.37982500
vt 0.37746599 0.38210702
vt 0.30156901 0.41339099
vt 0.38655001 0.41608202
vt 0.30140200 0.44669402
vt 0.38622299 0.44924599
vt 0.30771300 0.48915899
vt 0.37954900 0.49136698
vt 0.30740401 0.50187898
vt 0.37972900 0.50403899
vt 0.31671301 0.56464696
vt 0.36954501 0.56653202
vt 0.39669999 0.81534803
vt 0.39675501 0.86566997
vt 0.38398799 0.81206900
vt 0.38398501 0.86893898
vt 0.75717199 0.58498901
vt 0.73694199 0.58498901
vt 0.74054903 0.59652996
vt 0.75354701 0.59650600
vt 0.74266899 0.60884202
vt 0.75144798 0.60882699
vt 0.74310797 0.64381504
vt 0.75103700 0.64381099
vt 0.19738001 0.59309602
vt 0.19738001 0.59960902
vt 0.24919200 0.60811698
vt 0.25097001 0.60175401
vt 0.29628399 0.63412201
vt 0.29965499 0.62839299
vt 0.33300599 0.67287004
vt 0.33763099 0.66795802
vt 0.35925299 0.71778399
vt 0.36462101 0.71342897
vt 0.38316801 0.76218599
vt 0.38902000 0.75741804
vt 0.09799120 0.92073071
vt 0.09840350 0.91372061
vt 0.08928880 0.91395152
vt 0.08886520 0.92088187
vt 0.19738001 0.67461097
vt 0.22726600 0.68114799
vt 0.23005000 0.67292297
vt 0.19738001 0.66583896
vt 0.23277700 0.66469300
vt 0.19738001 0.65731204
vt 0.25414300 0.69904196
vt 0.25946000 0.69204402
vt 0.26459700 0.68505800
vt 0.27370799 0.72675800
vt 0.28117600 0.72150201
vt 0.28837800 0.71608299
vt 0.28413299 0.76087797
vt 0.29368201 0.75772500
vt 0.30286601 0.75407600
vt 0.28699699 0.79991001
vt 0.30009601 0.79950500
vt 0.31235200 0.79701102
vt 0.09045710 0.82959902
vt 0.08238800 0.82963598
vt 0.08501260 0.83984900
vt 0.09391470 0.83940500
vt 0.08837970 0.85079896
vt 0.09699750 0.84950501
vt 0.09871040 0.88033801
vt 0.08912510 0.87818599
vt 0.33287400 0.73756397
vt 0.35058400 0.78109598
vt 0.31152701 0.69552004
vt 0.28096101 0.66025102
vt 0.24126500 0.63681304
vt 0.19738001 0.62817299
vt 0.19738001 0.58498901
vt 0.25305399 0.59444702
vt 0.30371299 0.62159300
vt 0.34318000 0.66210699
vt 0.37108800 0.70812500
vt 0.39501199 0.75040102
vt 0.09603520 0.92909181
vt 0.08751000 0.92920309
vt 0.09905990 0.87588602
vt 0.09922720 0.87117803
vt 0.09323320 0.87240201
vt 0.09290070 0.87526500
vt 0.32723799 0.74088800
vt 0.32330099 0.74323899
vt 0.33819801 0.78530699
vt 0.34308299 0.78295702
vt 0.30704400 0.69966799
vt 0.30403399 0.70249200
vt 0.27772799 0.66523898
vt 0.27560100 0.66858399
vt 0.23955600 0.64243400
vt 0.23843201 0.64617097
vt 0.19738001 0.63413799
vt 0.19738001 0.63802898
vt 0.09853280 0.86626303
vt 0.08867570 0.86975402
vt 0.31761801 0.74652201
vt 0.33145100 0.79022896
vt 0.29975000 0.70637101
vt 0.27257499 0.67317200
vt 0.23691501 0.65117699
vt 0.19738001 0.64359403
vt 0.07032130 0.92123532
vt 0.04947740 0.92033380
vt 0.04945610 0.92846477
vt 0.07006340 0.92940819
vt 0.07074410 0.91442961
vt 0.04948930 0.91392201
vt 0.06945320 0.87248898
vt 0.04948330 0.87259001
vt 0.04949150 0.87666398
vt 0.06953220 0.87629300
vt 0.06818060 0.85248101
vt 0.04942770 0.85385501
vt 0.04947100 0.86753702
vt 0.06935380 0.86733103
vt 0.06755070 0.84351003
vt 0.04939290 0.84557098
vt 0.06381240 0.90873170
vt 0.04949680 0.90848899
vt 0.04947620 0.86956400
vt 0.06941580 0.86932701
vt 0.08568650 0.87147999
vt 0.08536380 0.87619901
vt 0.07701560 0.90203828
vt 0.08322410 0.88064301
vt 0.06942230 0.88120300
vt 0.06902970 0.88613302
vt 0.07969610 0.88508600
vt 0.08513530 0.88094902
vt 0.08374570 0.88510799
vt 0.08543480 0.88502300
vt 0.08663860 0.88020301
vt 0.04949700 0.88045698
vt 0.06957760 0.87960899
vt 0.08814650 0.88575697
vt 0.06319960 0.90600622
vt 0.04949980 0.90584791
vt 0.08419210 0.87912399
vt 0.07531340 0.89992398
vt 0.07425060 0.89867902
vt 0.06285700 0.90442181
vt 0.04950120 0.90433979
vt 0.04949860 0.88195503
vt 0.08612560 0.86720300
vt 0.08554850 0.85170698
vt 0.08421830 0.85204202
vt 0.08498840 0.86668998
vt 0.08288120 0.85220098
vt 0.08380830 0.86660099
vt 0.06697180 0.83597803
vt 0.04935800 0.83837098
vt 0.08381950 0.84247500
vt 0.08216480 0.83316702
vt 0.04932870 0.83260000
vt 0.04934680 0.83595598
vt 0.06668690 0.83332002
vt 0.06618010 0.82955801
vt 0.08014740 0.83614099
vt 0.08140770 0.84378898
vt 0.08449750 0.86831099
vt 0.08282200 0.84353101
vt 0.08158310 0.83479601
vt 0.06684120 0.83464599
vt 0.04935230 0.83714497
vt 0.06189140 0.90214288
vt 0.04950280 0.90213042
vt 0.07243480 0.89711201
vt 0.04950260 0.88664603
vt 0.06654190 0.89163202
vt 0.04950440 0.89698499
vt 0.06030730 0.89690900
vt 0.04950460 0.89199197
vt 0.14379001 0.60175300
vt 0.14556800 0.60811603
vt 0.09510470 0.62839198
vt 0.09847570 0.63412100
vt 0.05712860 0.66795599
vt 0.06175330 0.67286897
vt 0.03013740 0.71342701
vt 0.03550550 0.71778202
vt 0.00573879 0.75741601
vt 0.01159070 0.76218402
vt 0.00096202 0.92069292
vt 0.01008730 0.92086619
vt 0.00968841 0.91394752
vt 0.00057122 0.91370392
vt 0.16470900 0.67292297
vt 0.16749300 0.68114799
vt 0.16198200 0.66469300
vt 0.13529900 0.69204301
vt 0.14061600 0.69904101
vt 0.13016200 0.68505704
vt 0.11358300 0.72150099
vt 0.12105000 0.72675699
vt 0.10638100 0.71608198
vt 0.10107600 0.75772399
vt 0.11062500 0.76087701
vt 0.09189270 0.75407499
vt 0.09466230 0.79950398
vt 0.10776100 0.79990900
vt 0.08240580 0.79700899
vt 0.00815418 0.82998002
vt 0.00480729 0.83976901
vt 0.01371450 0.84012300
vt 0.01622650 0.82992697
vt 0.00181997 0.84983999
vt 0.01045120 0.85105801
vt 0.00986686 0.87832201
vt 0.00028411 0.88047498
vt 0.04417410 0.78109401
vt 0.06188500 0.73756200
vt 0.08323230 0.69551802
vt 0.11379800 0.66025001
vt 0.15349400 0.63681304
vt 0.14170600 0.59444600
vt 0.09104680 0.62159199
vt 0.05157960 0.66210496
vt 0.02367050 0.70812297
vt -0.00025392 0.75039798
vt 0.00288296 0.92904788
vt 0.01140550 0.92918319
vt -0.00007147 0.87606400
vt 0.00608456 0.87542999
vt 0.00574043 0.87257999
vt -0.00025392 0.87138599
vt 0.06752040 0.74088699
vt 0.05167540 0.78295600
vt 0.05655970 0.78530598
vt 0.07145790 0.74323702
vt 0.08771520 0.69966698
vt 0.09072480 0.70249099
vt 0.11703200 0.66523802
vt 0.11915800 0.66858304
vt 0.15520300 0.64243400
vt 0.15632699 0.64617097
vt 0.00040987 0.86650902
vt 0.01028390 0.86992902
vt 0.07714040 0.74652100
vt 0.06330650 0.79022801
vt 0.09500890 0.70637000
vt 0.12218400 0.67317104
vt 0.15784501 0.65117699
vt 0.02862770 0.92123759
vt 0.02884290 0.92940909
vt 0.02823090 0.91443872
vt 0.02951530 0.87257302
vt 0.02944960 0.87637001
vt 0.03066400 0.85259300
vt 0.02959170 0.86742401
vt 0.03121430 0.84363300
vt 0.03517830 0.90874422
vt 0.02953910 0.86941701
vt 0.01328050 0.87163401
vt 0.01362090 0.87633097
vt 0.02198230 0.90207428
vt 0.01576970 0.88075399
vt 0.01930350 0.88517398
vt 0.02997400 0.88619101
vt 0.02957300 0.88126999
vt 0.01385920 0.88106501
vt 0.01235530 0.88032502
vt 0.01356240 0.88512599
vt 0.01525240 0.88520700
vt 0.02941410 0.87967902
vt 0.01084820 0.88586098
vt 0.03579740 0.90602160
vt 0.01479920 0.87924302
vt 0.02368870 0.89996397
vt 0.02475360 0.89872003
vt 0.03614330 0.90443879
vt 0.01282020 0.86737400
vt 0.01395510 0.86685801
vt 0.01462250 0.85226399
vt 0.01328970 0.85194099
vt 0.01513490 0.86676502
vt 0.01596040 0.85241199
vt 0.03171730 0.83610898
vt 0.01493530 0.84272897
vt 0.01649050 0.83344001
vt 0.03244040 0.82969403
vt 0.03197550 0.83345300
vt 0.01854210 0.83638400
vt 0.01736060 0.84401703
vt 0.01445440 0.86847198
vt 0.01594370 0.84377199
vt 0.01709080 0.83505702
vt 0.03183470 0.83477801
vt 0.03711250 0.90216118
vt 0.02657130 0.89715499
vt 0.03246640 0.89167398
vt 0.03870080 0.89692998
vt 0.19738001 0.69226897
vt 0.22160999 0.69770396
vt 0.24315700 0.71251297
vt 0.25848499 0.73574001
vt 0.26454300 0.76478201
vt 0.25900200 0.79759902
vt 0.06309910 0.81220698
vt 0.04922150 0.81497401
vt 0.08227820 0.81037199
vt 0.07587400 0.81092298
vt 0.17314900 0.69770396
vt 0.15160100 0.71251202
vt 0.13627400 0.73574001
vt 0.13021600 0.76478201
vt 0.13575600 0.79759800
vt 0.03530570 0.81234503
vt 0.02251100 0.81119901
vt 0.01609810 0.81072497
vt 0.06827770 0.79611397
vt 0.04907470 0.79272300
vt 0.02991380 0.79632598
vt 0.16972999 0.73550099
vt 0.22502799 0.73550099
vt 0.22752500 0.76755601
vt 0.22939500 0.79225302
vt 0.19737899 0.73386502
vt 0.19737899 0.76753199
vt 0.19737899 0.79522097
vt 0.16723400 0.76755500
vt 0.16536300 0.79225302
f 4/4 1/1 2/2
f 2/2 3/3 4/4
f 6/6 4/4 3/3
f 3/3 5/5 6/6
f 10/10 7/7 8/8
f 8/8 9/9 10/10
f 12/12 10/10 9/9
f 9/9 11/11 12/12
f 14/14 12/12 11/11
f 11/11 13/13 14/14
f 16/16 14/14 13/13
f 13/13 15/15 16/16
f 18/18 16/16 15/15
f 15/15 17/17 18/18
f 20/20 18/18 17/17
f 17/17 19/19 20/20
f 22/22 1/1 4/4
f 4/4 21/21 22/22
f 24/24 22/22 21/21
f 21/21 23/23 24/24
f 21/21 4/4 6/6
f 6/6 25/25 21/21
f 23/23 21/21 25/25
f 25/25 26/26 23/23
f 28/28 7/7 10/10
f 10/10 27/27 28/28
f 30/30 28/28 27/27
f 27/27 29/29 30/30
f 27/27 10/10 12/12
f 12/12 31/31 27/27
f 29/29 27/27 31/31
f 31/31 32/32 29/29
f 31/31 12/12 14/14
f 14/14 33/33 31/31
f 32/32 31/31 33/33
f 33/33 34/34 32/32
f 33/33 14/14 16/16
f 16/16 35/35 33/33
f 34/34 33/33 35/35
f 35/35 36/36 34/34
f 35/35 16/16 18/18
f 18/18 37/37 35/35
f 36/36 35/35 37/37
f 37/37 38/38 36/36
f 37/37 18/18 20/20
f 20/20 39/39 37/37
f 38/38 37/37 39/39
f 39/39 40/40 38/38
f 44/44 41/41 42/42
f 42/42 43/43 44/44
f 46/46 44/44 43/43
f 43/43 45/45 46/46
f 39/39 20/20 47/47
f 47/47 48/48 39/39
f 40/40 39/39 48/48
f 48/48 49/49 40/40
f 47/47 20/20 19/19
f 19/19 50/50 47/47
f 53/53 51/51 52/52
f 53/53 52/52 42/42
f 42/42 41/41 53/53
f 43/43 42/42 52/52
f 52/52 54/54 43/43
f 45/45 43/43 54/54
f 54/54 55/55 45/45
f 57/57 56/56 55/55
f 55/55 54/54 57/57
f 51/51 57/57 54/54
f 54/54 52/52 51/51
f 26/26 25/25 28/28
f 28/28 30/30 26/26
f 25/25 6/6 7/7
f 7/7 28/28 25/25
f 6/6 5/5 8/8
f 8/8 7/7 6/6
f 49/49 48/48 58/58
f 58/58 59/59 49/49
f 48/48 47/47 60/60
f 60/60 58/58 48/48
f 47/47 50/50 61/61
f 61/61 60/60 47/47
f 65/65 62/62 63/63
f 63/63 64/64 65/65
f 67/67 65/65 64/64
f 64/64 66/66 67/67
f 1/1 68/68 69/69
f 69/69 2/2 1/1
f 22/22 24/24 70/70
f 70/70 71/71 22/22
f 1/1 22/22 71/71
f 71/71 68/68 1/1
f 75/75 72/72 73/73
f 73/73 74/74 75/75
f 77/77 75/75 74/74
f 74/74 76/76 77/77
f 64/64 63/63 76/76
f 76/76 74/74 64/64
f 66/66 64/64 74/74
f 74/74 73/73 66/66
f 78/78 66/66 73/73
f 73/73 72/72 78/78
f 82/82 79/79 80/80
f 80/80 81/81 82/82
f 81/81 80/80 83/83
f 83/83 84/84 81/81
f 88/88 85/85 86/86
f 86/86 87/87 88/88
f 87/87 86/86 89/89
f 89/89 90/90 87/87
f 90/90 89/89 91/91
f 91/91 92/92 90/90
f 92/92 91/91 93/93
f 93/93 94/94 92/92
f 94/94 93/93 95/95
f 95/95 96/96 94/94
f 96/96 95/95 97/97
f 97/97 98/98 96/96
f 80/80 79/79 99/99
f 99/99 100/100 80/80
f 104/104 101/101 102/102
f 102/102 103/103 104/104
f 83/83 80/80 100/100
f 100/100 105/105 83/83
f 107/107 104/104 103/103
f 103/103 106/106 107/107
f 86/86 85/85 108/108
f 108/108 109/109 86/86
f 113/113 110/110 111/111
f 111/111 112/112 113/113
f 89/89 86/86 109/109
f 109/109 114/114 89/89
f 116/116 113/113 112/112
f 112/112 115/115 116/116
f 91/91 89/89 114/114
f 114/114 117/117 91/91
f 119/119 116/116 115/115
f 115/115 118/118 119/119
f 93/93 91/91 117/117
f 117/117 120/120 93/93
f 122/122 119/119 118/118
f 118/118 121/121 122/122
f 95/95 93/93 120/120
f 120/120 123/123 95/95
f 125/125 122/122 121/121
f 121/121 124/124 125/125
f 97/97 95/95 123/123
f 123/123 126/126 97/97
f 128/128 125/125 124/124
f 124/124 127/127 128/128
f 132/132 129/129 130/130
f 130/130 131/131 132/132
f 131/131 130/130 133/133
f 133/133 134/134 131/131
f 136/136 97/97 126/126
f 126/126 135/135 136/136
f 138/138 128/128 127/127
f 127/127 137/137 138/138
f 98/98 97/97 136/136
f 136/136 139/139 98/98
f 142/142 140/140 141/141
f 142/142 141/141 129/129
f 129/129 132/132 142/142
f 142/142 132/132 131/131
f 131/131 143/143 142/142
f 143/143 131/131 134/134
f 134/134 144/144 143/143
f 144/144 145/145 146/146
f 146/146 143/143 144/144
f 143/143 146/146 140/140
f 140/140 142/142 143/143
f 110/110 107/107 106/106
f 106/106 111/111 110/110
f 85/85 83/83 105/105
f 105/105 108/108 85/85
f 88/88 84/84 83/83
f 83/83 85/85 88/88
f 148/148 138/138 137/137
f 137/137 147/147 148/148
f 150/150 136/136 135/135
f 135/135 149/149 150/150
f 151/151 139/139 136/136
f 136/136 150/150 151/151
f 155/155 152/152 153/153
f 153/153 154/154 155/155
f 154/154 153/153 156/156
f 156/156 157/157 154/154
f 159/159 158/158 79/79
f 79/79 82/82 159/159
f 161/161 102/102 101/101
f 101/101 160/160 161/161
f 162/162 99/99 79/79
f 79/79 158/158 162/162
f 166/166 163/163 164/164
f 164/164 165/165 166/166
f 165/165 164/164 167/167
f 167/167 168/168 165/165
f 168/168 155/155 154/154
f 154/154 165/165 168/168
f 165/165 154/154 157/157
f 157/157 166/166 165/165
f 170/170 157/157 156/156
f 156/156 169/169 170/170
f 2/2 171/171 172/172
f 172/172 3/3 2/2
f 3/3 172/172 173/173
f 173/173 5/5 3/3
f 8/8 174/174 175/175
f 175/175 9/9 8/8
f 9/9 175/175 176/176
f 176/176 11/11 9/9
f 11/11 176/176 177/177
f 177/177 13/13 11/11
f 13/13 177/177 178/178
f 178/178 15/15 13/13
f 15/15 178/178 179/179
f 179/179 17/17 15/15
f 17/17 179/179 180/180
f 180/180 19/19 17/17
f 172/172 171/171 181/181
f 181/181 182/182 172/172
f 182/182 181/181 183/183
f 183/183 184/184 182/182
f 173/173 172/172 182/182
f 182/182 185/185 173/173
f 185/185 182/182 184/184
f 184/184 186/186 185/185
f 175/175 174/174 187/187
f 187/187 188/188 175/175
f 188/188 187/187 189/189
f 189/189 190/190 188/188
f 176/176 175/175 188/188
f 188/188 191/191 176/176
f 191/191 188/188 190/190
f 190/190 192/192 191/191
f 177/177 176/176 191/191
f 191/191 193/193 177/177
f 193/193 191/191 192/192
f 192/192 194/194 193/193
f 178/178 177/177 193/193
f 193/193 195/195 178/178
f 195/195 193/193 194/194
f 194/194 196/196 195/195
f 179/179 178/178 195/195
f 195/195 197/197 179/179
f 197/197 195/195 196/196
f 196/196 198/198 197/197
f 180/180 179/179 197/197
f 197/197 199/199 180/180
f 199/199 197/197 198/198
f 198/198 200/200 199/199
f 202/202 41/41 44/44
f 44/44 201/201 202/202
f 201/201 44/44 46/46
f 46/46 203/203 201/201
f 205/205 180/180 199/199
f 199/199 204/204 205/205
f 204/204 199/199 200/200
f 200/200 206/206 204/204
f 19/19 180/180 205/205
f 205/205 50/50 19/19
f 208/208 207/207 53/53
f 208/208 53/53 41/41
f 41/41 202/202 208/208
f 208/208 202/202 201/201
f 201/201 209/209 208/208
f 209/209 201/201 203/203
f 203/203 210/210 209/209
f 210/210 211/211 212/212
f 212/212 209/209 210/210
f 209/209 212/212 207/207
f 207/207 208/208 209/209
f 187/187 185/185 186/186
f 186/186 189/189 187/187
f 174/174 173/173 185/185
f 185/185 187/187 174/174
f 8/8 5/5 173/173
f 173/173 174/174 8/8
f 214/214 204/204 206/206
f 206/206 213/213 214/214
f 215/215 205/205 204/204
f 204/204 214/214 215/215
f 61/61 50/50 205/205
f 205/205 215/215 61/61
f 217/217 62/62 65/65
f 65/65 216/216 217/217
f 216/216 65/65 67/67
f 67/67 218/218 216/216
f 69/69 219/219 171/171
f 171/171 2/2 69/69
f 221/221 183/183 181/181
f 181/181 220/220 221/221
f 220/220 181/181 171/171
f 171/171 219/219 220/220
f 225/225 222/222 223/223
f 223/223 224/224 225/225
f 224/224 223/223 226/226
f 226/226 227/227 224/224
f 227/227 217/217 216/216
f 216/216 224/224 227/227
f 224/224 216/216 218/218
f 218/218 225/225 224/224
f 229/229 218/218 67/67
f 67/67 228/228 229/229
f 231/231 230/230 82/82
f 82/82 81/81 231/231
f 232/232 231/231 81/81
f 81/81 84/84 232/232
f 234/234 233/233 88/88
f 88/88 87/87 234/234
f 235/235 234/234 87/87
f 87/87 90/90 235/235
f 236/236 235/235 90/90
f 90/90 92/92 236/236
f 237/237 236/236 92/92
f 92/92 94/94 237/237
f 238/238 237/237 94/94
f 94/94 96/96 238/238
f 239/239 238/238 96/96
f 96/96 98/98 239/239
f 241/241 230/230 231/231
f 231/231 240/240 241/241
f 243/243 241/241 240/240
f 240/240 242/242 243/243
f 240/240 231/231 232/232
f 232/232 244/244 240/240
f 242/242 240/240 244/244
f 244/244 245/245 242/242
f 247/247 233/233 234/234
f 234/234 246/246 247/247
f 249/249 247/247 246/246
f 246/246 248/248 249/249
f 246/246 234/234 235/235
f 235/235 250/250 246/246
f 248/248 246/246 250/250
f 250/250 251/251 248/248
f 250/250 235/235 236/236
f 236/236 252/252 250/250
f 251/251 250/250 252/252
f 252/252 253/253 251/251
f 252/252 236/236 237/237
f 237/237 254/254 252/252
f 253/253 252/252 254/254
f 254/254 255/255 253/253
f 254/254 237/237 238/238
f 238/238 256/256 254/254
f 255/255 254/254 256/256
f 256/256 257/257 255/255
f 256/256 238/238 239/239
f 239/239 258/258 256/256
f 257/257 256/256 258/258
f 258/258 259/259 257/257
f 130/130 129/129 260/260
f 260/260 261/261 130/130
f 133/133 130/130 261/261
f 261/261 262/262 133/133
f 258/258 239/239 263/263
f 263/263 264/264 258/258
f 259/259 258/258 264/264
f 264/264 265/265 259/259
f 263/263 239/239 98/98
f 98/98 139/139 263/263
f 141/141 266/266 267/267
f 141/141 267/267 260/260
f 260/260 129/129 141/141
f 261/261 260/260 267/267
f 267/267 268/268 261/261
f 262/262 261/261 268/268
f 268/268 269/269 262/262
f 271/271 270/270 269/269
f 269/269 268/268 271/271
f 266/266 271/271 268/268
f 268/268 267/267 266/266
f 245/245 244/244 247/247
f 247/247 249/249 245/245
f 244/244 232/232 233/233
f 233/233 247/247 244/244
f 232/232 84/84 88/88
f 88/88 233/233 232/232
f 265/265 264/264 272/272
f 272/272 273/273 265/265
f 264/264 263/263 274/274
f 274/274 272/272 264/264
f 263/263 139/139 151/151
f 151/151 274/274 263/263
f 153/153 152/152 275/275
f 275/275 276/276 153/153
f 156/156 153/153 276/276
f 276/276 277/277 156/156
f 230/230 278/278 159/159
f 159/159 82/82 230/230
f 241/241 243/243 279/279
f 279/279 280/280 241/241
f 230/230 241/241 280/280
f 280/280 278/278 230/230
f 284/284 281/281 282/282
f 282/282 283/283 284/284
f 286/286 284/284 283/283
f 283/283 285/285 286/286
f 276/276 275/275 285/285
f 285/285 283/283 276/276
f 277/277 276/276 283/283
f 283/283 282/282 277/277
f 287/287 277/277 282/282
f 282/282 281/281 287/287
f 67/67 66/66 78/78
f 78/78 228/228 67/67
f 225/225 218/218 229/229
f 229/229 222/222 225/225
f 166/166 157/157 170/170
f 170/170 163/163 166/166
f 156/156 277/277 287/287
f 287/287 169/169 156/156
f 291/291 288/288 289/289
f 289/289 290/290 291/291
f 293/293 289/289 288/288
f 288/288 292/292 293/293
f 295/295 293/293 292/292
f 292/292 294/294 295/295
f 297/297 295/295 294/294
f 294/294 296/296 297/297
f 299/299 297/297 296/296
f 296/296 298/298 299/299
f 301/301 299/299 298/298
f 298/298 300/300 301/301
f 303/303 301/301 300/300
f 300/300 302/302 303/303
f 305/305 303/303 302/302
f 302/302 304/304 305/305
f 307/307 305/305 304/304
f 304/304 306/306 307/307
f 309/309 307/307 306/306
f 306/306 308/308 309/309
f 311/311 309/309 308/308
f 308/308 310/310 311/311
f 313/313 311/311 310/310
f 310/310 312/312 313/313
f 317/317 314/314 315/315
f 315/315 316/316 317/317
f 319/319 315/315 314/314
f 314/314 318/318 319/319
f 321/321 319/319 318/318
f 318/318 320/320 321/321
f 323/323 321/321 320/320
f 320/320 322/322 323/323
f 327/327 324/324 325/325
f 325/325 326/326 327/327
f 331/331 328/328 329/329
f 329/329 330/330 331/331
f 326/326 329/329 328/328
f 328/328 327/327 326/326
f 333/333 331/331 330/330
f 330/330 332/332 333/333
f 337/337 334/334 335/335
f 335/335 336/336 337/337
f 339/339 335/335 334/334
f 334/334 338/338 339/339
f 341/341 337/337 336/336
f 336/336 340/340 341/341
f 343/343 341/341 340/340
f 340/340 342/342 343/343
f 345/345 343/343 342/342
f 342/342 344/344 345/345
f 347/347 345/345 344/344
f 344/344 346/346 347/347
f 349/349 347/347 346/346
f 346/346 348/348 349/349
f 351/351 349/349 348/348
f 348/348 350/350 351/351
f 353/353 351/351 350/350
f 350/350 352/352 353/353
f 355/355 353/353 352/352
f 352/352 354/354 355/355
f 357/357 355/355 354/354
f 354/354 356/356 357/357
f 359/359 357/357 356/356
f 356/356 358/358 359/359
f 361/361 317/317 316/316
f 316/316 360/360 361/361
f 363/363 361/361 360/360
f 360/360 362/362 363/363
f 367/367 364/364 365/365
f 365/365 366/366 367/367
f 366/366 368/368 369/369
f 369/369 367/367 366/366
f 371/371 369/369 368/368
f 368/368 370/370 371/371
f 332/332 371/371 370/370
f 370/370 333/333 332/332
f 288/288 24/24 23/23
f 23/23 292/292 288/288
f 292/292 23/23 26/26
f 26/26 294/294 292/292
f 296/296 30/30 29/29
f 29/29 298/298 296/296
f 298/298 29/29 32/32
f 32/32 300/300 298/298
f 300/300 32/32 34/34
f 34/34 302/302 300/300
f 302/302 34/34 36/36
f 36/36 304/304 302/302
f 304/304 36/36 38/38
f 38/38 306/306 304/304
f 306/306 38/38 40/40
f 40/40 308/308 306/306
f 321/321 323/323 56/56
f 56/56 57/57 321/321
f 319/319 321/321 57/57
f 57/57 51/51 319/319
f 308/308 40/40 49/49
f 49/49 310/310 308/308
f 294/294 26/26 30/30
f 30/30 296/296 294/294
f 310/310 49/49 59/59
f 59/59 312/312 310/310
f 327/327 328/328 72/72
f 72/72 75/75 327/327
f 324/324 327/327 75/75
f 75/75 77/77 324/324
f 70/70 24/24 288/288
f 288/288 291/291 70/70
f 228/228 78/78 331/331
f 331/331 333/333 228/228
f 319/319 51/51 53/53
f 53/53 315/315 319/319
f 103/103 102/102 289/289
f 289/289 293/293 103/103
f 106/106 103/103 293/293
f 293/293 295/295 106/106
f 112/112 111/111 297/297
f 297/297 299/299 112/112
f 115/115 112/112 299/299
f 299/299 301/301 115/115
f 118/118 115/115 301/301
f 301/301 303/303 118/118
f 121/121 118/118 303/303
f 303/303 305/305 121/121
f 124/124 121/121 305/305
f 305/305 307/307 124/124
f 127/127 124/124 307/307
f 307/307 309/309 127/127
f 145/145 322/322 320/320
f 320/320 146/146 145/145
f 146/146 320/320 318/318
f 318/318 140/140 146/146
f 137/137 127/127 309/309
f 309/309 311/311 137/137
f 111/111 106/106 295/295
f 295/295 297/297 111/111
f 147/147 137/137 311/311
f 311/311 313/313 147/147
f 163/163 329/329 326/326
f 326/326 164/164 163/163
f 164/164 326/326 325/325
f 325/325 167/167 164/164
f 289/289 102/102 161/161
f 161/161 290/290 289/289
f 332/332 330/330 170/170
f 170/170 169/169 332/332
f 141/141 140/140 318/318
f 318/318 314/314 141/141
f 184/184 183/183 334/334
f 334/334 337/337 184/184
f 186/186 184/184 337/337
f 337/337 341/341 186/186
f 190/190 189/189 343/343
f 343/343 345/345 190/190
f 192/192 190/190 345/345
f 345/345 347/347 192/192
f 194/194 192/192 347/347
f 347/347 349/349 194/194
f 196/196 194/194 349/349
f 349/349 351/351 196/196
f 198/198 196/196 351/351
f 351/351 353/353 198/198
f 200/200 198/198 353/353
f 353/353 355/355 200/200
f 211/211 362/362 360/360
f 360/360 212/212 211/211
f 212/212 360/360 316/316
f 316/316 207/207 212/212
f 206/206 200/200 355/355
f 355/355 357/357 206/206
f 189/189 186/186 341/341
f 341/341 343/343 189/189
f 213/213 206/206 357/357
f 357/357 359/359 213/213
f 222/222 368/368 366/366
f 366/366 223/223 222/222
f 223/223 366/366 365/365
f 365/365 226/226 223/223
f 334/334 183/183 221/221
f 221/221 338/338 334/334
f 333/333 370/370 229/229
f 229/229 228/228 333/333
f 53/53 207/207 316/316
f 316/316 315/315 53/53
f 335/335 243/243 242/242
f 242/242 336/336 335/335
f 336/336 242/242 245/245
f 245/245 340/340 336/336
f 342/342 249/249 248/248
f 248/248 344/344 342/342
f 344/344 248/248 251/251
f 251/251 346/346 344/344
f 346/346 251/251 253/253
f 253/253 348/348 346/346
f 348/348 253/253 255/255
f 255/255 350/350 348/348
f 350/350 255/255 257/257
f 257/257 352/352 350/350
f 352/352 257/257 259/259
f 259/259 354/354 352/352
f 361/361 363/363 270/270
f 270/270 271/271 361/361
f 317/317 361/361 271/271
f 271/271 266/266 317/317
f 354/354 259/259 265/265
f 265/265 356/356 354/354
f 340/340 245/245 249/249
f 249/249 342/342 340/340
f 356/356 265/265 273/273
f 273/273 358/358 356/356
f 367/367 369/369 281/281
f 281/281 284/284 367/367
f 364/364 367/367 284/284
f 284/284 286/286 364/364
f 279/279 243/243 335/335
f 335/335 339/339 279/279
f 169/169 287/287 371/371
f 371/371 332/332 169/169
f 317/317 266/266 141/141
f 141/141 314/314 317/317
f 78/78 72/72 328/328
f 328/328 331/331 78/78
f 329/329 163/163 170/170
f 170/170 330/330 329/329
f 287/287 281/281 369/369
f 369/369 371/371 287/287
f 368/368 222/222 229/229
f 229/229 370/370 368/368
f 375/375 372/372 373/373
f 373/373 374/374 375/375
f 377/377 375/375 374/374
f 374/374 376/376 377/377
f 379/379 377/377 376/376
f 376/376 378/378 379/379
f 381/381 379/379 378/378
f 378/378 380/380 381/381
f 383/383 381/381 380/380
f 380/380 382/382 383/383
f 387/387 384/384 385/385
f 385/385 386/386 387/387
f 391/391 388/388 389/389
f 389/389 390/390 391/391
f 393/393 391/391 390/390
f 390/390 392/392 393/393
f 390/390 389/389 394/394
f 394/394 395/395 390/390
f 392/392 390/390 395/395
f 395/395 396/396 392/392
f 395/395 394/394 397/397
f 397/397 398/398 395/395
f 396/396 395/395 398/398
f 398/398 399/399 396/396
f 398/398 397/397 400/400
f 400/400 401/401 398/398
f 399/399 398/398 401/401
f 401/401 402/402 399/399
f 401/401 400/400 403/403
f 403/403 404/404 401/401
f 402/402 401/401 404/404
f 404/404 405/405 402/402
f 409/409 406/406 407/407
f 407/407 408/408 409/409
f 411/411 409/409 408/408
f 408/408 410/410 411/411
f 386/386 385/385 412/412
f 412/412 413/413 386/386
f 382/382 380/380 414/414
f 414/414 415/415 382/382
f 380/380 378/378 416/416
f 416/416 414/414 380/380
f 378/378 376/376 417/417
f 417/417 416/416 378/378
f 376/376 374/374 418/418
f 418/418 417/417 376/376
f 374/374 373/373 419/419
f 419/419 418/418 374/374
f 421/421 420/420 372/372
f 372/372 375/375 421/421
f 422/422 421/421 375/375
f 375/375 377/377 422/422
f 423/423 422/422 377/377
f 377/377 379/379 423/423
f 424/424 423/423 379/379
f 379/379 381/381 424/424
f 425/425 424/424 381/381
f 381/381 383/383 425/425
f 427/427 426/426 384/384
f 384/384 387/387 427/427
f 431/431 428/428 429/429
f 429/429 430/430 431/431
f 435/435 432/432 433/433
f 433/433 434/434 435/435
f 432/432 436/436 437/437
f 437/437 433/433 432/432
f 436/436 438/438 439/439
f 439/439 437/437 436/436
f 438/438 440/440 441/441
f 441/441 439/439 438/438
f 440/440 442/442 443/443
f 443/443 441/441 440/440
f 445/445 444/444 411/411
f 411/411 410/410 445/445
f 447/447 446/446 402/402
f 402/402 405/405 447/447
f 446/446 448/448 399/399
f 399/399 402/402 446/446
f 448/448 449/449 396/396
f 396/396 399/399 448/448
f 449/449 450/450 392/392
f 392/392 396/396 449/449
f 450/450 451/451 393/393
f 393/393 392/392 450/450
f 413/413 412/412 428/428
f 428/428 431/431 413/413
f 445/445 430/430 429/429
f 429/429 444/444 445/445
f 415/415 414/414 432/432
f 432/432 435/435 415/415
f 446/446 447/447 434/434
f 434/434 433/433 446/446
f 414/414 416/416 436/436
f 436/436 432/432 414/414
f 448/448 446/446 433/433
f 433/433 437/437 448/448
f 416/416 417/417 438/438
f 438/438 436/436 416/416
f 449/449 448/448 437/437
f 437/437 439/439 449/449
f 417/417 418/418 440/440
f 440/440 438/438 417/417
f 450/450 449/449 439/439
f 439/439 441/441 450/450
f 418/418 419/419 442/442
f 442/442 440/440 418/418
f 451/451 450/450 441/441
f 441/441 443/443 451/451
f 455/455 452/452 453/453
f 453/453 454/454 455/455
f 452/452 456/456 457/457
f 457/457 453/453 452/452
f 461/461 458/458 459/459
f 459/459 460/460 461/461
f 465/465 462/462 463/463
f 463/463 464/464 465/465
f 462/462 466/466 467/467
f 467/467 463/463 462/462
f 456/456 468/468 469/469
f 469/469 457/457 456/456
f 431/431 430/430 445/445
f 445/445 413/413 431/431
f 471/471 465/465 464/464
f 464/464 470/470 471/471
f 473/473 472/472 458/458
f 458/458 461/461 473/473
f 386/386 474/474 468/468
f 468/468 456/456 386/386
f 387/387 386/386 456/456
f 456/456 452/452 387/387
f 427/427 387/387 452/452
f 452/452 455/455 427/427
f 478/478 475/475 476/476
f 476/476 477/477 478/478
f 482/482 479/479 480/480
f 480/480 481/481 482/482
f 484/484 461/461 460/460
f 460/460 483/483 484/484
f 485/485 413/413 482/482
f 482/482 481/481 485/485
f 468/468 486/486 487/487
f 487/487 469/469 468/468
f 488/488 473/473 461/461
f 461/461 484/484 488/488
f 468/468 474/474 489/489
f 489/489 486/486 468/468
f 475/475 488/488 484/484
f 484/484 476/476 475/475
f 489/489 490/490 491/491
f 491/491 486/486 489/489
f 486/486 491/491 492/492
f 492/492 487/487 486/486
f 483/483 493/493 476/476
f 476/476 484/484 483/483
f 497/497 494/494 495/495
f 495/495 496/496 497/497
f 499/499 497/497 496/496
f 496/496 498/498 499/499
f 466/466 500/500 501/501
f 501/501 467/467 466/466
f 445/445 410/410 495/495
f 495/495 494/494 445/445
f 410/410 408/408 502/502
f 502/502 495/495 410/410
f 408/408 407/407 503/503
f 503/503 502/502 408/408
f 507/507 504/504 505/505
f 505/505 506/506 507/507
f 507/507 506/506 503/503
f 503/503 407/407 507/507
f 509/509 508/508 500/500
f 500/500 466/466 509/509
f 498/498 509/509 466/466
f 466/466 462/462 498/498
f 499/499 498/498 462/462
f 462/462 465/465 499/499
f 510/510 499/499 465/465
f 465/465 471/471 510/510
f 496/496 495/495 502/502
f 502/502 511/511 496/496
f 498/498 496/496 511/511
f 511/511 509/509 498/498
f 511/511 502/502 503/503
f 503/503 512/512 511/511
f 509/509 511/511 512/512
f 512/512 508/508 509/509
f 512/512 503/503 506/506
f 506/506 513/513 512/512
f 508/508 512/512 513/513
f 513/513 500/500 508/508
f 514/514 501/501 500/500
f 500/500 513/513 514/514
f 505/505 514/514 513/513
f 513/513 506/506 505/505
f 472/472 510/510 471/471
f 471/471 458/458 472/472
f 471/471 470/470 459/459
f 459/459 458/458 471/471
f 485/485 481/481 489/489
f 489/489 474/474 485/485
f 481/481 480/480 490/490
f 490/490 489/489 481/481
f 386/386 413/413 485/485
f 485/485 474/474 386/386
f 510/510 494/494 497/497
f 497/497 499/499 510/510
f 472/472 445/445 494/494
f 494/494 510/510 472/472
f 413/413 445/445 472/472
f 472/472 473/473 413/413
f 482/482 413/413 473/473
f 473/473 488/488 482/482
f 479/479 482/482 488/488
f 488/488 475/475 479/479
f 491/491 515/515 516/516
f 516/516 492/492 491/491
f 480/480 479/479 475/475
f 475/475 478/478 480/480
f 490/490 517/517 515/515
f 515/515 491/491 490/490
f 480/480 478/478 517/517
f 517/517 490/490 480/480
f 477/477 476/476 493/493
f 493/493 518/518 477/477
f 519/519 517/517 478/478
f 478/478 477/477 519/519
f 521/521 520/520 516/516
f 516/516 515/515 521/521
f 521/521 515/515 517/517
f 517/517 519/519 521/521
f 477/477 518/518 522/522
f 522/522 519/519 477/477
f 519/519 522/522 520/520
f 520/520 521/521 519/519
f 373/373 372/372 523/523
f 523/523 524/524 373/373
f 524/524 523/523 525/525
f 525/525 526/526 524/524
f 526/526 525/525 527/527
f 527/527 528/528 526/526
f 528/528 527/527 529/529
f 529/529 530/530 528/528
f 530/530 529/529 531/531
f 531/531 532/532 530/530
f 536/536 533/533 534/534
f 534/534 535/535 536/536
f 538/538 388/388 391/391
f 391/391 537/537 538/538
f 537/537 391/391 393/393
f 393/393 539/539 537/537
f 541/541 538/538 537/537
f 537/537 540/540 541/541
f 540/540 537/537 539/539
f 539/539 542/542 540/540
f 544/544 541/541 540/540
f 540/540 543/543 544/544
f 543/543 540/540 542/542
f 542/542 545/545 543/543
f 547/547 544/544 543/543
f 543/543 546/546 547/547
f 546/546 543/543 545/545
f 545/545 548/548 546/546
f 550/550 547/547 546/546
f 546/546 549/549 550/550
f 549/549 546/546 548/548
f 548/548 551/551 549/549
f 555/555 552/552 553/553
f 553/553 554/554 555/555
f 554/554 553/553 556/556
f 556/556 557/557 554/554
f 559/559 536/536 535/535
f 535/535 558/558 559/559
f 561/561 530/530 532/532
f 532/532 560/560 561/561
f 562/562 528/528 530/530
f 530/530 561/561 562/562
f 563/563 526/526 528/528
f 528/528 562/562 563/563
f 564/564 524/524 526/526
f 526/526 563/563 564/564
f 419/419 373/373 524/524
f 524/524 564/564 419/419
f 372/372 420/420 565/565
f 565/565 523/523 372/372
f 523/523 565/565 566/566
f 566/566 525/525 523/523
f 525/525 566/566 567/567
f 567/567 527/527 525/525
f 527/527 567/567 568/568
f 568/568 529/529 527/527
f 529/529 568/568 569/569
f 569/569 531/531 529/529
f 533/533 570/570 571/571
f 571/571 534/534 533/533
f 575/575 572/572 573/573
f 573/573 574/574 575/575
f 579/579 576/576 577/577
f 577/577 578/578 579/579
f 581/581 580/580 576/576
f 576/576 579/579 581/581
f 583/583 582/582 580/580
f 580/580 581/581 583/583
f 585/585 584/584 582/582
f 582/582 583/583 585/585
f 443/443 442/442 584/584
f 584/584 585/585 443/443
f 556/556 586/586 587/587
f 587/587 557/557 556/556
f 548/548 588/588 589/589
f 589/589 551/551 548/548
f 545/545 590/590 588/588
f 588/588 548/548 545/545
f 542/542 591/591 590/590
f 590/590 545/545 542/542
f 539/539 592/592 591/591
f 591/591 542/542 539/539
f 393/393 451/451 592/592
f 592/592 539/539 393/393
f 572/572 559/559 558/558
f 558/558 573/573 572/572
f 575/575 574/574 587/587
f 587/587 586/586 575/575
f 576/576 561/561 560/560
f 560/560 577/577 576/576
f 578/578 589/589 588/588
f 588/588 579/579 578/578
f 580/580 562/562 561/561
f 561/561 576/576 580/580
f 579/579 588/588 590/590
f 590/590 581/581 579/579
f 582/582 563/563 562/562
f 562/562 580/580 582/582
f 581/581 590/590 591/591
f 591/591 583/583 581/581
f 584/584 564/564 563/563
f 563/563 582/582 584/584
f 583/583 591/591 592/592
f 592/592 585/585 583/583
f 442/442 419/419 564/564
f 564/564 584/584 442/442
f 585/585 592/592 451/451
f 451/451 443/443 585/585
f 453/453 593/593 594/594
f 594/594 454/454 453/453
f 457/457 595/595 593/593
f 593/593 453/453 457/457
f 459/459 596/596 597/597
f 597/597 460/460 459/459
f 463/463 598/598 599/599
f 599/599 464/464 463/463
f 467/467 600/600 598/598
f 598/598 463/463 467/467
f 469/469 601/601 595/595
f 595/595 457/457 469/469
f 587/587 574/574 573/573
f 573/573 558/558 587/587
f 464/464 599/599 602/602
f 602/602 470/470 464/464
f 596/596 603/603 604/604
f 604/604 597/597 596/596
f 601/601 605/605 535/535
f 535/535 595/595 601/601
f 595/595 535/535 534/534
f 534/534 593/593 595/595
f 593/593 534/534 571/571
f 571/571 594/594 593/593
f 609/609 606/606 607/607
f 607/607 608/608 609/609
f 613/613 610/610 611/611
f 611/611 612/612 613/613
f 460/460 597/597 614/614
f 614/614 483/483 460/460
f 611/611 558/558 615/615
f 615/615 612/612 611/611
f 487/487 616/616 601/601
f 601/601 469/469 487/487
f 597/597 604/604 617/617
f 617/617 614/614 597/597
f 618/618 605/605 601/601
f 601/601 616/616 618/618
f 614/614 617/617 606/606
f 606/606 609/609 614/614
f 620/620 619/619 618/618
f 618/618 616/616 620/620
f 492/492 620/620 616/616
f 616/616 487/487 492/492
f 609/609 493/493 483/483
f 483/483 614/614 609/609
f 624/624 621/621 622/622
f 622/622 623/623 624/624
f 623/623 622/622 625/625
f 625/625 626/626 623/623
f 501/501 627/627 600/600
f 600/600 467/467 501/501
f 624/624 557/557 587/587
f 587/587 621/621 624/624
f 628/628 554/554 557/557
f 557/557 624/624 628/628
f 629/629 555/555 554/554
f 554/554 628/628 629/629
f 505/505 504/504 630/630
f 630/630 631/631 505/505
f 629/629 631/631 630/630
f 630/630 555/555 629/629
f 627/627 632/632 633/633
f 633/633 600/600 627/627
f 600/600 633/633 626/626
f 626/626 598/598 600/600
f 598/598 626/626 625/625
f 625/625 599/599 598/598
f 599/599 625/625 634/634
f 634/634 602/602 599/599
f 628/628 624/624 623/623
f 623/623 635/635 628/628
f 635/635 623/623 626/626
f 626/626 633/633 635/635
f 629/629 628/628 635/635
f 635/635 636/636 629/629
f 636/636 635/635 633/633
f 633/633 632/632 636/636
f 631/631 629/629 636/636
f 636/636 637/637 631/631
f 637/637 636/636 632/632
f 632/632 627/627 637/637
f 627/627 501/501 514/514
f 514/514 637/637 627/627
f 637/637 514/514 505/505
f 505/505 631/631 637/637
f 602/602 634/634 603/603
f 603/603 596/596 602/602
f 459/459 470/470 602/602
f 602/602 596/596 459/459
f 618/618 612/612 615/615
f 615/615 605/605 618/618
f 619/619 613/613 612/612
f 612/612 618/618 619/619
f 615/615 558/558 535/535
f 535/535 605/605 615/615
f 622/622 621/621 634/634
f 634/634 625/625 622/622
f 621/621 587/587 603/603
f 603/603 634/634 621/621
f 603/603 587/587 558/558
f 558/558 604/604 603/603
f 604/604 558/558 611/611
f 611/611 617/617 604/604
f 617/617 611/611 610/610
f 610/610 606/606 617/617
f 516/516 638/638 620/620
f 620/620 492/492 516/516
f 606/606 610/610 613/613
f 613/613 607/607 606/606
f 638/638 639/639 619/619
f 619/619 620/620 638/638
f 639/639 607/607 613/613
f 613/613 619/619 639/639
f 493/493 609/609 608/608
f 608/608 518/518 493/493
f 607/607 639/639 640/640
f 640/640 608/608 607/607
f 516/516 520/520 641/641
f 641/641 638/638 516/516
f 639/639 638/638 641/641
f 641/641 640/640 639/639
f 522/522 518/518 608/608
f 608/608 640/640 522/522
f 520/520 522/522 640/640
f 640/640 641/641 520/520
f 643/643 389/389 388/388
f 388/388 642/642 643/643
f 644/644 394/394 389/389
f 389/389 643/643 644/644
f 645/645 397/397 394/394
f 394/394 644/644 645/645
f 646/646 400/400 397/397
f 397/397 645/645 646/646
f 647/647 403/403 400/400
f 400/400 646/646 647/647
f 649/649 504/504 507/507
f 507/507 648/648 649/649
f 651/651 407/407 406/406
f 406/406 650/650 651/651
f 648/648 507/507 407/407
f 407/407 651/651 648/648
f 642/642 388/388 538/538
f 538/538 652/652 642/642
f 652/652 538/538 541/541
f 541/541 653/653 652/652
f 653/653 541/541 544/544
f 544/544 654/654 653/653
f 654/654 544/544 547/547
f 547/547 655/655 654/654
f 655/655 547/547 550/550
f 550/550 656/656 655/655
f 657/657 630/630 504/504
f 504/504 649/649 657/657
f 659/659 552/552 555/555
f 555/555 658/658 659/659
f 658/658 555/555 630/630
f 630/630 657/657 658/658
f 651/651 650/650 660/660
f 660/660 648/648 651/651
f 648/648 660/660 661/661
f 661/661 649/649 648/648
f 657/657 649/649 661/661
f 661/661 662/662 657/657
f 653/653 654/654 663/663
f 663/663 652/652 653/653
f 644/644 643/643 664/664
f 664/664 645/645 644/644
f 646/646 645/645 664/664
f 664/664 665/665 646/646
f 647/647 646/646 665/665
f 665/665 666/666 647/647
f 664/664 643/643 642/642
f 642/642 667/667 664/664
f 665/665 664/664 667/667
f 667/667 668/668 665/665
f 666/666 665/665 668/668
f 668/668 669/669 666/666
f 652/652 663/663 667/667
f 667/667 642/642 652/652
f 663/663 670/670 668/668
f 668/668 667/667 663/663
f 670/670 671/671 669/669
f 669/669 668/668 670/670
f 654/654 655/655 670/670
f 670/670 663/663 654/654
f 655/655 656/656 671/671
f 671/671 670/670 655/655
f 658/658 657/657 662/662
f 662/662 659/659 658/658

