# Counter Duty prepared asset
mtllib mustard.mtl
usemtl Product_mustard
v 0.00000063 0.19157622 -0.02563765
v 0.00000063 0.19157622 -0.02330474
v -0.01194579 0.19157622 -0.01980076
v -0.01314457 0.19157622 -0.02178196
v -0.02198481 0.19157622 -0.01294166
v -0.01997997 0.19157622 -0.01176664
v -0.02218903 0.19157622 -0.00000460
v -0.02441520 0.19157622 0.00000066
v 0.01314450 0.19157622 -0.02178196
v 0.01194579 0.19157622 -0.01980076
v -0.01960058 0.19157622 0.01147159
v -0.02156726 0.19157622 0.01262949
v -0.01314457 0.19157622 0.02219957
v -0.01194579 0.19157622 0.02016962
v 0.00000063 0.19157622 0.02318620
v 0.00000063 0.19157622 0.02551780
v 0.02441520 0.19157622 0.00000066
v 0.02218903 0.19157622 -0.00000460
v 0.01997989 0.19157622 -0.01176664
v 0.02198481 0.19157622 -0.01294166
v 0.01194579 0.19157622 0.02016962
v 0.01314450 0.19157622 0.02219957
v 0.02156726 0.19157622 0.01262949
v 0.01960050 0.19157622 0.01147159
v 0.00000063 0.17534542 -0.02211128
v -0.01105533 0.17534542 -0.01914871
v -0.01314457 0.17534542 -0.02178196
v 0.00000063 0.17534542 -0.02563765
v -0.01915005 0.17534542 -0.01105531
v -0.02211263 0.17534542 0.00000066
v -0.02441520 0.17534542 0.00000066
v -0.02198481 0.17534542 -0.01294166
v 0.01105659 0.17534542 -0.01914871
v 0.01314450 0.17534542 -0.02178196
v -0.01915005 0.17534542 0.01105665
v -0.02156726 0.17534542 0.01262948
v -0.01105533 0.17534542 0.01915005
v 0.00000063 0.17534542 0.02211263
v 0.00000063 0.17534542 0.02551780
v -0.01314457 0.17534542 0.02219956
v 0.02211263 0.17534542 0.00000066
v 0.01915005 0.17534542 -0.01105531
v 0.02198481 0.17534542 -0.01294166
v 0.02441520 0.17534542 0.00000066
v 0.01105659 0.17534542 0.01915005
v 0.01314450 0.17534542 0.02219956
v 0.01915005 0.17534542 0.01105665
v 0.02156726 0.17534542 0.01262948
v -0.01314457 0.19037684 -0.02178196
v 0.00000063 0.19037684 -0.02563765
v -0.02441520 0.19037684 0.00000066
v -0.02198481 0.19037684 -0.01294166
v 0.01314450 0.19037684 -0.02178196
v -0.02156726 0.19037684 0.01262949
v 0.00000063 0.19037684 0.02551780
v -0.01314457 0.19037684 0.02219957
v 0.02198481 0.19037684 -0.01294166
v 0.02441520 0.19037684 0.00000066
v 0.01314450 0.19037684 0.02219957
v 0.02156726 0.19037684 0.01262949
v 0.00000063 0.19037684 -0.02563765
v -0.01314457 0.19037684 -0.02178196
v -0.01194579 0.19037684 -0.01980076
v 0.00000063 0.19037684 -0.02330474
v -0.02198481 0.19037684 -0.01294166
v -0.02441520 0.19037684 0.00000066
v -0.02218903 0.19037684 -0.00000460
v -0.01997997 0.19037684 -0.01176664
v 0.01314450 0.19037684 -0.02178196
v 0.01194579 0.19037684 -0.01980076
v -0.02156726 0.19037684 0.01262949
v -0.01960058 0.19037684 0.01147159
v -0.01314457 0.19037684 0.02219957
v 0.00000063 0.19037684 0.02551780
v 0.00000063 0.19037684 0.02318620
v -0.01194579 0.19037684 0.02016962
v 0.02441520 0.19037684 0.00000066
v 0.02198481 0.19037684 -0.01294166
v 0.01997989 0.19037684 -0.01176664
v 0.02218903 0.19037684 -0.00000460
v 0.01314450 0.19037684 0.02219957
v 0.01194579 0.19037684 0.02016962
v 0.02156726 0.19037684 0.01262949
v 0.01960050 0.19037684 0.01147159
v 0.00000063 0.19791105 -0.02563765
v 0.00000063 0.19157622 -0.02563765
v -0.01314457 0.19157622 -0.02178196
v -0.01314457 0.19791105 -0.02178196
v -0.02198481 0.19791105 -0.01294166
v -0.02198481 0.19157622 -0.01294166
v -0.02441520 0.19157622 0.00000066
v -0.02441520 0.19791105 0.00000066
v 0.01314450 0.19791105 -0.02178196
v 0.01314450 0.19157622 -0.02178196
v -0.02156726 0.19157622 0.01262949
v -0.02156726 0.19791105 0.01262949
v -0.01314457 0.19791105 0.02219957
v -0.01314457 0.19157622 0.02219957
v 0.00000063 0.19157622 0.02551780
v 0.00000063 0.19791105 0.02551780
v 0.02441520 0.19791105 0.00000066
v 0.02441520 0.19157622 0.00000066
v 0.02198481 0.19157622 -0.01294166
v 0.02198481 0.19791105 -0.01294166
v 0.01314450 0.19157622 0.02219957
v 0.01314450 0.19791105 0.02219957
v 0.02156726 0.19791105 0.01262949
v 0.02156726 0.19157622 0.01262949
v 0.00000063 0.20000000 -0.02346018
v 0.00000063 0.19938812 -0.02500009
v -0.01282313 0.19938812 -0.02123792
v -0.01204464 0.20000000 -0.01992722
v -0.02141839 0.19938812 -0.01264263
v -0.02005111 0.20000000 -0.01192076
v -0.02379084 0.19938812 -0.00001119
v -0.02228254 0.20000000 -0.00003885
v -0.02100477 0.19938812 0.01234231
v -0.01964667 0.20000000 0.01164943
v 0.01282313 0.19938812 -0.02123792
v 0.01204456 0.20000000 -0.01992722
v -0.01281127 0.19938812 0.02165290
v -0.01200507 0.20000000 0.02033298
v 0.00000063 0.19938812 0.02488683
v 0.00000063 0.20000000 0.02336404
v 0.01281127 0.19938812 0.02165290
v 0.01200507 0.20000000 0.02033298
v 0.02228254 0.20000000 -0.00003885
v 0.02379084 0.19938812 -0.00001119
v 0.02141839 0.19938812 -0.01264263
v 0.02005103 0.20000000 -0.01192076
v 0.02100477 0.19938812 0.01234231
v 0.01964667 0.20000000 0.01164943
v 0.00857752 0.20000000 0.00508935
v -0.00852617 0.20000000 -0.00502872
v 0.00497864 0.20000000 -0.00883568
v -0.00486016 0.20000000 0.00877247
v -0.01194579 0.19157622 -0.01980076
v 0.00000063 0.19157622 -0.02330474
v 0.00000063 0.19037684 -0.02330474
v -0.01194579 0.19037684 -0.01980076
v 0.01194579 0.19157622 -0.01980076
v 0.01194579 0.19037684 -0.01980076
v 0.01997989 0.19157622 -0.01176664
v 0.01997989 0.19037684 -0.01176664
v 0.02218903 0.19157622 -0.00000460
v 0.02218903 0.19037684 -0.00000460
v 0.01960050 0.19157622 0.01147159
v 0.01960050 0.19037684 0.01147159
v 0.01194579 0.19157622 0.02016962
v 0.01194579 0.19037684 0.02016962
v 0.00000063 0.19157622 0.02318620
v 0.00000063 0.19037684 0.02318620
v -0.01194579 0.19157622 0.02016962
v -0.01194579 0.19037684 0.02016962
v -0.01960058 0.19157622 0.01147159
v -0.01960058 0.19037684 0.01147159
v -0.02218903 0.19157622 -0.00000460
v -0.02218903 0.19037684 -0.00000460
v -0.01997997 0.19157622 -0.01176664
v -0.01997997 0.19037684 -0.01176664
v 0.02350237 0.19497192 -0.00446097
v 0.02409909 0.19497192 -0.00425680
v 0.02410435 0.19466789 -0.00472443
v 0.02333505 0.19466657 -0.00498920
v 0.02419394 0.19497192 -0.00398149
v 0.02468655 0.19465577 -0.00401046
v 0.02451931 0.19465604 -0.00437403
v 0.02509099 0.19128537 -0.00559121
v 0.02470634 0.19129301 -0.00594028
v 0.02284762 0.19125296 -0.00653306
v 0.02475769 0.19074370 -0.00598639
v 0.02282524 0.19071749 -0.00659630
v 0.02569564 0.19128682 -0.00401309
v 0.02574173 0.19075161 -0.00401309
v 0.02512263 0.19074989 -0.00564389
v 0.02473665 0.18223720 -0.00415273
v 0.02432169 0.18223285 -0.00451104
v 0.02329815 0.18222837 -0.00491938
v 0.02433747 0.18187982 -0.00406711
v 0.02347206 0.18187982 -0.00440697
v 0.02479985 0.18222192 -0.00401046
v 0.02432302 0.18187982 -0.00397358
v 0.02363012 0.18187982 -0.00395250
v 0.02454562 0.18223891 -0.00357312
v 0.02376446 0.18225999 -0.00357312
v 0.02543481 0.19075384 -0.00357312
v 0.02378424 0.19459189 -0.00357312
v 0.02443232 0.19461757 -0.00357312
v 0.02366301 0.19497192 -0.00395249
v 0.02537153 0.19129288 -0.00357312
v 0.02377765 0.19075463 -0.00357312
v 0.02377898 0.19129235 -0.00357312
v 0.02350237 0.19497192 0.00446100
v 0.02333505 0.19466657 0.00498924
v 0.02410435 0.19466789 0.00472446
v 0.02409909 0.19497192 0.00425682
v 0.02451931 0.19465604 0.00437538
v 0.02468655 0.19465577 0.00401181
v 0.02419394 0.19497192 0.00398282
v 0.02470634 0.19129301 0.00594162
v 0.02509099 0.19128537 0.00559122
v 0.02284762 0.19125296 0.00653309
v 0.02282524 0.19071748 0.00659763
v 0.02475769 0.19074370 0.00598773
v 0.02512263 0.19074989 0.00564524
v 0.02574173 0.19075161 0.00401312
v 0.02569564 0.19128682 0.00401312
v 0.02432169 0.18223285 0.00451237
v 0.02473665 0.18223720 0.00415408
v 0.02329815 0.18222837 0.00492073
v 0.02347206 0.18187982 0.00440698
v 0.02433747 0.18187982 0.00406844
v 0.02432302 0.18187982 0.00397361
v 0.02479985 0.18222192 0.00401181
v 0.02363012 0.18187982 0.00395384
v 0.02376446 0.18225999 0.00357316
v 0.02454562 0.18223891 0.00357316
v 0.02543481 0.19075384 0.00357316
v 0.02378424 0.19459189 0.00357316
v 0.02366301 0.19497192 0.00395384
v 0.02443232 0.19461757 0.00357316
v 0.02537153 0.19129288 0.00357316
v 0.02377765 0.19075463 0.00357316
v 0.02377898 0.19129235 0.00357316
v 0.02543481 0.19075384 0.00000066
v 0.02377765 0.19075463 0.00000066
v 0.02377898 0.19129235 0.00000066
v 0.02537153 0.19129288 0.00000066
v 0.03423296 0.00485288 -0.02804039
v 0.03811630 0.00164133 -0.02346019
v 0.00000063 0.00060595 -0.02342989
v 0.00000063 0.00448403 -0.02782304
v 0.03528940 0.01568360 -0.03074477
v 0.00000063 0.01568360 -0.03075005
v 0.00000063 0.03124074 -0.03077244
v 0.04003822 0.03124074 -0.03070658
v -0.03528940 0.01568360 0.03074610
v -0.04430755 0.01568360 0.02826828
v -0.03423296 0.00485288 0.02804172
v -0.02811811 0.00915644 0.03021523
v -0.03811630 0.00164132 0.02346151
v 0.00000063 0.00060595 0.02342991
v 0.00000063 0.00448403 0.02782305
v 0.02811811 0.00915644 -0.03021391
v 0.00000063 0.00868881 -0.03021391
v -0.05737368 0.03124074 0.01350678
v -0.05546762 0.03124074 0.02344440
v -0.05556639 0.06263428 0.02342991
v -0.05766875 0.06263428 0.01349889
v -0.05556639 0.09626984 -0.02342989
v -0.04915255 0.09626984 -0.02825774
v -0.04939752 0.06263428 -0.02821427
v -0.05556639 0.06263428 -0.02342989
v -0.05766875 0.06263428 -0.01349888
v -0.05766875 0.09626984 -0.01349888
v 0.00000063 0.00060595 0.01350020
v -0.03834290 0.00000000 0.01352128
v 0.03834290 0.00000000 -0.01351995
v 0.00000063 0.00060595 -0.01349888
v -0.04003822 0.03124074 0.03070659
v -0.04919071 0.03124074 0.02829859
v -0.04033596 0.09626984 -0.03021390
v -0.04089845 0.06263428 -0.03021390
v 0.04430888 0.01568360 -0.02826697
v 0.00000063 0.00868881 0.03021523
v -0.04939627 0.06263428 0.02821428
v 0.05045271 0.01568360 -0.02345492
v 0.03834290 0.00000000 0.00000066
v 0.00000063 0.00060595 0.00000066
v 0.00000063 0.01568360 0.03075138
v -0.05556247 0.11299502 -0.02342989
v -0.04896152 0.11299502 -0.02829067
v 0.00000063 0.06263428 -0.03021390
v 0.04089837 0.06263428 -0.03021390
v -0.05766223 0.11299502 -0.01349888
v -0.05854742 0.06263428 0.00000066
v -0.05854742 0.09626984 0.00000066
v -0.03989862 0.11299502 -0.03021390
v -0.04089845 0.06263428 0.03021523
v 0.04919071 0.03124074 -0.02829858
v 0.00000063 0.03124074 0.03077244
v 0.05195566 0.01568360 -0.01351337
v 0.03811630 0.00164132 0.02346151
v 0.03834290 0.00000000 0.01352128
v -0.05854742 0.11299502 0.00000066
v 0.05253001 0.01568360 0.00000066
v -0.05264331 0.12906563 -0.02341934
v -0.04604637 0.12906563 -0.02833150
v 0.03423296 0.00485288 0.02804172
v 0.05546754 0.03124074 -0.02344306
v -0.03658562 0.12906564 -0.03021390
v -0.05556639 0.09626984 0.02342991
v -0.04915255 0.09626984 0.02825908
v -0.05452440 0.12906563 -0.01346858
v 0.02811811 0.00915644 0.03021523
v 0.00000063 0.00060595 0.00000066
v 0.03834290 0.00000000 0.00000066
v -0.05766875 0.09626984 0.01349889
v -0.05854742 0.09626984 0.00000066
v -0.05854742 0.06263428 0.00000066
v 0.03528940 0.01568360 0.03074610
v 0.00000063 0.09626984 -0.03021390
v -0.05766223 0.11299502 0.01349889
v -0.05854742 0.11299502 0.00000066
v 0.05737368 0.03124074 -0.01350678
v 0.04939752 0.06263428 -0.02821427
v 0.00000063 0.06263428 0.03021523
v -0.04033596 0.09626984 0.03021523
v -0.05547021 0.12906563 0.00000066
v 0.05195566 0.01568360 0.01351469
v 0.05253001 0.01568360 0.00000066
v -0.04581977 0.14206131 -0.02342067
v -0.03856290 0.14206131 -0.02828540
v 0.04003822 0.03124074 0.03070659
v -0.02856730 0.14206131 -0.03021390
v -0.04780890 0.14206131 -0.01346067
v 0.05045271 0.01568360 0.02345625
v -0.05547021 0.12906563 0.00000066
v -0.05452440 0.12906563 0.01346859
v -0.05556247 0.11299502 0.02343123
v 0.05811660 0.03124074 0.00000066
v 0.05556639 0.06263428 -0.02342989
v 0.04430888 0.01568360 0.02826828
v -0.04896152 0.11299502 0.02829200
v -0.04875338 0.14206131 0.00000066
v 0.05766875 0.06263428 -0.01349888
v -0.05264331 0.12906563 0.02342069
v 0.05737368 0.03124074 0.01350678
v 0.05811660 0.03124074 0.00000066
v -0.03989862 0.11299502 0.03021523
v -0.04875338 0.14206131 0.00000066
v -0.04780890 0.14206131 0.01346201
v 0.04089837 0.06263428 0.03021523
v -0.02225749 0.16465842 -0.02346018
v -0.02060567 0.16006570 -0.02802326
v -0.01821744 0.15329249 -0.03021390
v 0.05854742 0.06263428 0.00000066
v 0.04919071 0.03124074 0.02829859
v -0.04604637 0.12906563 0.02833285
v 0.04915255 0.09626984 -0.02825774
v 0.04033596 0.09626984 -0.03021390
v 0.05546754 0.03124074 0.02344440
v -0.02307029 0.16650605 -0.01353049
v 0.00000063 0.11299502 -0.03021390
v -0.04581977 0.14206131 0.02342069
v -0.03658562 0.12906563 0.03021523
v 0.05556639 0.09626984 -0.02342989
v -0.02318092 0.16671260 0.00000066
v 0.05766875 0.06263428 0.01349889
v 0.05854742 0.06263428 0.00000066
v -0.03856290 0.14206131 0.02828542
v 0.04939752 0.06263428 0.02821428
v -0.02318092 0.16671260 0.00000066
v -0.02307029 0.16650604 0.01353050
v 0.00000063 0.15990105 -0.02791525
v 0.00000063 0.15362405 -0.03021390
v 0.05556639 0.06263428 0.02342991
v 0.04896152 0.11299502 -0.02829067
v 0.03989862 0.11299502 -0.03021390
v -0.02856730 0.14206131 0.03021524
v 0.00000063 0.16465842 -0.02342988
v 0.00000063 0.12906564 -0.03021390
v -0.02225749 0.16465842 0.02346020
v 0.05556239 0.11299502 -0.02342989
v 0.01821736 0.15329249 -0.03021390
v 0.02060559 0.16006570 -0.02802326
v -0.01915005 0.16654385 -0.01105531
v -0.02211263 0.16671260 0.00000066
v 0.04604637 0.12906563 -0.02833150
v 0.03658562 0.12906564 -0.03021390
v 0.05766875 0.09626984 -0.01349888
v 0.05766215 0.11299502 -0.01349888
v -0.02060567 0.16006570 0.02802328
v 0.02225749 0.16465842 -0.02346018
v 0.02856864 0.14206131 -0.03021390
v 0.03856282 0.14206131 -0.02828540
v 0.05264331 0.12906563 -0.02341934
v -0.01821744 0.15329249 0.03021524
v 0.04915255 0.09626984 0.02825908
v 0.04033596 0.09626984 0.03021523
v 0.05854742 0.09626984 0.00000066
v 0.05854742 0.11299502 0.00000066
v 0.05556639 0.09626984 0.02342991
v 0.04581977 0.14206131 -0.02342067
v 0.05452440 0.12906563 -0.01346858
v 0.00000063 0.14206131 -0.03021390
v 0.00000063 0.09626984 0.03021523
v -0.01915005 0.16654385 0.01105665
v -0.02211263 0.16671260 0.00000066
v 0.04780890 0.14206131 -0.01346067
v 0.02307029 0.16650605 -0.01353049
v 0.05766215 0.11299502 0.01349889
v 0.05766875 0.09626984 0.01349889
v 0.05854742 0.09626984 0.00000066
v 0.05854742 0.11299502 0.00000066
v 0.05547021 0.12906563 0.00000066
v 0.01105659 0.16545762 -0.01914871
v 0.01915005 0.16654385 -0.01105531
v 0.00000063 0.15990104 0.02791526
v 0.00000063 0.15362405 0.03021524
v 0.00000063 0.16465842 0.02342991
v 0.04896152 0.11299502 0.02829200
v 0.03989862 0.11299502 0.03021523
v 0.05556239 0.11299502 0.02343123
v 0.04875338 0.14206131 0.00000066
v 0.05547021 0.12906563 0.00000066
v 0.05452440 0.12906563 0.01346859
v 0.02318092 0.16671260 0.00000066
v 0.04875338 0.14206131 0.00000066
v 0.04780890 0.14206131 0.01346201
v 0.05264331 0.12906563 0.02342069
v 0.01821736 0.15329249 0.03021524
v 0.02060559 0.16006570 0.02802328
v 0.04604637 0.12906563 0.02833285
v 0.03658562 0.12906563 0.03021523
v 0.02318092 0.16671260 0.00000066
v 0.02307029 0.16650604 0.01353050
v 0.02225749 0.16465842 0.02346020
v 0.01915005 0.16654385 0.01105665
v 0.02211263 0.16671260 0.00000066
v 0.04581977 0.14206131 0.02342069
v 0.03856282 0.14206131 0.02828542
v 0.02856864 0.14206131 0.03021524
v 0.00000063 0.11299502 0.03021523
v 0.00000063 0.12906563 0.03021523
v 0.00000063 0.14206131 0.03021524
v 0.00000063 0.16490357 -0.02211128
v -0.05045271 0.01568360 0.02345625
v -0.05811535 0.03124074 0.00000066
v -0.04003822 0.03124074 -0.03070658
v -0.05811535 0.03124074 0.00000066
v -0.05737368 0.03124074 -0.01350678
v -0.05195441 0.01568360 0.01351469
v -0.05546762 0.03124074 -0.02344306
v -0.03528940 0.01568360 -0.03074477
v -0.03834290 0.00000000 0.00000066
v -0.04919071 0.03124074 -0.02829858
v -0.05253009 0.01568360 0.00000066
v -0.02811811 0.00915644 -0.03021391
v -0.03423296 0.00485288 -0.02804039
v -0.03811630 0.00164133 -0.02346019
v -0.03834290 0.00000000 -0.01351995
v -0.05253009 0.01568360 0.00000066
v -0.05195441 0.01568360 -0.01351337
v -0.03834290 0.00000000 0.00000066
v -0.05045271 0.01568360 -0.02345492
v -0.04430755 0.01568360 -0.02826697
v -0.01105533 0.16545762 0.01915005
v 0.00000063 0.16490356 0.02211263
v 0.01105659 0.16545762 0.01915005
v 0.02211263 0.16671260 0.00000066
v -0.01105533 0.16545762 -0.01914871
v 0.00000063 0.16490357 -0.02211128
v -0.01105533 0.16545762 -0.01914871
v -0.01105533 0.17106082 -0.01914871
v 0.00000063 0.17106082 -0.02211128
v -0.01915005 0.16654385 -0.01105531
v -0.02211263 0.16671260 0.00000066
v -0.02211263 0.17106095 0.00000066
v -0.01915005 0.17106095 -0.01105531
v 0.01105659 0.16545762 -0.01914871
v 0.01105659 0.17106082 -0.01914871
v -0.01915005 0.16654385 0.01105665
v -0.01915005 0.17106095 0.01105665
v -0.01105533 0.16545762 0.01915005
v 0.00000063 0.16490356 0.02211263
v 0.00000063 0.17106082 0.02211263
v -0.01105533 0.17106082 0.01915005
v 0.02211263 0.16671260 0.00000066
v 0.01915005 0.16654385 -0.01105531
v 0.01915005 0.17106095 -0.01105531
v 0.02211263 0.17106095 0.00000066
v 0.01105659 0.16545762 0.01915005
v 0.01105659 0.17106082 0.01915005
v 0.01915005 0.16654385 0.01105665
v 0.01915005 0.17106095 0.01105665
v 0.00000063 0.17106082 -0.02211128
v -0.01105533 0.17106082 -0.01914871
v -0.01314457 0.17106082 -0.02178196
v 0.00000063 0.17106082 -0.02563765
v -0.01915005 0.17106095 -0.01105531
v -0.02211263 0.17106095 0.00000066
v -0.02441520 0.17106095 0.00000066
v -0.02198481 0.17106095 -0.01294166
v 0.01105659 0.17106082 -0.01914871
v 0.01314450 0.17106082 -0.02178196
v -0.01915005 0.17106095 0.01105665
v -0.02156726 0.17106095 0.01262948
v -0.01105533 0.17106082 0.01915005
v 0.00000063 0.17106082 0.02211263
v 0.00000063 0.17106082 0.02551780
v -0.01314457 0.17106082 0.02219956
v 0.02211263 0.17106095 0.00000066
v 0.01915005 0.17106095 -0.01105531
v 0.02198481 0.17106095 -0.01294166
v 0.02441520 0.17106095 0.00000066
v 0.01105659 0.17106082 0.01915005
v 0.01314450 0.17106082 0.02219956
v 0.01915005 0.17106095 0.01105665
v 0.02156726 0.17106095 0.01262948
v 0.00000063 0.17106082 -0.02563765
v -0.01314457 0.17106082 -0.02178196
v -0.01314457 0.17445534 -0.02178196
v 0.00000063 0.17445534 -0.02563765
v -0.02198481 0.17106095 -0.01294166
v -0.02441520 0.17106095 0.00000066
v -0.02441520 0.17445534 0.00000066
v -0.02198481 0.17445534 -0.01294166
v 0.01314450 0.17106082 -0.02178196
v 0.01314450 0.17445534 -0.02178196
v -0.02156726 0.17106095 0.01262948
v -0.02156726 0.17445534 0.01262948
v -0.01314457 0.17106082 0.02219956
v 0.00000063 0.17106082 0.02551780
v 0.00000063 0.17445534 0.02551780
v -0.01314457 0.17445534 0.02219956
v 0.02441520 0.17106095 0.00000066
v 0.02198481 0.17106095 -0.01294166
v 0.02198481 0.17445534 -0.01294166
v 0.02441520 0.17445534 0.00000066
v 0.01314450 0.17106082 0.02219956
v 0.01314450 0.17445534 0.02219956
v 0.02156726 0.17106095 0.01262948
v 0.02156726 0.17445534 0.01262948
v 0.00000063 0.17445534 -0.02563765
v -0.01314457 0.17445534 -0.02178196
v -0.01178773 0.17445534 -0.01953862
v 0.00000063 0.17445534 -0.02299650
v -0.02198481 0.17445534 -0.01294166
v -0.02441520 0.17445534 0.00000066
v -0.02189530 0.17445534 -0.00000591
v -0.01971513 0.17445534 -0.01161120
v 0.01314450 0.17445534 -0.02178196
v 0.01178773 0.17445534 -0.01953862
v -0.02156726 0.17445534 0.01262948
v -0.01933975 0.17445534 0.01131879
v -0.01314457 0.17445534 0.02219956
v 0.00000063 0.17445534 0.02551780
v 0.00000063 0.17445534 0.02287665
v -0.01178773 0.17445534 0.01990222
v 0.02441520 0.17445534 0.00000066
v 0.02198481 0.17445534 -0.01294166
v 0.01971513 0.17445534 -0.01161120
v 0.02189522 0.17445534 -0.00000591
v 0.01314450 0.17445534 0.02219956
v 0.01178773 0.17445534 0.01990222
v 0.02156726 0.17445534 0.01262948
v 0.01934100 0.17445534 0.01131879
v -0.01178773 0.17732517 -0.01953862
v 0.00000063 0.17732517 -0.02299650
v -0.02189530 0.17732530 -0.00000591
v -0.01971513 0.17732530 -0.01161120
v 0.01178773 0.17732517 -0.01953862
v -0.01933975 0.17732530 0.01131879
v 0.00000063 0.17732517 0.02287665
v -0.01178773 0.17732517 0.01990222
v 0.01971513 0.17732530 -0.01161120
v 0.02189522 0.17732530 -0.00000591
v 0.01178773 0.17732517 0.01990222
v 0.01934100 0.17732530 0.01131879
vt 0.39576101 0.12420398
vt 0.39422899 0.13099098
vt 0.42668799 0.14903700
vt 0.43147701 0.14406103
vt 0.45139101 0.17559201
vt 0.44478601 0.17769301
vt 0.44348601 0.21336901
vt 0.44996101 0.21484798
vt 0.35497901 0.12678802
vt 0.35716501 0.13333899
vt 0.42841199 0.24506402
vt 0.43337399 0.24972302
vt 0.40257901 0.27203900
vt 0.40042499 0.26534498
vt 0.36368200 0.26626998
vt 0.36214900 0.27305698
vt 0.30787101 0.18276298
vt 0.31435299 0.18421000
vt 0.32850900 0.15143698
vt 0.32344800 0.14670199
vt 0.33090201 0.24964601
vt 0.32608101 0.25476497
vt 0.30786201 0.22138101
vt 0.31434500 0.21930701
vt 0.48088500 0.28772700
vt 0.51330501 0.28669602
vt 0.51681697 0.27776301
vt 0.47803101 0.27822798
vt 0.54188001 0.30200499
vt 0.55947900 0.32952100
vt 0.56591499 0.32764900
vt 0.54777199 0.29464602
vt 0.45326900 0.30471802
vt 0.44548801 0.29918498
vt 0.55983400 0.36211401
vt 0.56764197 0.36459202
vt 0.54393202 0.39031702
vt 0.51631498 0.40724802
vt 0.51904899 0.41659802
vt 0.55185503 0.39684403
vt 0.43813401 0.36539698
vt 0.43772301 0.33303899
vt 0.42871299 0.33017600
vt 0.43168101 0.36726803
vt 0.48396999 0.40790999
vt 0.48092401 0.41778499
vt 0.45539901 0.39290100
vt 0.45016700 0.39921302
vt 0.52861202 0.23853600
vt 0.46775401 0.23849398
vt 0.60622603 0.31748301
vt 0.57730401 0.26668102
vt 0.41591001 0.27036202
vt 0.60752302 0.37517202
vt 0.52915502 0.45661002
vt 0.58076400 0.42569703
vt 0.38941100 0.31958699
vt 0.39132899 0.37821501
vt 0.46886799 0.45659697
vt 0.42025700 0.42752099
vt 0.29547599 0.14073002
vt 0.27562499 0.10501099
vt 0.27064800 0.10979998
vt 0.28868899 0.14226198
vt 0.24409799 0.08509201
vt 0.20484200 0.08651501
vt 0.20631900 0.09298998
vt 0.24199601 0.09169698
vt 0.29288599 0.18151301
vt 0.28633499 0.17932498
vt 0.16996400 0.10309601
vt 0.17462200 0.10805899
vt 0.14764200 0.13388699
vt 0.14661700 0.17431700
vt 0.15340400 0.17278498
vt 0.15433601 0.13604301
vt 0.23690200 0.22861099
vt 0.27296600 0.21303999
vt 0.26823100 0.20797801
vt 0.23545600 0.22212797
vt 0.16490300 0.21038902
vt 0.17002299 0.20556802
vt 0.19828400 0.22861302
vt 0.20035900 0.22213000
vt 0.32682499 0.30491900
vt 0.34463799 0.30025202
vt 0.31896099 0.25562000
vt 0.30599901 0.26872802
vt 0.27321500 0.24946499
vt 0.27768001 0.23170102
vt 0.22809200 0.23257703
vt 0.23286900 0.25053000
vt 0.32545301 0.34664202
vt 0.34319401 0.35177100
vt 0.18497400 0.25555301
vt 0.19763900 0.26904702
vt 0.17627101 0.30140001
vt 0.15865000 0.29627198
vt 0.15773800 0.34726101
vt 0.17563400 0.34261203
vt 0.26944101 0.39704800
vt 0.27391100 0.41513199
vt 0.31818700 0.39236999
vt 0.30555201 0.37907898
vt 0.18273000 0.39181602
vt 0.19553100 0.37871999
vt 0.22960100 0.39726400
vt 0.22511500 0.41513801
vt 0.31758299 0.30722898
vt 0.32228100 0.30605501
vt 0.30259201 0.27209198
vt 0.29915699 0.27549601
vt 0.27203801 0.25396502
vt 0.27081901 0.25862700
vt 0.23408900 0.25519502
vt 0.23532499 0.25988799
vt 0.20083800 0.27253699
vt 0.20407701 0.27611703
vt 0.32086599 0.34527600
vt 0.31623501 0.34388798
vt 0.18072701 0.30275702
vt 0.18534000 0.30417401
vt 0.18029100 0.34144700
vt 0.18499500 0.34026998
vt 0.19883300 0.37543499
vt 0.20224600 0.37202501
vt 0.26720399 0.38763702
vt 0.26832300 0.39235902
vt 0.30240500 0.37565601
vt 0.29914600 0.37210900
vt 0.23078801 0.39267701
vt 0.23196600 0.38799298
vt 0.24298599 0.35185802
vt 0.25930399 0.29595602
vt 0.27969700 0.33172500
vt 0.22299400 0.31612498
vt 0.83183199 0.12532699
vt 0.79768097 0.10683101
vt 0.79689997 0.11029202
vt 0.82942700 0.12795001
vt 0.75896901 0.10910600
vt 0.76001799 0.11250502
vt 0.72879398 0.12824202
vt 0.73147100 0.13055801
vt 0.71375602 0.16256601
vt 0.71724999 0.16331202
vt 0.71375501 0.19953400
vt 0.71719903 0.19867200
vt 0.73140597 0.23147398
vt 0.73387998 0.22894400
vt 0.76605803 0.24906301
vt 0.76683903 0.24558997
vt 0.80493599 0.24782199
vt 0.80379200 0.24447298
vt 0.83449900 0.22638100
vt 0.83174902 0.22412300
vt 0.85012197 0.19286501
vt 0.84664702 0.19205099
vt 0.85101402 0.15540802
vt 0.84760398 0.15634602
vt 0.05300870 0.95504218
vt 0.05158510 0.95633912
vt 0.05298630 0.95728087
vt 0.05519590 0.95607531
vt 0.05075450 0.95639592
vt 0.05050140 0.95790333
vt 0.05154210 0.95786983
vt 0.05321390 0.96759421
vt 0.05485090 0.96723980
vt 0.06074800 0.96575367
vt 0.05508050 0.96868283
vt 0.06126110 0.96732390
vt 0.04761640 0.96825588
vt 0.04772780 0.96986252
vt 0.05347840 0.96898651
vt 0.05869420 0.99313492
vt 0.06024810 0.99314362
vt 0.06358430 0.99368989
vt 0.05887490 0.99439454
vt 0.06134880 0.99546939
vt 0.05829380 0.99325907
vt 0.05860820 0.99452668
vt 0.05918910 0.99608982
vt 0.05715610 0.99398655
vt 0.05618630 0.99602258
vt 0.04594130 0.97022492
vt 0.04857960 0.95564789
vt 0.04942220 0.95732141
vt 0.05083700 0.95491511
vt 0.04581190 0.96799982
vt 0.04285320 0.97476113
vt 0.04339330 0.96340311
vt 0.01449350 0.95505452
vt 0.01231790 0.95610988
vt 0.01454930 0.95728922
vt 0.01594260 0.95633399
vt 0.01600840 0.95786208
vt 0.01705310 0.95788568
vt 0.01677780 0.95638108
vt 0.01269100 0.96725708
vt 0.01432880 0.96760851
vt 0.00677666 0.96581262
vt 0.00627550 0.96737868
vt 0.01246060 0.96870202
vt 0.01406140 0.96900427
vt 0.01980180 0.96991080
vt 0.01991940 0.96830159
vt 0.00723699 0.99314940
vt 0.00878751 0.99313658
vt 0.00390625 0.99370319
vt 0.00614230 0.99547845
vt 0.00861152 0.99439836
vt 0.00887846 0.99452883
vt 0.00918806 0.99325782
vt 0.00830223 0.99609375
vt 0.01130180 0.99601805
vt 0.01032390 0.99398625
vt 0.02158510 0.97029543
vt 0.01894680 0.95560127
vt 0.01666720 0.95490021
vt 0.01813490 0.95729369
vt 0.02171780 0.96807230
vt 0.02453590 0.97468162
vt 0.02432690 0.96323538
vt 0.03378270 0.96980029
vt 0.03396900 0.97452742
vt 0.03357910 0.96370870
vt 0.03375460 0.96831298
vt 0.15576001 0.89705002
vt 0.14314900 0.91083229
vt 0.25076401 0.92364919
vt 0.25076100 0.90561008
vt 0.15294200 0.86655998
vt 0.25075501 0.86920798
vt 0.25074700 0.82294202
vt 0.13628601 0.82409900
vt 0.65149099 0.86655301
vt 0.62618101 0.86925697
vt 0.65430802 0.89704198
vt 0.67119700 0.88507903
vt 0.64169598 0.91082370
vt 0.74930799 0.92364907
vt 0.74930602 0.90561002
vt 0.17264900 0.88508600
vt 0.25075799 0.89065599
vt 0.55828601 0.84326601
vt 0.58569902 0.83325100
vt 0.57402003 0.73971796
vt 0.54332101 0.74330401
vt 0.42702901 0.63610101
vt 0.40231499 0.63680899
vt 0.40222201 0.73735297
vt 0.42600700 0.73967499
vt 0.45670700 0.74325401
vt 0.45756799 0.63468897
vt 0.74931097 0.95428950
vt 0.63129699 0.93565828
vt 0.13275300 0.93566757
vt 0.25077000 0.95428950
vt 0.63483799 0.82409102
vt 0.60794801 0.82820296
vt 0.37444401 0.63718599
vt 0.37544000 0.73528099
vt 0.12763099 0.86926603
vt 0.74930501 0.89065599
vt 0.59780401 0.73739004
vt 0.10702300 0.87458003
vt 0.11613100 0.97032923
vt 0.25077799 0.99609375
vt 0.74930298 0.86920702
vt 0.42287099 0.58584702
vt 0.39861000 0.58787298
vt 0.25073299 0.73177898
vt 0.12602700 0.73531801
vt 0.45231000 0.58087599
vt 0.49695301 0.74806798
vt 0.49753201 0.63276899
vt 0.37094399 0.58903503
vt 0.62458497 0.73530996
vt 0.10939600 0.82821298
vt 0.74929899 0.82294101
vt 0.08323840 0.89119899
vt 0.85691798 0.91080368
vt 0.86732101 0.93563628
vt 0.49152899 0.57329202
vt 0.05331220 0.91531962
vt 0.41086400 0.53933597
vt 0.38725600 0.54203904
vt 0.84430403 0.89702499
vt 0.08714660 0.83326101
vt 0.35915399 0.54299903
vt 0.57297200 0.63614297
vt 0.59768701 0.63684404
vt 0.43856999 0.52996099
vt 0.82741201 0.88506502
vt 0.74931502 0.99609375
vt 0.88395298 0.97029328
vt 0.54243302 0.63473904
vt 0.50246799 0.63282901
vt 0.50307602 0.74812901
vt 0.84711403 0.86653501
vt 0.25071999 0.63680196
vt 0.54767799 0.58092403
vt 0.50845701 0.57335103
vt 0.05973490 0.84327799
vt 0.09924660 0.73739898
vt 0.74928999 0.73177803
vt 0.62555701 0.63721502
vt 0.47561300 0.51571399
vt 0.91682398 0.89115602
vt 0.94675601 0.91526902
vt 0.39072201 0.50248897
vt 0.36500901 0.50553000
vt 0.86375898 0.82406998
vt 0.33498201 0.50556099
vt 0.41679701 0.48837799
vt 0.89303499 0.87454301
vt 0.52435899 0.51576799
vt 0.56140602 0.53000498
vt 0.57711798 0.58588803
vt 0.02293010 0.85787600
vt 0.07546230 0.73972797
vt 0.87242502 0.86923397
vt 0.60137999 0.58790803
vt 0.45025399 0.46719199
vt 0.04476350 0.74331498
vt 0.58911502 0.53937304
vt 0.94031501 0.84323001
vt 0.97712302 0.85781902
vt 0.62904602 0.58906299
vt 0.54970598 0.46723902
vt 0.58316898 0.48841602
vt 0.87399602 0.73528701
vt 0.32128999 0.43567997
vt 0.31281701 0.45291698
vt 0.30464000 0.47254002
vt 0.00451875 0.74814099
vt 0.89064997 0.82817698
vt 0.61272299 0.54207003
vt 0.09912460 0.63685203
vt 0.12699500 0.63722199
vt 0.91290098 0.83322001
vt 0.33818901 0.41174001
vt 0.25071299 0.58880800
vt 0.60924798 0.50252104
vt 0.64082599 0.54302299
vt 0.07441040 0.63615096
vt 0.36516601 0.38050801
vt 0.95526201 0.74326599
vt 0.99550802 0.74808300
vt 0.63496202 0.50555599
vt 0.90077698 0.73736203
vt 0.63477302 0.38053298
vt 0.66175902 0.41175801
vt 0.25069499 0.44760400
vt 0.25069800 0.46850997
vt 0.92456198 0.73968500
vt 0.10281600 0.58791500
vt 0.13048200 0.58906901
vt 0.66498899 0.50557899
vt 0.25069299 0.42694199
vt 0.25070700 0.54202998
vt 0.67866403 0.43569398
vt 0.07855430 0.58589500
vt 0.19675601 0.47255498
vt 0.18857400 0.45293301
vt 0.33061799 0.39984798
vt 0.36235300 0.37863898
vt 0.11415800 0.54207700
vt 0.14226000 0.54302901
vt 0.04387120 0.63474798
vt 0.04911480 0.58093202
vt 0.68714201 0.45292902
vt 0.18009700 0.43569899
vt 0.16642199 0.50558400
vt 0.13639601 0.50556201
vt 0.09054980 0.53938001
vt 0.69532299 0.47254997
vt 0.90087599 0.63681602
vt 0.87300497 0.63719201
vt 0.00390625 0.63283801
vt 0.00989366 0.57335901
vt 0.92558998 0.63611001
vt 0.11068200 0.50252700
vt 0.06284090 0.53001201
vt 0.25070199 0.50362599
vt 0.74928099 0.63679999
vt 0.66932702 0.39986497
vt 0.63758701 0.37866402
vt 0.08460360 0.48842198
vt 0.16319300 0.41176301
vt 0.95087397 0.58088696
vt 0.95612901 0.63470000
vt 0.99609399 0.63278300
vt 0.99009401 0.57330596
vt 0.02579410 0.51577497
vt 0.21156800 0.41760802
vt 0.17076100 0.39986998
vt 0.74926400 0.44760102
vt 0.74926603 0.46850699
vt 0.74926198 0.42693800
vt 0.89717400 0.58788002
vt 0.86950803 0.58904004
vt 0.92143500 0.58585596
vt 0.05114090 0.46724498
vt 0.97418100 0.51572597
vt 0.93713701 0.52996999
vt 0.13620700 0.38053799
vt 0.94882500 0.46720201
vt 0.91536599 0.48838502
vt 0.90943003 0.53934300
vt 0.80320901 0.47254002
vt 0.81138700 0.45291698
vt 0.88582200 0.54204500
vt 0.85772002 0.54300296
vt 0.86374199 0.38051200
vt 0.83676100 0.41174197
vt 0.81986099 0.43568099
vt 0.82919103 0.39985001
vt 0.86092800 0.37864298
vt 0.88928998 0.50249499
vt 0.86357599 0.50553501
vt 0.83354998 0.50556302
vt 0.74927700 0.58880603
vt 0.74927300 0.54202801
vt 0.74926901 0.50362301
vt 0.25069201 0.42299497
vt 0.60557199 0.87457001
vt 0.52148098 0.85786200
vt 0.36520901 0.82406300
vt 0.47857499 0.85780400
vt 0.44176599 0.84321797
vt 0.58178598 0.89118701
vt 0.41435099 0.83320999
vt 0.34856600 0.86652803
vt 0.61467201 0.97031838
vt 0.39210001 0.82816803
vt 0.55185902 0.91530591
vt 0.32886600 0.88506001
vt 0.34575799 0.89701903
vt 0.35837400 0.91079658
vt 0.36877900 0.93562829
vt 0.44821200 0.91525561
vt 0.41827801 0.89114499
vt 0.38541400 0.97028381
vt 0.39448801 0.87453401
vt 0.37387800 0.86922598
vt 0.71013498 0.41760302
vt 0.74926102 0.42299199
vt 0.78838700 0.41759598
vt 0.13902099 0.37866902
vt 0.28981501 0.41759700
vt 0.99435800 0.24807799
vt 0.97257900 0.21285403
vt 0.96056402 0.22414100
vt 0.97797698 0.25279999
vt 0.93541598 0.19462597
vt 0.89391297 0.19474298
vt 0.89755398 0.20766902
vt 0.93158197 0.20742399
vt 0.99466002 0.28959900
vt 0.97853601 0.28626198
vt 0.85845202 0.21630698
vt 0.86840200 0.22522199
vt 0.83626801 0.25125301
vt 0.83607799 0.29266602
vt 0.85251498 0.28814203
vt 0.85240799 0.25460899
vt 0.93673700 0.34676301
vt 0.97226501 0.32501000
vt 0.96238500 0.31601101
vt 0.93311399 0.33389997
vt 0.85749298 0.32823902
vt 0.86950397 0.31697601
vt 0.89507902 0.34675300
vt 0.89880902 0.33392000
vt 0.62343198 0.14927101
vt 0.65754902 0.15062797
vt 0.66189802 0.14159602
vt 0.62111503 0.13901103
vt 0.68641698 0.16886199
vt 0.70230001 0.19908702
vt 0.70900297 0.19757402
vt 0.69342798 0.16151202
vt 0.59320700 0.16515398
vt 0.58539897 0.15886700
vt 0.70094299 0.23320401
vt 0.70901102 0.23619199
vt 0.68270898 0.26207203
vt 0.65248400 0.27795601
vt 0.65472102 0.28786600
vt 0.69079101 0.26957500
vt 0.57361603 0.22813898
vt 0.57497299 0.19402200
vt 0.56548399 0.19039702
vt 0.56691200 0.22965300
vt 0.61836702 0.27659798
vt 0.61429203 0.28684598
vt 0.58949900 0.25836402
vt 0.58349699 0.26452798
vt 0.68267202 0.35263699
vt 0.68412501 0.31174898
vt 0.67448300 0.30892003
vt 0.67298001 0.35509503
vt 0.70315301 0.27965301
vt 0.73885798 0.26264501
vt 0.73668998 0.25280899
vt 0.69652599 0.27223498
vt 0.70335501 0.38769799
vt 0.69619298 0.39473802
vt 0.77807200 0.26251000
vt 0.78069198 0.25279701
vt 0.81146300 0.28045201
vt 0.83010697 0.31591201
vt 0.83992499 0.31374300
vt 0.81870198 0.27359903
vt 0.77444297 0.40459198
vt 0.73518300 0.40675002
vt 0.73267698 0.41638899
vt 0.77710098 0.41436100
vt 0.82935798 0.35577297
vt 0.83887500 0.35878199
vt 0.80868101 0.38681698
vt 0.81544101 0.39421397
vt 0.16685399 0.22944498
vt 0.14476100 0.19024497
vt 0.13913600 0.19575000
vt 0.15911201 0.23122102
vt 0.10952200 0.16855103
vt 0.06613310 0.17001301
vt 0.06792530 0.17736501
vt 0.10713200 0.17609501
vt 0.16452400 0.27416599
vt 0.15704700 0.27172399
vt 0.02812700 0.18936700
vt 0.03363340 0.19483900
vt 0.00443912 0.22401798
vt 0.00390625 0.26832598
vt 0.01158960 0.26640302
vt 0.01214420 0.22627997
vt 0.10353800 0.32722402
vt 0.14284700 0.30915302
vt 0.13731700 0.30348998
vt 0.10182300 0.31985301
vt 0.02475810 0.30717701
vt 0.03055790 0.30162698
vt 0.06114580 0.32722503
vt 0.06360080 0.31986398
vt 0.13304301 0.20152301
vt 0.15094900 0.23304403
vt 0.07002290 0.18553799
vt 0.10495600 0.18415099
vt 0.14905700 0.26918298
vt 0.03916070 0.20113897
vt 0.01975770 0.26440603
vt 0.02008930 0.22879201
vt 0.13183901 0.29721802
vt 0.10006000 0.31159103
vt 0.03654690 0.29582101
vt 0.06581230 0.31174600
f 4/4 1/1 2/2
f 2/2 3/3 4/4
f 8/8 5/5 6/6
f 6/6 7/7 8/8
f 1/1 9/9 10/10
f 10/10 2/2 1/1
f 12/12 8/8 7/7
f 7/7 11/11 12/12
f 16/16 13/13 14/14
f 14/14 15/15 16/16
f 20/20 17/17 18/18
f 18/18 19/19 20/20
f 22/22 16/16 15/15
f 15/15 21/21 22/22
f 17/17 23/23 24/24
f 24/24 18/18 17/17
f 5/5 4/4 3/3
f 3/3 6/6 5/5
f 13/13 12/12 11/11
f 11/11 14/14 13/13
f 9/9 20/20 19/19
f 19/19 10/10 9/9
f 23/23 22/22 21/21
f 21/21 24/24 23/23
f 28/28 25/25 26/26
f 26/26 27/27 28/28
f 32/32 29/29 30/30
f 30/30 31/31 32/32
f 34/34 33/33 25/25
f 25/25 28/28 34/34
f 31/31 30/30 35/35
f 35/35 36/36 31/31
f 40/40 37/37 38/38
f 38/38 39/39 40/40
f 44/44 41/41 42/42
f 42/42 43/43 44/44
f 39/39 38/38 45/45
f 45/45 46/46 39/39
f 48/48 47/47 41/41
f 41/41 44/44 48/48
f 27/27 26/26 29/29
f 29/29 32/32 27/27
f 36/36 35/35 37/37
f 37/37 40/40 36/36
f 43/43 42/42 33/33
f 33/33 34/34 43/43
f 46/46 45/45 47/47
f 47/47 48/48 46/46
f 50/50 28/28 27/27
f 27/27 49/49 50/50
f 52/52 32/32 31/31
f 31/31 51/51 52/52
f 53/53 34/34 28/28
f 28/28 50/50 53/53
f 51/51 31/31 36/36
f 36/36 54/54 51/51
f 56/56 40/40 39/39
f 39/39 55/55 56/56
f 58/58 44/44 43/43
f 43/43 57/57 58/58
f 55/55 39/39 46/46
f 46/46 59/59 55/55
f 60/60 48/48 44/44
f 44/44 58/58 60/60
f 49/49 27/27 32/32
f 32/32 52/52 49/49
f 54/54 36/36 40/40
f 40/40 56/56 54/54
f 57/57 43/43 34/34
f 34/34 53/53 57/57
f 59/59 46/46 48/48
f 48/48 60/60 59/59
f 64/64 61/61 62/62
f 62/62 63/63 64/64
f 68/68 65/65 66/66
f 66/66 67/67 68/68
f 70/70 69/69 61/61
f 61/61 64/64 70/70
f 67/67 66/66 71/71
f 71/71 72/72 67/67
f 76/76 73/73 74/74
f 74/74 75/75 76/76
f 80/80 77/77 78/78
f 78/78 79/79 80/80
f 75/75 74/74 81/81
f 81/81 82/82 75/75
f 84/84 83/83 77/77
f 77/77 80/80 84/84
f 63/63 62/62 65/65
f 65/65 68/68 63/63
f 72/72 71/71 73/73
f 73/73 76/76 72/72
f 79/79 78/78 69/69
f 69/69 70/70 79/79
f 82/82 81/81 83/83
f 83/83 84/84 82/82
f 88/88 85/85 86/86
f 86/86 87/87 88/88
f 92/92 89/89 90/90
f 90/90 91/91 92/92
f 85/85 93/93 94/94
f 94/94 86/86 85/85
f 96/96 92/92 91/91
f 91/91 95/95 96/96
f 100/100 97/97 98/98
f 98/98 99/99 100/100
f 104/104 101/101 102/102
f 102/102 103/103 104/104
f 106/106 100/100 99/99
f 99/99 105/105 106/106
f 101/101 107/107 108/108
f 108/108 102/102 101/101
f 89/89 88/88 87/87
f 87/87 90/90 89/89
f 97/97 96/96 95/95
f 95/95 98/98 97/97
f 93/93 104/104 103/103
f 103/103 94/94 93/93
f 107/107 106/106 105/105
f 105/105 108/108 107/107
f 112/112 109/109 110/110
f 110/110 111/111 112/112
f 111/111 110/110 85/85
f 85/85 88/88 111/111
f 114/114 112/112 111/111
f 111/111 113/113 114/114
f 113/113 111/111 88/88
f 88/88 89/89 113/113
f 116/116 114/114 113/113
f 113/113 115/115 116/116
f 115/115 113/113 89/89
f 89/89 92/92 115/115
f 118/118 116/116 115/115
f 115/115 117/117 118/118
f 117/117 115/115 92/92
f 92/92 96/96 117/117
f 93/93 85/85 110/110
f 110/110 119/119 93/93
f 119/119 110/110 109/109
f 109/109 120/120 119/119
f 122/122 118/118 117/117
f 117/117 121/121 122/122
f 121/121 117/117 96/96
f 96/96 97/97 121/121
f 124/124 122/122 121/121
f 121/121 123/123 124/124
f 123/123 121/121 97/97
f 97/97 100/100 123/123
f 126/126 124/124 123/123
f 123/123 125/125 126/126
f 125/125 123/123 100/100
f 100/100 106/106 125/125
f 130/130 127/127 128/128
f 128/128 129/129 130/130
f 129/129 128/128 101/101
f 101/101 104/104 129/129
f 104/104 93/93 119/119
f 119/119 129/129 104/104
f 129/129 119/119 120/120
f 120/120 130/130 129/129
f 132/132 126/126 125/125
f 125/125 131/131 132/132
f 131/131 125/125 106/106
f 106/106 107/107 131/131
f 107/107 101/101 128/128
f 128/128 131/131 107/107
f 131/131 128/128 127/127
f 127/127 132/132 131/131
f 132/132 127/127 133/133
f 133/133 126/126 132/132
f 114/114 116/116 134/134
f 134/134 112/112 114/114
f 135/135 109/109 112/112
f 112/112 134/134 135/135
f 127/127 130/130 135/135
f 135/135 133/133 127/127
f 120/120 109/109 135/135
f 135/135 130/130 120/120
f 116/116 118/118 136/136
f 136/136 134/134 116/116
f 122/122 124/124 136/136
f 136/136 118/118 122/122
f 133/133 135/135 134/134
f 134/134 136/136 133/133
f 126/126 133/133 136/136
f 136/136 124/124 126/126
f 140/140 137/137 138/138
f 138/138 139/139 140/140
f 139/139 138/138 141/141
f 141/141 142/142 139/139
f 142/142 141/141 143/143
f 143/143 144/144 142/142
f 144/144 143/143 145/145
f 145/145 146/146 144/144
f 146/146 145/145 147/147
f 147/147 148/148 146/146
f 148/148 147/147 149/149
f 149/149 150/150 148/148
f 150/150 149/149 151/151
f 151/151 152/152 150/150
f 152/152 151/151 153/153
f 153/153 154/154 152/152
f 154/154 153/153 155/155
f 155/155 156/156 154/154
f 156/156 155/155 157/157
f 157/157 158/158 156/156
f 158/158 157/157 159/159
f 159/159 160/160 158/158
f 160/160 159/159 137/137
f 137/137 140/140 160/160
f 164/164 161/161 162/162
f 162/162 163/163 164/164
f 167/167 162/162 165/165
f 165/165 166/166 167/167
f 163/163 167/167 168/168
f 168/168 169/169 163/163
f 172/172 170/170 169/169
f 169/169 171/171 172/172
f 175/175 168/168 173/173
f 173/173 174/174 175/175
f 171/171 175/175 176/176
f 176/176 177/177 171/171
f 180/180 178/178 177/177
f 177/177 179/179 180/180
f 179/179 176/176 181/181
f 181/181 182/182 179/179
f 185/185 183/183 182/182
f 182/182 184/184 185/185
f 184/184 181/181 174/174
f 174/174 186/186 184/184
f 189/189 187/187 188/188
f 188/188 165/165 189/189
f 166/166 188/188 190/190
f 190/190 173/173 166/166
f 168/168 167/167 166/166
f 166/166 173/173 168/168
f 164/164 163/163 169/169
f 169/169 170/170 164/164
f 172/172 171/171 177/177
f 177/177 178/178 172/172
f 180/180 179/179 182/182
f 182/182 183/183 180/180
f 189/189 165/165 162/162
f 162/162 161/161 189/189
f 175/175 174/174 181/181
f 181/181 176/176 175/175
f 185/185 184/184 186/186
f 186/186 191/191 185/185
f 192/192 190/190 188/188
f 188/188 187/187 192/192
f 162/162 167/167 163/163
f 169/169 168/168 175/175
f 175/175 171/171 169/169
f 176/176 179/179 177/177
f 181/181 184/184 182/182
f 188/188 166/166 165/165
f 173/173 190/190 186/186
f 186/186 174/174 173/173
f 196/196 193/193 194/194
f 194/194 195/195 196/196
f 199/199 196/196 197/197
f 197/197 198/198 199/199
f 201/201 197/197 195/195
f 195/195 200/200 201/201
f 200/200 202/202 203/203
f 203/203 204/204 200/200
f 207/207 201/201 205/205
f 205/205 206/206 207/207
f 209/209 205/205 204/204
f 204/204 208/208 209/209
f 208/208 210/210 211/211
f 211/211 212/212 208/208
f 214/214 209/209 212/212
f 212/212 213/213 214/214
f 213/213 215/215 216/216
f 216/216 217/217 213/213
f 206/206 214/214 217/217
f 217/217 218/218 206/206
f 221/221 219/219 220/220
f 220/220 199/199 221/221
f 222/222 221/221 198/198
f 198/198 207/207 222/222
f 198/198 197/197 201/201
f 201/201 207/207 198/198
f 200/200 195/195 194/194
f 194/194 202/202 200/200
f 208/208 204/204 203/203
f 203/203 210/210 208/208
f 213/213 212/212 211/211
f 211/211 215/215 213/213
f 196/196 199/199 220/220
f 220/220 193/193 196/196
f 214/214 206/206 205/205
f 205/205 209/209 214/214
f 218/218 217/217 216/216
f 216/216 223/223 218/218
f 221/221 222/222 224/224
f 224/224 219/219 221/221
f 196/196 195/195 197/197
f 205/205 201/201 200/200
f 200/200 204/204 205/205
f 209/209 208/208 212/212
f 214/214 213/213 217/217
f 221/221 199/199 198/198
f 218/218 222/222 207/207
f 207/207 206/206 218/218
f 226/226 191/191 186/186
f 186/186 225/225 226/226
f 228/228 190/190 192/192
f 192/192 227/227 228/228
f 225/225 186/186 190/190
f 190/190 228/228 225/225
f 222/222 228/228 227/227
f 227/227 224/224 222/222
f 218/218 225/225 228/228
f 228/228 222/222 218/218
f 223/223 226/226 225/225
f 225/225 218/218 223/223
f 232/232 229/229 230/230
f 230/230 231/231 232/232
f 236/236 233/233 234/234
f 234/234 235/235 236/236
f 240/240 237/237 238/238
f 238/238 239/239 240/240
f 243/243 239/239 241/241
f 241/241 242/242 243/243
f 245/245 234/234 233/233
f 233/233 244/244 245/245
f 249/249 246/246 247/247
f 247/247 248/248 249/249
f 253/253 250/250 251/251
f 251/251 252/252 253/253
f 250/250 253/253 254/254
f 254/254 255/255 250/250
f 257/257 256/256 242/242
f 242/242 241/241 257/257
f 231/231 230/230 258/258
f 258/258 259/259 231/231
f 237/237 260/260 261/261
f 261/261 238/238 237/237
f 252/252 251/251 262/262
f 262/262 263/263 252/252
f 264/264 229/229 244/244
f 244/244 233/233 264/264
f 265/265 240/240 239/239
f 239/239 243/243 265/265
f 248/248 247/247 261/261
f 261/261 266/266 248/248
f 267/267 230/230 229/229
f 229/229 264/264 267/267
f 269/269 259/259 258/258
f 258/258 268/268 269/269
f 265/265 270/270 237/237
f 237/237 240/240 265/265
f 272/272 251/251 250/250
f 250/250 271/271 272/272
f 274/274 236/236 235/235
f 235/235 273/273 274/274
f 275/275 271/271 250/250
f 250/250 255/255 275/275
f 255/255 254/254 276/276
f 276/276 277/277 255/255
f 278/278 262/262 251/251
f 251/251 272/272 278/278
f 266/266 261/261 260/260
f 260/260 279/279 266/266
f 280/280 264/264 233/233
f 233/233 236/236 280/280
f 270/270 281/281 260/260
f 260/260 237/237 270/270
f 267/267 282/282 258/258
f 258/258 230/230 267/267
f 284/284 283/283 242/242
f 242/242 256/256 284/284
f 285/285 275/275 255/255
f 255/255 277/277 285/285
f 286/286 268/268 258/258
f 258/258 282/282 286/286
f 288/288 272/272 271/271
f 271/271 287/287 288/288
f 283/283 289/289 243/243
f 243/243 242/242 283/283
f 290/290 267/267 264/264
f 264/264 280/280 290/290
f 291/291 278/278 272/272
f 272/272 288/288 291/291
f 293/293 292/292 248/248
f 248/248 266/266 293/293
f 287/287 271/271 275/275
f 275/275 294/294 287/287
f 289/289 295/295 265/265
f 265/265 243/243 289/289
f 284/284 256/256 296/296
f 296/296 297/297 284/284
f 300/300 249/249 298/298
f 298/298 299/299 300/300
f 301/301 270/270 265/265
f 265/265 295/295 301/301
f 263/263 262/262 302/302
f 302/302 273/273 263/263
f 304/304 299/299 298/298
f 298/298 303/303 304/304
f 305/305 282/282 267/267
f 267/267 290/290 305/305
f 306/306 280/280 236/236
f 236/236 274/274 306/306
f 281/281 307/307 279/279
f 279/279 260/260 281/281
f 308/308 293/293 266/266
f 266/266 279/279 308/308
f 294/294 275/275 285/285
f 285/285 309/309 294/294
f 311/311 310/310 284/284
f 284/284 297/297 311/311
f 313/313 288/288 287/287
f 287/287 312/312 313/313
f 314/314 281/281 270/270
f 270/270 301/301 314/314
f 315/315 291/291 288/288
f 288/288 313/313 315/315
f 312/312 287/287 294/294
f 294/294 316/316 312/312
f 317/317 283/283 284/284
f 284/284 310/310 317/317
f 319/319 318/318 304/304
f 304/304 303/303 319/319
f 303/303 298/298 292/292
f 292/292 320/320 303/303
f 321/321 286/286 282/282
f 282/282 305/305 321/321
f 322/322 290/290 280/280
f 280/280 306/306 322/322
f 323/323 301/301 295/295
f 295/295 289/289 323/323
f 317/317 323/323 289/289
f 289/289 283/283 317/317
f 249/249 248/248 292/292
f 292/292 298/298 249/249
f 324/324 320/320 292/292
f 292/292 293/293 324/324
f 316/316 294/294 309/309
f 309/309 325/325 316/316
f 326/326 305/305 290/290
f 290/290 322/322 326/326
f 327/327 319/319 303/303
f 303/303 320/320 327/327
f 329/329 328/328 310/310
f 310/310 311/311 329/329
f 330/330 324/324 293/293
f 293/293 308/308 330/330
f 332/332 331/331 318/318
f 318/318 319/319 332/332
f 333/333 307/307 281/281
f 281/281 314/314 333/333
f 335/335 313/313 312/312
f 312/312 334/334 335/335
f 336/336 315/315 313/313
f 313/313 335/335 336/336
f 337/337 321/321 305/305
f 305/305 326/326 337/337
f 338/338 314/314 301/301
f 301/301 323/323 338/338
f 339/339 327/327 320/320
f 320/320 324/324 339/339
f 341/341 340/340 306/306
f 306/306 274/274 341/341
f 328/328 342/342 317/317
f 317/317 310/310 328/328
f 334/334 312/312 316/316
f 316/316 343/343 334/334
f 342/342 338/338 323/323
f 323/323 317/317 342/342
f 262/262 278/278 344/344
f 344/344 302/302 262/262
f 345/345 332/332 319/319
f 319/319 327/327 345/345
f 346/346 339/339 324/324
f 324/324 330/330 346/346
f 340/340 347/347 322/322
f 322/322 306/306 340/340
f 343/343 316/316 325/325
f 325/325 348/348 343/343
f 350/350 349/349 328/328
f 328/328 329/329 350/350
f 351/351 345/345 327/327
f 327/327 339/339 351/351
f 352/352 333/333 314/314
f 314/314 338/338 352/352
f 354/354 353/353 331/331
f 331/331 332/332 354/354
f 356/356 336/336 335/335
f 335/335 355/355 356/356
f 349/349 357/357 342/342
f 342/342 328/328 349/349
f 359/359 358/358 340/340
f 340/340 341/341 359/359
f 357/357 352/352 338/338
f 338/338 342/342 357/357
f 360/360 351/351 339/339
f 339/339 346/346 360/360
f 302/302 341/341 274/274
f 274/274 273/273 302/302
f 355/355 335/335 334/334
f 334/334 361/361 355/355
f 278/278 291/291 362/362
f 362/362 344/344 278/278
f 363/363 354/354 332/332
f 332/332 345/345 363/363
f 358/358 364/364 347/347
f 347/347 340/340 358/358
f 366/366 365/365 356/356
f 356/356 355/355 366/366
f 368/368 367/367 343/343
f 343/343 348/348 368/368
f 370/370 369/369 358/358
f 358/358 359/359 370/370
f 372/372 371/371 347/347
f 347/347 364/364 372/372
f 373/373 363/363 345/345
f 345/345 351/351 373/373
f 374/374 366/366 355/355
f 355/355 361/361 374/374
f 369/369 370/370 375/375
f 375/375 376/376 369/369
f 376/376 375/375 365/365
f 365/365 366/366 376/376
f 369/369 377/377 364/364
f 364/364 358/358 369/369
f 378/378 373/373 351/351
f 351/351 360/360 378/378
f 380/380 333/333 352/352
f 352/352 379/379 380/380
f 382/382 381/381 371/371
f 371/371 372/372 382/382
f 379/379 352/352 357/357
f 357/357 383/383 379/379
f 377/377 369/369 376/376
f 376/376 384/384 377/377
f 384/384 376/376 366/366
f 366/366 374/374 384/384
f 377/377 385/385 372/372
f 372/372 364/364 377/377
f 315/315 386/386 362/362
f 362/362 291/291 315/315
f 387/387 308/308 279/279
f 279/279 307/307 387/387
f 353/353 354/354 388/388
f 388/388 389/389 353/353
f 385/385 377/377 384/384
f 384/384 390/390 385/385
f 344/344 359/359 341/341
f 341/341 302/302 344/344
f 390/390 384/384 374/374
f 374/374 391/391 390/390
f 395/395 392/392 393/393
f 393/393 394/394 395/395
f 382/382 372/372 385/385
f 385/385 396/396 382/382
f 374/374 397/397 398/398
f 398/398 391/391 374/374
f 400/400 399/399 373/373
f 373/373 378/378 400/400
f 399/399 401/401 363/363
f 363/363 373/373 399/399
f 403/403 380/380 379/379
f 379/379 402/402 403/403
f 392/392 404/404 383/383
f 383/383 393/393 392/392
f 396/396 385/385 390/390
f 390/390 405/405 396/396
f 407/407 392/392 395/395
f 395/395 406/406 407/407
f 402/402 379/379 383/383
f 383/383 404/404 402/402
f 405/405 390/390 391/391
f 391/391 408/408 405/405
f 336/336 356/356 386/386
f 386/386 315/315 336/336
f 410/410 407/407 406/406
f 406/406 409/409 410/410
f 411/411 404/404 392/392
f 392/392 407/407 411/411
f 413/413 399/399 400/400
f 400/400 412/412 413/413
f 415/415 403/403 402/402
f 402/402 414/414 415/415
f 417/417 410/410 409/409
f 409/409 416/416 417/417
f 418/418 401/401 399/399
f 399/399 413/413 418/418
f 362/362 370/370 359/359
f 359/359 344/344 362/362
f 414/414 402/402 404/404
f 404/404 411/411 414/414
f 420/420 419/419 417/417
f 417/417 416/416 420/420
f 421/421 411/411 407/407
f 407/407 410/410 421/421
f 414/414 422/422 423/423
f 423/423 415/415 414/414
f 422/422 413/413 412/412
f 412/412 423/423 422/422
f 424/424 330/330 308/308
f 308/308 387/387 424/424
f 418/418 421/421 410/410
f 410/410 417/417 418/418
f 422/422 414/414 411/411
f 411/411 421/421 422/422
f 326/326 322/322 347/347
f 347/347 371/371 326/326
f 421/421 418/418 413/413
f 413/413 422/422 421/421
f 370/370 362/362 386/386
f 386/386 375/375 370/370
f 386/386 356/356 365/365
f 365/365 375/375 386/386
f 333/333 380/380 387/387
f 387/387 307/307 333/333
f 337/337 326/326 371/371
f 371/371 381/381 337/337
f 425/425 346/346 330/330
f 330/330 424/424 425/425
f 393/393 349/349 350/350
f 350/350 394/394 393/393
f 346/346 425/425 426/426
f 426/426 360/360 346/346
f 383/383 357/357 349/349
f 349/349 393/393 383/383
f 380/380 403/403 424/424
f 424/424 387/387 380/380
f 426/426 400/400 378/378
f 378/378 360/360 426/426
f 427/427 397/397 374/374
f 374/374 361/361 427/427
f 403/403 415/415 425/425
f 425/425 424/424 403/403
f 423/423 426/426 425/425
f 425/425 415/415 423/423
f 412/412 400/400 426/426
f 426/426 423/423 412/412
f 247/247 428/428 238/238
f 238/238 261/261 247/247
f 246/246 249/249 300/300
f 300/300 429/429 246/246
f 245/245 244/244 229/229
f 229/229 232/232 245/245
f 263/263 273/273 235/235
f 235/235 430/430 263/263
f 428/428 241/241 239/239
f 239/239 238/238 428/428
f 432/432 431/431 276/276
f 276/276 254/254 432/432
f 246/246 433/433 428/428
f 428/428 247/247 246/246
f 257/257 241/241 428/428
f 428/428 433/433 257/257
f 434/434 432/432 254/254
f 254/254 253/253 434/434
f 430/430 235/235 234/234
f 234/234 435/435 430/430
f 296/296 256/256 257/257
f 257/257 436/436 296/296
f 430/430 437/437 252/252
f 252/252 263/263 430/430
f 429/429 438/438 433/433
f 433/433 246/246 429/429
f 437/437 434/434 253/253
f 253/253 252/252 437/437
f 435/435 234/234 245/245
f 245/245 439/439 435/435
f 438/438 436/436 257/257
f 257/257 433/433 438/438
f 440/440 439/439 245/245
f 245/245 232/232 440/440
f 442/442 441/441 231/231
f 231/231 259/259 442/442
f 444/444 443/443 431/431
f 431/431 432/432 444/444
f 441/441 440/440 232/232
f 232/232 231/231 441/441
f 442/442 445/445 443/443
f 443/443 444/444 442/442
f 446/446 444/444 432/432
f 432/432 434/434 446/446
f 442/442 259/259 269/269
f 269/269 445/445 442/442
f 435/435 447/447 437/437
f 437/437 430/430 435/435
f 447/447 446/446 434/434
f 434/434 437/437 447/447
f 447/447 435/435 439/439
f 439/439 440/440 447/447
f 446/446 441/441 442/442
f 442/442 444/444 446/446
f 446/446 447/447 440/440
f 440/440 441/441 446/446
f 449/449 448/448 363/363
f 363/363 401/401 449/449
f 363/363 448/448 388/388
f 388/388 354/354 363/363
f 401/401 418/418 450/450
f 450/450 449/449 401/401
f 418/418 417/417 419/419
f 419/419 450/450 418/418
f 408/408 391/391 398/398
f 398/398 451/451 408/408
f 361/361 334/334 452/452
f 452/452 427/427 361/361
f 334/334 343/343 367/367
f 367/367 452/452 334/334
f 456/456 453/453 454/454
f 454/454 455/455 456/456
f 460/460 457/457 458/458
f 458/458 459/459 460/460
f 462/462 461/461 453/453
f 453/453 456/456 462/462
f 459/459 458/458 463/463
f 463/463 464/464 459/459
f 468/468 465/465 466/466
f 466/466 467/467 468/468
f 472/472 469/469 470/470
f 470/470 471/471 472/472
f 467/467 466/466 473/473
f 473/473 474/474 467/467
f 476/476 475/475 469/469
f 469/469 472/472 476/476
f 455/455 454/454 457/457
f 457/457 460/460 455/455
f 464/464 463/463 465/465
f 465/465 468/468 464/464
f 471/471 470/470 461/461
f 461/461 462/462 471/471
f 474/474 473/473 475/475
f 475/475 476/476 474/474
f 480/480 477/477 478/478
f 478/478 479/479 480/480
f 484/484 481/481 482/482
f 482/482 483/483 484/484
f 486/486 485/485 477/477
f 477/477 480/480 486/486
f 483/483 482/482 487/487
f 487/487 488/488 483/483
f 492/492 489/489 490/490
f 490/490 491/491 492/492
f 496/496 493/493 494/494
f 494/494 495/495 496/496
f 491/491 490/490 497/497
f 497/497 498/498 491/491
f 500/500 499/499 493/493
f 493/493 496/496 500/500
f 479/479 478/478 481/481
f 481/481 484/484 479/479
f 488/488 487/487 489/489
f 489/489 492/492 488/488
f 495/495 494/494 485/485
f 485/485 486/486 495/495
f 498/498 497/497 499/499
f 499/499 500/500 498/498
f 504/504 501/501 502/502
f 502/502 503/503 504/504
f 508/508 505/505 506/506
f 506/506 507/507 508/508
f 510/510 509/509 501/501
f 501/501 504/504 510/510
f 507/507 506/506 511/511
f 511/511 512/512 507/507
f 516/516 513/513 514/514
f 514/514 515/515 516/516
f 520/520 517/517 518/518
f 518/518 519/519 520/520
f 515/515 514/514 521/521
f 521/521 522/522 515/515
f 524/524 523/523 517/517
f 517/517 520/520 524/524
f 503/503 502/502 505/505
f 505/505 508/508 503/503
f 512/512 511/511 513/513
f 513/513 516/516 512/512
f 519/519 518/518 509/509
f 509/509 510/510 519/519
f 522/522 521/521 523/523
f 523/523 524/524 522/522
f 528/528 525/525 526/526
f 526/526 527/527 528/528
f 532/532 529/529 530/530
f 530/530 531/531 532/532
f 534/534 533/533 525/525
f 525/525 528/528 534/534
f 531/531 530/530 535/535
f 535/535 536/536 531/531
f 540/540 537/537 538/538
f 538/538 539/539 540/540
f 544/544 541/541 542/542
f 542/542 543/543 544/544
f 539/539 538/538 545/545
f 545/545 546/546 539/539
f 548/548 547/547 541/541
f 541/541 544/544 548/548
f 527/527 526/526 529/529
f 529/529 532/532 527/527
f 536/536 535/535 537/537
f 537/537 540/540 536/536
f 543/543 542/542 533/533
f 533/533 534/534 543/543
f 546/546 545/545 547/547
f 547/547 548/548 546/546
f 550/550 528/528 527/527
f 527/527 549/549 550/550
f 552/552 532/532 531/531
f 531/531 551/551 552/552
f 553/553 534/534 528/528
f 528/528 550/550 553/553
f 551/551 531/531 536/536
f 536/536 554/554 551/551
f 556/556 540/540 539/539
f 539/539 555/555 556/556
f 558/558 544/544 543/543
f 543/543 557/557 558/558
f 555/555 539/539 546/546
f 546/546 559/559 555/555
f 560/560 548/548 544/544
f 544/544 558/558 560/560
f 549/549 527/527 532/532
f 532/532 552/552 549/549
f 554/554 536/536 540/540
f 540/540 556/556 554/554
f 557/557 543/543 534/534
f 534/534 553/553 557/557
f 559/559 546/546 548/548
f 548/548 560/560 559/559

