# Counter Duty delivery-box asset
# Clean open body rebuilt from simple closed surfaces
# Consistent flat normals and winding; no overlapping legacy faces
# Outer bounds: 0.247187570 x 0.062844366 x 0.193579276 m
mtllib delivery_box.mtl
o delivery_box_body
v -0.123593785 0.000000000 -0.096789638
v 0.123593785 0.000000000 -0.096789638
v 0.123593785 0.000000000 0.096789638
v -0.123593785 0.000000000 0.096789638
v -0.123593785 0.000000000 0.096789638
v -0.123593785 0.062844366 0.096789638
v -0.123593785 0.062844366 -0.096789638
v -0.123593785 0.000000000 -0.096789638
v 0.123593785 0.000000000 -0.096789638
v 0.123593785 0.062844366 -0.096789638
v 0.123593785 0.062844366 0.096789638
v 0.123593785 0.000000000 0.096789638
v -0.123593785 0.000000000 -0.096789638
v -0.123593785 0.062844366 -0.096789638
v 0.123593785 0.062844366 -0.096789638
v 0.123593785 0.000000000 -0.096789638
v 0.123593785 0.000000000 0.096789638
v 0.123593785 0.062844366 0.096789638
v -0.123593785 0.062844366 0.096789638
v -0.123593785 0.000000000 0.096789638
v -0.118754303 0.005027549 -0.091950156
v -0.118754303 0.005027549 0.091950156
v 0.118754303 0.005027549 0.091950156
v 0.118754303 0.005027549 -0.091950156
v -0.118754303 0.005027549 -0.091950156
v -0.118754303 0.062844366 -0.091950156
v -0.118754303 0.062844366 0.091950156
v -0.118754303 0.005027549 0.091950156
v 0.118754303 0.005027549 0.091950156
v 0.118754303 0.062844366 0.091950156
v 0.118754303 0.062844366 -0.091950156
v 0.118754303 0.005027549 -0.091950156
v 0.118754303 0.005027549 -0.091950156
v 0.118754303 0.062844366 -0.091950156
v -0.118754303 0.062844366 -0.091950156
v -0.118754303 0.005027549 -0.091950156
v -0.118754303 0.005027549 0.091950156
v -0.118754303 0.062844366 0.091950156
v 0.118754303 0.062844366 0.091950156
v 0.118754303 0.005027549 0.091950156
v -0.123593785 0.062844366 -0.096789638
v -0.123593785 0.062844366 0.096789638
v -0.118754303 0.062844366 0.096789638
v -0.118754303 0.062844366 -0.096789638
v 0.118754303 0.062844366 -0.096789638
v 0.118754303 0.062844366 0.096789638
v 0.123593785 0.062844366 0.096789638
v 0.123593785 0.062844366 -0.096789638
v -0.118754303 0.062844366 -0.096789638
v -0.118754303 0.062844366 -0.091950156
v 0.118754303 0.062844366 -0.091950156
v 0.118754303 0.062844366 -0.096789638
v -0.118754303 0.062844366 0.091950156
v -0.118754303 0.062844366 0.096789638
v 0.118754303 0.062844366 0.096789638
v 0.118754303 0.062844366 0.091950156
vn 0.000000000 -1.000000000 0.000000000
vn -1.000000000 0.000000000 0.000000000
vn 1.000000000 0.000000000 0.000000000
vn 0.000000000 0.000000000 -1.000000000
vn 0.000000000 0.000000000 1.000000000
vn 0.000000000 1.000000000 0.000000000
vn 1.000000000 0.000000000 0.000000000
vn -1.000000000 0.000000000 0.000000000
vn 0.000000000 0.000000000 1.000000000
vn 0.000000000 0.000000000 -1.000000000
vn 0.000000000 1.000000000 0.000000000
vn 0.000000000 1.000000000 0.000000000
vn 0.000000000 1.000000000 0.000000000
vn 0.000000000 1.000000000 0.000000000
# UV coordinates added for cardboard texture
# UV density: 16.0 repeats per model-space meter
vt -1.977500560 -1.548634208
vt 1.977500560 -1.548634208
vt 1.977500560 1.548634208
vt -1.977500560 1.548634208
vt 1.548634208 0.000000000
vt 1.548634208 1.005509856
vt -1.548634208 1.005509856
vt -1.548634208 0.000000000
vt -1.548634208 -0.000000000
vt -1.548634208 -1.005509856
vt 1.548634208 -1.005509856
vt 1.548634208 -0.000000000
vt -1.977500560 -0.000000000
vt -1.977500560 -1.005509856
vt 1.977500560 -1.005509856
vt 1.977500560 -0.000000000
vt 1.977500560 0.000000000
vt 1.977500560 1.005509856
vt -1.977500560 1.005509856
vt -1.977500560 0.000000000
vt -1.900068848 1.471202496
vt -1.900068848 -1.471202496
vt 1.900068848 -1.471202496
vt 1.900068848 1.471202496
vt -1.471202496 -0.080440784
vt -1.471202496 -1.005509856
vt 1.471202496 -1.005509856
vt 1.471202496 -0.080440784
vt 1.471202496 0.080440784
vt 1.471202496 1.005509856
vt -1.471202496 1.005509856
vt -1.471202496 0.080440784
vt 1.900068848 0.080440784
vt 1.900068848 1.005509856
vt -1.900068848 1.005509856
vt -1.900068848 0.080440784
vt -1.900068848 -0.080440784
vt -1.900068848 -1.005509856
vt 1.900068848 -1.005509856
vt 1.900068848 -0.080440784
vt -1.977500560 1.548634208
vt -1.977500560 -1.548634208
vt -1.900068848 -1.548634208
vt -1.900068848 1.548634208
vt 1.900068848 1.548634208
vt 1.900068848 -1.548634208
vt 1.977500560 -1.548634208
vt 1.977500560 1.548634208
vt -1.900068848 1.548634208
vt -1.900068848 1.471202496
vt 1.900068848 1.471202496
vt 1.900068848 1.548634208
vt -1.900068848 -1.471202496
vt -1.900068848 -1.548634208
vt 1.900068848 -1.548634208
vt 1.900068848 -1.471202496
usemtl Packaging_Outside
f 1/1/1 2/2/1 3/3/1
f 1/1/1 3/3/1 4/4/1
f 5/5/2 6/6/2 7/7/2
f 5/5/2 7/7/2 8/8/2
f 9/9/3 10/10/3 11/11/3
f 9/9/3 11/11/3 12/12/3
f 13/13/4 14/14/4 15/15/4
f 13/13/4 15/15/4 16/16/4
f 17/17/5 18/18/5 19/19/5
f 17/17/5 19/19/5 20/20/5
usemtl Packaging_Inside
f 21/21/6 22/22/6 23/23/6
f 21/21/6 23/23/6 24/24/6
f 25/25/7 26/26/7 27/27/7
f 25/25/7 27/27/7 28/28/7
f 29/29/8 30/30/8 31/31/8
f 29/29/8 31/31/8 32/32/8
f 33/33/9 34/34/9 35/35/9
f 33/33/9 35/35/9 36/36/9
f 37/37/10 38/38/10 39/39/10
f 37/37/10 39/39/10 40/40/10
usemtl Packaging_Outside
f 41/41/11 42/42/11 43/43/11
f 41/41/11 43/43/11 44/44/11
f 45/45/12 46/46/12 47/47/12
f 45/45/12 47/47/12 48/48/12
f 49/49/13 50/50/13 51/51/13
f 49/49/13 51/51/13 52/52/13
f 53/53/14 54/54/14 55/55/14
f 53/53/14 55/55/14 56/56/14
