# Counter Duty delivery-box asset
# Direct half-length lid; no runtime Y/Z half scaling required
# Plate thickness: 0.006000 m
# No side or locking flaps
mtllib delivery_box.mtl
o delivery_box_lid
v 0.121133086 0.149662476 -0.136254869
v -0.120793257 0.149662478 -0.136198256
v -0.122085601 0.062789511 -0.096676411
v 0.122483030 0.062789507 -0.096789638
v 0.121133086 0.147177880 -0.141716260
v 0.122483030 0.060304911 -0.102251028
v -0.122085601 0.060304915 -0.102137801
v -0.120793257 0.147177882 -0.141659646
v 0.122483030 0.062789507 -0.096789638
v 0.122483030 0.060304911 -0.102251028
v 0.121133086 0.147177880 -0.141716260
v 0.121133086 0.149662476 -0.136254869
v -0.120793257 0.149662478 -0.136198256
v -0.120793257 0.147177882 -0.141659646
v -0.122085601 0.060304915 -0.102137801
v -0.122085601 0.062789511 -0.096676411
v -0.122085601 0.062789511 -0.096676411
v -0.122085601 0.060304915 -0.102137801
v 0.122483030 0.060304911 -0.102251028
v 0.122483030 0.062789507 -0.096789638
v 0.121133086 0.149662476 -0.136254869
v 0.121133086 0.147177880 -0.141716260
v -0.120793257 0.147177882 -0.141659646
v -0.120793257 0.149662478 -0.136198256
vn 0.000000000 0.414099317 0.910231704
vn -0.000000000 -0.414099317 -0.910231704
vn 0.999899934 0.012876517 -0.005858021
vn -0.999908336 0.012324167 -0.005606736
vn 0.000191699 -0.910231688 0.414099310
vn -0.000096896 0.910231700 -0.414099315
# UV coordinates added for cardboard texture
# UV density: 16.0 repeats per model-space meter
vt 1.938129376 2.394599616
vt -1.932692112 2.394599648
vt -1.953369616 1.004632176
vt 1.959728480 1.004632112
vt 1.938129376 -2.354846080
vt 1.959728480 -0.964878576
vt -1.953369616 -0.964878640
vt -1.932692112 -2.354846112
vt -1.548634208 -1.004632112
vt -1.636016448 -0.964878576
vt -2.267460160 -2.354846080
vt -2.180077904 -2.394599616
vt -2.179172096 2.394599648
vt -2.266554336 2.354846112
vt -1.634204816 0.964878640
vt -1.546822576 1.004632176
vt -1.953369616 -1.546822576
vt -1.953369616 -1.634204816
vt 1.959728480 -1.636016448
vt 1.959728480 -1.548634208
vt 1.938129376 2.180077904
vt 1.938129376 2.267460160
vt -1.932692112 2.266554336
vt -1.932692112 2.179172096
usemtl Packaging_Inside
f 1/1/1 2/2/1 3/3/1
f 1/1/1 3/3/1 4/4/1
usemtl Packaging_Outside
f 5/5/2 6/6/2 7/7/2
f 5/5/2 7/7/2 8/8/2
f 9/9/3 10/10/3 11/11/3
f 9/9/3 11/11/3 12/12/3
f 13/13/4 14/14/4 15/15/4
f 13/13/4 15/15/4 16/16/4
f 17/17/5 18/18/5 19/19/5
f 17/17/5 19/19/5 20/20/5
f 21/21/6 22/22/6 23/23/6
f 21/21/6 23/23/6 24/24/6
